<svg width="16" height="8" viewBox="0 0 16 8" fill="none" xmlns="http://www.w3.org/2000/svg">
<path fill-rule="evenodd" clip-rule="evenodd" d="M15.7662 0.266523C15.9163 0.41019 16 0.600753 16 0.798879C16 0.997005 15.9163 1.18757 15.7662 1.33124L9.15508 7.55879C9.00935 7.69819 8.83395 7.80919 8.63956 7.88504C8.44516 7.96089 8.23583 8 8.02428 8C7.81274 8 7.60341 7.96089 7.40901 7.88504C7.21461 7.80919 7.03922 7.69819 6.89349 7.55879L0.23352 1.28615C-0.0744785 0.995241 -0.0784782 0.523975 0.22552 0.228706C0.297945 0.157221 0.385761 0.100032 0.483516 0.0606911C0.581271 0.0213511 0.686878 0.000698759 0.793781 1.68771e-05C0.900683 -0.000665005 1.0066 0.0186374 1.10495 0.0567266C1.2033 0.0948159 1.29199 0.150879 1.36552 0.221433L7.45909 5.96172C7.53196 6.03148 7.61968 6.08702 7.71691 6.12498C7.81415 6.16294 7.91886 6.18252 8.02468 6.18252C8.13051 6.18252 8.23522 6.16294 8.33246 6.12498C8.42969 6.08702 8.51741 6.03148 8.59028 5.96172L14.6359 0.26725C14.7087 0.197513 14.7963 0.141978 14.8935 0.104028C14.9906 0.0660773 15.0953 0.0465064 15.201 0.0465064C15.3068 0.0465064 15.4115 0.0660773 15.5086 0.104028C15.6058 0.141978 15.6934 0.196786 15.7662 0.266523Z" fill="#92479B"/>
</svg>
