<svg width="16" height="16" viewBox="0 0 16 16" fill="none" xmlns="http://www.w3.org/2000/svg">
<rect width="16" height="16" rx="8" fill="#E4D442"/>
<path d="M6.84621 12.056L6.84622 12.056L6.8476 12.0545L9.96077 8.7496C10.0535 8.65244 10.1262 8.53691 10.1754 8.41065L9.94502 8.32076L10.1754 8.41065C10.2248 8.28408 10.25 8.14857 10.25 8.01214C10.25 7.87572 10.2248 7.7402 10.1754 7.61363C10.1262 7.48736 10.0535 7.37184 9.96075 7.27467C9.96052 7.27442 9.96028 7.27418 9.96005 7.27393L6.82506 3.94535L6.82482 3.9451C6.58218 3.6882 6.18284 3.68421 5.93572 3.93786C5.87622 3.99834 5.82989 4.07023 5.79842 4.14842C5.76684 4.2269 5.75055 4.31087 5.75001 4.3953C5.74948 4.47972 5.76469 4.56388 5.79524 4.64276C5.82563 4.72125 5.8709 4.79366 5.92943 4.85491L8.79889 7.90097L8.79888 7.90097L8.80027 7.90242C8.81173 7.9144 8.82211 7.93015 8.82961 7.94937C8.83712 7.96861 8.84126 7.9901 8.84126 8.01234C8.84126 8.03459 8.83712 8.05608 8.82961 8.07531C8.82211 8.09453 8.81173 8.11029 8.80027 8.12226L8.80026 8.12226L8.79888 8.12373L5.95228 11.1458C5.89437 11.2065 5.84946 11.2782 5.81915 11.3558C5.78869 11.4338 5.77325 11.517 5.77325 11.6005C5.77325 11.6841 5.78869 11.7673 5.81915 11.8453C5.84923 11.9223 5.89374 11.9945 5.95273 12.0561C6.06915 12.1776 6.22858 12.25 6.39944 12.25C6.57033 12.25 6.72979 12.1776 6.84621 12.056Z" fill="white" stroke="white" stroke-width="0.5"/>
</svg>
