<svg width="20" height="22" viewBox="0 0 20 22" fill="none" xmlns="http://www.w3.org/2000/svg">
<path d="M10 0C9.33696 0 8.70107 0.257539 8.23223 0.715961C7.76339 1.17438 7.5 1.79614 7.5 2.44444V2.86122C4.5875 3.86833 2.5 6.58533 2.5 9.77778V15.8889H1.25C0.918479 15.8889 0.600537 16.0177 0.366117 16.2469C0.131696 16.4761 0 16.787 0 17.1111C0 17.4353 0.131696 17.7461 0.366117 17.9754C0.600537 18.2046 0.918479 18.3333 1.25 18.3333H18.75C19.0815 18.3333 19.3995 18.2046 19.6339 17.9754C19.8683 17.7461 20 17.4353 20 17.1111C20 16.787 19.8683 16.4761 19.6339 16.2469C19.3995 16.0177 19.0815 15.8889 18.75 15.8889H17.5V9.77778C17.5002 8.26092 17.0195 6.78131 16.124 5.54264C15.2286 4.30398 13.9625 3.36718 12.5 2.86122V2.44444C12.5 1.79614 12.2366 1.17438 11.7678 0.715961C11.2989 0.257539 10.663 0 10 0ZM10 22C9.33696 22 8.70107 21.7425 8.23223 21.284C7.76339 20.8256 7.5 20.2039 7.5 19.5556H12.5C12.5 20.2039 12.2366 20.8256 11.7678 21.284C11.2989 21.7425 10.663 22 10 22Z" fill="url(#paint0_linear_80_76)"/>
<defs>
<linearGradient id="paint0_linear_80_76" x1="0" y1="11" x2="19.0196" y2="11" gradientUnits="userSpaceOnUse">
<stop stop-color="#000092"/>
<stop offset="1" stop-color="#FF00F3"/>
</linearGradient>
</defs>
</svg>
