<svg width="17" height="18" viewBox="0 0 17 18" fill="none" xmlns="http://www.w3.org/2000/svg">
<path d="M15.1111 1.77273V0.592091C15.1111 0.435059 15.0446 0.284458 14.9263 0.173419C14.808 0.0623807 14.6475 0 14.4802 0H13.8531C13.6858 0 13.5253 0.0623807 13.407 0.173419C13.2887 0.284458 13.2222 0.435059 13.2222 0.592091V1.77273M3.77778 1.77273V0.592091C3.77778 0.435059 3.71131 0.284458 3.59299 0.173419C3.47468 0.0623807 3.31421 0 3.14689 0H2.51978C2.35246 0 2.19199 0.0623807 2.07367 0.173419C1.95536 0.284458 1.88889 0.435059 1.88889 0.592091V1.77273M0 2.04545H17V3.81818H0V2.04545ZM0 5.59091H17V18H0V5.59091ZM1.88889 7.36364V9.13636H3.77778V7.36364H1.88889ZM5.66667 7.36364V9.13636H7.55556V7.36364H5.66667ZM9.44444 7.36364V9.13636H11.3333V7.36364H9.44444ZM13.2222 7.36364V9.13636H15.1111V7.36364H13.2222ZM1.88889 10.9091V12.6818H3.77778V10.9091H1.88889ZM5.66667 10.9091V12.6818H7.55556V10.9091H5.66667ZM9.44444 10.9091V12.6818H11.3333V10.9091H9.44444ZM13.2222 10.9091V12.6818H15.1111V10.9091H13.2222ZM1.88889 14.4545V16.2273H3.77778V14.4545H1.88889ZM5.66667 14.4545V16.2273H7.55556V14.4545H5.66667ZM9.44444 14.4545V16.2273H11.3333V14.4545H9.44444Z" fill="#DB92E3"/>
</svg>
