<svg width="58" height="58" viewBox="0 0 58 58" fill="none" xmlns="http://www.w3.org/2000/svg">
<g filter="url(#filter0_d_80_657)">
<circle cx="27" cy="25" r="25" fill="white" fill-opacity="0.29"/>
<circle cx="27" cy="25" r="25" fill="url(#paint0_linear_80_657)"/>
<circle cx="27" cy="25" r="24.0902" stroke="url(#paint1_linear_80_657)" stroke-width="1.81964"/>
</g>
<path d="M26.4336 29.3862C24.438 29.3862 22.5459 30.0251 20.944 31.2238C20.4902 31.083 20.0063 31.0075 19.5091 31.0075C16.7492 31.0075 14.5 33.3053 14.5 36.1287C14.5 38.9521 16.7459 41.25 19.5091 41.25C21.0208 41.25 22.3757 40.5562 23.2967 39.4708H33.8288C34.3794 39.4708 34.8966 39.2235 35.247 38.7873C35.5974 38.3545 35.7376 37.7843 35.6375 37.2279C34.8032 32.6836 30.9354 29.3897 26.437 29.3897L26.4336 29.3862ZM19.5091 40.357C17.2264 40.357 15.3677 38.4609 15.3677 36.1287C15.3677 33.7965 17.2264 31.9005 19.5091 31.9005C21.7917 31.9005 23.6505 33.7965 23.6505 36.1287C23.6505 38.4609 21.7917 40.357 19.5091 40.357ZM34.5796 38.2171C34.3961 38.4472 34.1224 38.5777 33.8288 38.5777H23.9074C24.2979 37.8496 24.5181 37.0149 24.5181 36.1287C24.5181 34.1881 23.4569 32.4982 21.8985 31.6291C23.2533 30.743 24.8051 30.2793 26.4336 30.2793C30.515 30.2793 34.0256 33.271 34.7832 37.3927C34.8366 37.6881 34.7632 37.9904 34.5796 38.2171ZM20.2032 25.6457C20.2633 25.6595 20.3233 25.6698 20.3834 25.6698C20.5336 25.6698 20.6771 25.6217 20.8005 25.5324C20.9874 25.3984 21.0942 25.1889 21.0942 24.9588V21.5996C21.0942 21.5686 21.0875 21.5412 21.0842 21.5103C21.8317 19.1952 23.9775 17.6427 26.447 17.6427C28.9165 17.6427 31.0322 19.1746 31.7931 21.4656C31.7864 21.5103 31.7797 21.5549 31.7797 21.5996V25.3366H31.0256C31.2491 24.7561 31.376 24.1276 31.376 23.4646C31.376 20.6619 29.1601 18.3812 26.437 18.3812C23.7139 18.3812 21.498 20.6619 21.498 23.4646C21.498 26.2674 23.7139 28.5481 26.437 28.5481C28.169 28.5481 29.694 27.6207 30.5784 26.2262H31.9366C32.2837 26.2262 32.5707 25.9755 32.6341 25.6492C32.6441 25.6492 32.6574 25.6492 32.6674 25.6457C33.6619 25.395 34.6931 24.4333 34.6931 23.2586C34.6931 21.9843 33.6052 21.0397 32.594 20.892C32.5673 20.8886 32.5373 20.892 32.5106 20.892C31.5528 18.4018 29.1634 16.7496 26.447 16.7496C23.7305 16.7496 21.3412 18.3983 20.3834 20.892C20.35 20.892 20.3166 20.892 20.2799 20.8954C19.2688 21.0397 18.1809 21.9877 18.1809 23.262C18.1809 24.4367 19.2121 25.3984 20.2065 25.6492L20.2032 25.6457ZM26.4336 27.6551C24.1877 27.6551 22.359 25.7728 22.359 23.4612C22.359 21.1496 24.1877 19.2673 26.4336 19.2673C28.6795 19.2673 30.505 21.1496 30.505 23.4612C30.505 24.1344 30.3448 24.7699 30.0711 25.3332H28.1489C27.9821 24.9313 27.595 24.6531 27.1444 24.6531H26.1333C25.5293 24.6531 25.0387 25.158 25.0387 25.7797C25.0387 26.4014 25.5293 26.9063 26.1333 26.9063H27.1444C27.595 26.9063 27.9821 26.6247 28.1489 26.2262H29.4871C28.7396 27.0987 27.6484 27.6551 26.4336 27.6551ZM27.3714 25.7797C27.3714 25.9068 27.2679 26.0167 27.1444 26.0167H26.1333C26.0098 26.0167 25.9064 25.9102 25.9064 25.7797C25.9064 25.6492 26.0098 25.5427 26.1333 25.5427H27.1444C27.2679 25.5427 27.3714 25.6492 27.3714 25.7797ZM33.8221 23.2551C33.8221 23.9421 33.188 24.502 32.6407 24.7149V21.8091C33.2381 21.9774 33.8221 22.551 33.8221 23.2551ZM20.2232 21.8091V24.7149C19.6793 24.502 19.0419 23.9421 19.0419 23.2551C19.0419 22.5544 19.6225 21.9774 20.2232 21.8091ZM22.0953 34.2018L17.5835 38.8456C17.5001 38.9315 17.3866 38.9762 17.2765 38.9762C17.1664 38.9762 17.0563 38.9315 16.9695 38.8456C16.7993 38.6705 16.7993 38.3888 16.9695 38.2136L21.4813 33.5698C21.6515 33.3946 21.9252 33.3946 22.0953 33.5698C22.2655 33.745 22.2655 34.0266 22.0953 34.2018ZM22.2956 36.9737C22.1087 36.6405 21.805 36.4035 21.4446 36.3039C21.0842 36.2043 20.7071 36.2592 20.3801 36.4516C19.7093 36.85 19.4757 37.7328 19.8628 38.4197C20.1198 38.88 20.5903 39.1376 21.0775 39.1376C21.3178 39.1376 21.5581 39.0758 21.7817 38.9418C22.4524 38.5434 22.6827 37.6606 22.2989 36.9737H22.2956ZM21.3445 38.169C21.0875 38.3201 20.7572 38.2343 20.6137 37.9732C20.4668 37.7122 20.5569 37.3756 20.8139 37.2244C20.9374 37.1489 21.0842 37.1317 21.221 37.1695C21.3578 37.2073 21.4746 37.2966 21.5447 37.4236C21.6916 37.6847 21.6014 38.0213 21.3445 38.1724V38.169ZM17.9306 35.9913C18.1709 35.9913 18.4111 35.9295 18.6314 35.7956C18.9551 35.6032 19.1887 35.2941 19.2855 34.9197C19.3822 34.5487 19.3355 34.1606 19.1486 33.824C18.9618 33.4908 18.6581 33.2538 18.2977 33.1542C17.9373 33.0546 17.5602 33.1095 17.2331 33.3019C16.5624 33.7003 16.3288 34.5831 16.7159 35.27C16.9728 35.7303 17.4434 35.9879 17.9306 35.9879V35.9913ZM17.667 34.0782C17.7504 34.0266 17.8438 34.0026 17.9373 34.0026C17.984 34.0026 18.0307 34.0095 18.0741 34.0198C18.2109 34.0575 18.3244 34.1469 18.3978 34.2739C18.4679 34.401 18.4879 34.5453 18.4512 34.6895C18.4145 34.8338 18.3244 34.9506 18.1976 35.0262C17.9406 35.1807 17.6136 35.0914 17.4667 34.8304C17.3199 34.5693 17.41 34.2327 17.667 34.0816V34.0782ZM39.8123 8.75H30.2914C29.7741 8.75 29.3536 9.14157 29.3536 9.62244V16.2241C29.3536 16.705 29.7741 17.0965 30.2914 17.0965H31.9566V18.704C31.9566 18.8964 32.0768 19.0681 32.2536 19.1265C32.297 19.1402 32.3437 19.1505 32.3904 19.1505C32.5239 19.1505 32.6541 19.0853 32.7375 18.9719L34.0957 17.1H39.8123C40.3295 17.1 40.75 16.7084 40.75 16.2275V9.62244C40.75 9.14157 40.3295 8.75 39.8123 8.75ZM39.8823 16.1898C39.8823 16.1898 39.8456 16.2069 39.8123 16.2069H33.8788C33.742 16.2069 33.6118 16.2722 33.5317 16.3855L32.8243 17.361V16.65C32.8243 16.4027 32.6307 16.2035 32.3904 16.2035H30.2914C30.258 16.2035 30.2346 16.1932 30.2213 16.1863V9.65679C30.2213 9.65679 30.258 9.63961 30.2914 9.63961H39.8123C39.8456 9.63961 39.869 9.64992 39.8823 9.65679V16.1863V16.1898ZM39.0013 11.5391C39.0013 11.7864 38.8078 11.9856 38.5675 11.9856H31.5361C31.2959 11.9856 31.1023 11.7864 31.1023 11.5391C31.1023 11.2917 31.2959 11.0925 31.5361 11.0925H38.5675C38.8078 11.0925 39.0013 11.2917 39.0013 11.5391ZM39.0013 14.2766C39.0013 14.5239 38.8078 14.7231 38.5675 14.7231H31.5361C31.2959 14.7231 31.1023 14.5239 31.1023 14.2766C31.1023 14.0293 31.2959 13.8301 31.5361 13.8301H38.5675C38.8078 13.8301 39.0013 14.0293 39.0013 14.2766Z" fill="url(#paint2_linear_80_657)"/>
<defs>
<filter id="filter0_d_80_657" x="0" y="0" width="58" height="58" filterUnits="userSpaceOnUse" color-interpolation-filters="sRGB">
<feFlood flood-opacity="0" result="BackgroundImageFix"/>
<feColorMatrix in="SourceAlpha" type="matrix" values="0 0 0 0 0 0 0 0 0 0 0 0 0 0 0 0 0 0 127 0" result="hardAlpha"/>
<feOffset dx="2" dy="4"/>
<feGaussianBlur stdDeviation="2"/>
<feComposite in2="hardAlpha" operator="out"/>
<feColorMatrix type="matrix" values="0 0 0 0 0 0 0 0 0 0 0 0 0 0 0 0 0 0 0.11 0"/>
<feBlend mode="normal" in2="BackgroundImageFix" result="effect1_dropShadow_80_657"/>
<feBlend mode="normal" in="SourceGraphic" in2="effect1_dropShadow_80_657" result="shape"/>
</filter>
<linearGradient id="paint0_linear_80_657" x1="42.5" y1="6.5" x2="27" y2="50" gradientUnits="userSpaceOnUse">
<stop offset="0.202638" stop-color="#EAF9FF"/>
<stop offset="0.869792" stop-color="#FFDFFD"/>
</linearGradient>
<linearGradient id="paint1_linear_80_657" x1="27" y1="0" x2="27" y2="50" gradientUnits="userSpaceOnUse">
<stop stop-color="white"/>
<stop offset="0.0416667" stop-color="white" stop-opacity="0"/>
<stop offset="0.8125" stop-color="white" stop-opacity="0"/>
<stop offset="1" stop-color="white"/>
</linearGradient>
<linearGradient id="paint2_linear_80_657" x1="14.5" y1="25" x2="39.4632" y2="25" gradientUnits="userSpaceOnUse">
<stop stop-color="#000092"/>
<stop offset="1" stop-color="#FF00F3"/>
</linearGradient>
</defs>
</svg>
