<svg width="58" height="58" viewBox="0 0 58 58" fill="none" xmlns="http://www.w3.org/2000/svg">
<g filter="url(#filter0_d_80_733)">
<circle cx="27" cy="25" r="25" fill="white" fill-opacity="0.29"/>
<circle cx="27" cy="25" r="25" fill="url(#paint0_linear_80_733)"/>
<circle cx="27" cy="25" r="24.0902" stroke="url(#paint1_linear_80_733)" stroke-width="1.81964"/>
</g>
<path d="M17.0762 31.9095C16.9411 31.9095 16.8115 31.9632 16.7159 32.0588C16.6204 32.1543 16.5667 32.2839 16.5667 32.4191V40.0619C16.5667 40.1971 16.6204 40.3267 16.7159 40.4222C16.8115 40.5178 16.9411 40.5714 17.0762 40.5714C17.2113 40.5714 17.3409 40.5178 17.4365 40.4222C17.532 40.3267 17.5857 40.1971 17.5857 40.0619V32.4191C17.5857 32.2839 17.532 32.1543 17.4365 32.0588C17.3409 31.9632 17.2113 31.9095 17.0762 31.9095Z" fill="url(#paint2_linear_80_733)"/>
<path d="M19.984 19.0221C20.1589 18.8477 20.3959 18.7498 20.6429 18.7498C20.8899 18.7498 21.1268 18.8477 21.3017 19.0221C21.3978 19.115 21.5265 19.1663 21.6601 19.1651C21.7937 19.164 21.9215 19.1104 22.0159 19.0159C22.1104 18.9215 22.164 18.7937 22.1651 18.6601C22.1663 18.5265 22.1149 18.3978 22.0221 18.3017C21.6561 17.9363 21.16 17.7311 20.6429 17.7311C20.1257 17.7311 19.6296 17.9363 19.2636 18.3017C19.1708 18.3978 19.1194 18.5265 19.1206 18.6601C19.1217 18.7937 19.1753 18.9215 19.2698 19.0159C19.3643 19.1104 19.492 19.164 19.6256 19.1651C19.7592 19.1663 19.8879 19.115 19.984 19.0221Z" fill="url(#paint3_linear_80_733)"/>
<path d="M24.0602 19.0221C24.2351 18.8477 24.472 18.7498 24.719 18.7498C24.966 18.7498 25.203 18.8477 25.3778 19.0221C25.4739 19.115 25.6027 19.1663 25.7362 19.1651C25.8698 19.164 25.9976 19.1104 26.0921 19.0159C26.1866 18.9215 26.2402 18.7937 26.2413 18.6601C26.2425 18.5265 26.1911 18.3978 26.0983 18.3017C25.7323 17.9363 25.2362 17.7311 24.719 17.7311C24.2019 17.7311 23.7058 17.9363 23.3398 18.3017C23.2469 18.3978 23.1956 18.5265 23.1967 18.6601C23.1979 18.7937 23.2515 18.9215 23.346 19.0159C23.4404 19.1104 23.5682 19.164 23.7018 19.1651C23.8354 19.1663 23.9641 19.115 24.0602 19.0221Z" fill="url(#paint4_linear_80_733)"/>
<path d="M26.7571 13.5667C26.1776 13.5683 25.6035 13.4549 25.068 13.2331C24.5326 13.0113 24.0465 12.6855 23.6378 12.2745C23.5417 12.1817 23.413 12.1303 23.2794 12.1315C23.1458 12.1326 23.018 12.1862 22.9236 12.2807C22.8291 12.3752 22.7755 12.503 22.7744 12.6366C22.7732 12.7702 22.8246 12.8989 22.9174 12.995C23.4203 13.5009 24.0187 13.9021 24.6778 14.1751C25.3369 14.4482 26.0437 14.5877 26.7571 14.5857C26.8923 14.5857 27.0219 14.532 27.1174 14.4365C27.213 14.3409 27.2667 14.2113 27.2667 14.0762C27.2667 13.941 27.213 13.8114 27.1174 13.7159C27.0219 13.6203 26.8923 13.5667 26.7571 13.5667Z" fill="url(#paint5_linear_80_733)"/>
<path d="M41.0238 37.0048H38.4762V29.3619H41.0238C41.1589 29.3619 41.2885 29.3082 41.3841 29.2127C41.4796 29.1171 41.5333 28.9875 41.5333 28.8524C41.5333 28.7173 41.4796 28.5877 41.3841 28.4921C41.2885 28.3965 41.1589 28.3429 41.0238 28.3429H37.9667C37.8315 28.3429 37.7019 28.3965 37.6064 28.4921C37.5108 28.5877 37.4571 28.7173 37.4571 28.8524V29.3619H35.6504L32.2366 25.4595C32.1905 25.4069 32.1341 25.3643 32.0709 25.3344C32.0077 25.3045 31.9391 25.2879 31.8692 25.2857C31.7993 25.2823 31.7295 25.2938 31.6645 25.3195C31.5995 25.3453 31.5407 25.3847 31.4921 25.435C31.2036 25.7267 30.9726 26.0701 30.8114 26.4474C29.9752 25.7031 28.8957 25.2899 27.7762 25.2857H25.7381V24.8822C26.5194 24.3737 27.1616 23.6784 27.6064 22.8592C28.0513 22.0399 28.2847 21.1227 28.2857 20.1905V19.0104C28.7663 18.5827 29.151 18.0582 29.4145 17.4712C29.6779 16.8842 29.8142 16.2481 29.8143 15.6048C29.8178 14.776 29.6333 13.9572 29.2747 13.21C29.2479 13.1464 29.2085 13.0888 29.1588 13.0409C29.109 12.9929 29.0501 12.9556 28.9855 12.9311C28.9209 12.9067 28.8521 12.8956 28.7831 12.8986C28.7141 12.9016 28.6464 12.9185 28.5842 12.9485C28.5219 12.9784 28.4664 13.0207 28.421 13.0727C28.3756 13.1248 28.3413 13.1855 28.3201 13.2513C28.2989 13.317 28.2913 13.3863 28.2977 13.4551C28.3042 13.5239 28.3245 13.5906 28.3576 13.6513C28.649 14.2611 28.7986 14.9289 28.7952 15.6048C28.795 16.2476 28.6188 16.8781 28.2857 17.4278V16.1143C28.2857 15.9792 28.232 15.8496 28.1365 15.754C28.0409 15.6585 27.9113 15.6048 27.7762 15.6048H25.652C24.8342 15.6024 24.0308 15.3896 23.3192 14.9866C22.6076 14.5837 22.0117 14.0043 21.589 13.3043C21.5374 13.2182 21.4615 13.1494 21.3708 13.1063C21.2802 13.0633 21.1788 13.0479 21.0795 13.0622L20.541 13.1397C19.9346 13.2246 19.356 13.448 18.8498 13.7924C18.7413 13.8694 18.6673 13.9859 18.6435 14.1168C18.6197 14.2477 18.6481 14.3827 18.7225 14.493C18.797 14.6033 18.9117 14.6801 19.042 14.7069C19.1723 14.7338 19.308 14.7085 19.42 14.6367C19.7983 14.3795 20.2306 14.2125 20.6836 14.1486L20.9002 14.118C21.4308 14.8885 22.1403 15.519 22.9678 15.9554C23.7954 16.3919 24.7164 16.6212 25.652 16.6238H27.2667V20.1905C27.2667 21.4067 26.7835 22.5731 25.9235 23.4331C25.0636 24.2931 23.8972 24.7762 22.681 24.7762C21.4647 24.7762 20.2983 24.2931 19.4384 23.4331C18.5784 22.5731 18.0952 21.4067 18.0952 20.1905V17.1333C18.0955 16.7414 18.1727 16.3532 18.3225 15.991C18.3635 15.8684 18.3564 15.7348 18.3026 15.6173C18.2489 15.4997 18.1524 15.407 18.0329 15.3579C17.9133 15.3088 17.7795 15.307 17.6586 15.3528C17.5378 15.3987 17.4389 15.4887 17.3819 15.6048C17.181 16.0894 17.0771 16.6087 17.0762 17.1333V17.4278C16.7431 16.8781 16.5669 16.2476 16.5667 15.6048C16.5681 14.389 17.0518 13.2235 17.9114 12.3638C18.7711 11.5042 19.9366 11.0205 21.1524 11.0191H24.2095C25.3299 11.0174 26.4117 11.4284 27.2483 12.1736C27.2982 12.2183 27.3565 12.2528 27.4197 12.275C27.4829 12.2971 27.5499 12.3067 27.6168 12.303C27.6837 12.2993 27.7492 12.2825 27.8096 12.2534C27.87 12.2244 27.9241 12.1838 27.9688 12.1339C28.0135 12.084 28.0479 12.0257 28.0701 11.9625C28.0923 11.8993 28.1018 11.8323 28.0981 11.7654C28.0944 11.6985 28.0776 11.633 28.0486 11.5726C28.0196 11.5122 27.979 11.4581 27.929 11.4134C26.9054 10.5006 25.5811 9.99738 24.2095 10H21.1524C19.6664 10.0018 18.2419 10.5928 17.1912 11.6435C16.1404 12.6943 15.5494 14.1188 15.5476 15.6048C15.5477 16.2481 15.684 16.8842 15.9474 17.4712C16.2109 18.0582 16.5956 18.5827 17.0762 19.0104V20.1905C17.0772 21.1227 17.3106 22.0399 17.7555 22.8592C18.2003 23.6784 18.8425 24.3737 19.6238 24.8822V25.2857H17.5857C16.37 25.2872 15.2044 25.7708 14.3448 26.6305C13.4851 27.4901 13.0015 28.6557 13 29.8714V40.0619C13 40.197 13.0537 40.3266 13.1492 40.4222C13.2448 40.5177 13.3744 40.5714 13.5095 40.5714C13.6447 40.5714 13.7743 40.5177 13.8698 40.4222C13.9654 40.3266 14.019 40.197 14.019 40.0619V29.8714C14.0201 28.9258 14.3962 28.0193 15.0649 27.3506C15.7335 26.682 16.6401 26.3058 17.5857 26.3048H17.764L19.6676 30.5878C19.6993 30.6591 19.7468 30.7221 19.8066 30.7721C19.8665 30.8221 19.937 30.8577 20.0127 30.8762C20.0885 30.8946 20.1674 30.8955 20.2436 30.8786C20.3197 30.8617 20.3909 30.8276 20.4518 30.7789L21.1651 30.2082C21.2634 30.3175 21.3733 30.4157 21.4927 30.5012L21.0851 33.3459C21.0661 33.4797 21.1009 33.6155 21.1821 33.7236C21.2632 33.8317 21.3839 33.9031 21.5177 33.9221C21.5417 33.9256 21.5659 33.9273 21.5901 33.9272C21.7127 33.9271 21.8311 33.8828 21.9237 33.8024C22.0162 33.722 22.0767 33.6109 22.094 33.4896L22.467 30.8747C22.6082 30.8957 22.7517 30.8957 22.8929 30.8747L23.6796 36.3882L22.681 38.0523L21.6828 36.3887L21.8097 35.5083C21.829 35.3745 21.7944 35.2385 21.7134 35.1303C21.6325 35.022 21.5119 34.9503 21.3781 34.931C21.2443 34.9117 21.1083 34.9463 21.0001 35.0272C20.8918 35.1082 20.8201 35.2288 20.8008 35.3626L20.648 36.4224C20.6312 36.5386 20.6552 36.657 20.7157 36.7576L22.2443 39.3053C22.2896 39.3806 22.3536 39.4429 22.4301 39.4862C22.5066 39.5295 22.593 39.5522 22.681 39.5522C22.7689 39.5522 22.8553 39.5295 22.9318 39.4862C23.0083 39.4429 23.0723 39.3806 23.1176 39.3053L24.6462 36.7576C24.7065 36.6573 24.7304 36.5393 24.7139 36.4234L23.8702 30.5012C23.9895 30.4157 24.0992 30.3174 24.1973 30.2082L24.9106 30.7789C24.9715 30.8276 25.0427 30.8617 25.1188 30.8786C25.195 30.8955 25.2739 30.8946 25.3497 30.8762C25.4254 30.8577 25.4959 30.8221 25.5558 30.7721C25.6156 30.7221 25.6632 30.6591 25.6948 30.5878L27.5979 26.3048H27.7762C28.3078 26.3038 28.8328 26.423 29.3118 26.6536C29.7908 26.8842 30.2115 27.22 30.5424 27.6362C30.5175 28.2383 30.6599 28.8356 30.9536 29.3619H28.2857C27.9907 29.3621 27.7021 29.4477 27.4546 29.6083C27.2072 29.7688 27.0115 29.9976 26.8912 30.2669C26.7708 30.5363 26.731 30.8346 26.7765 31.1261C26.8219 31.4176 26.9508 31.6897 27.1474 31.9095C26.8961 32.1895 26.7571 32.5524 26.7571 32.9286C26.7571 33.3048 26.8961 33.6677 27.1474 33.9476C26.8968 34.2269 26.7576 34.5887 26.7565 34.964C26.7554 35.3393 26.8923 35.7018 27.1413 35.9827C26.9453 36.203 26.8172 36.4754 26.7725 36.7669C26.7278 37.0584 26.7683 37.3566 26.8893 37.6256C27.0103 37.8946 27.2065 38.1228 27.4542 38.2828C27.702 38.4428 27.9908 38.5277 28.2857 38.5272H29.2492C29.3202 38.5328 29.3916 38.5238 29.459 38.5009C29.5264 38.478 29.5884 38.4416 29.6413 38.3939C29.6941 38.3462 29.7367 38.2883 29.7665 38.2236C29.7962 38.1589 29.8125 38.0889 29.8143 38.0177C29.8143 37.8826 29.7606 37.753 29.665 37.6574C29.5695 37.5619 29.4399 37.5082 29.3048 37.5082H28.2857C28.1575 37.5003 28.037 37.4444 27.9483 37.3515C27.8596 37.2586 27.8092 37.1357 27.8073 37.0073C27.8054 36.8788 27.852 36.7544 27.9379 36.6589C28.0237 36.5634 28.1425 36.5039 28.2704 36.4922C28.3449 36.4889 28.4176 36.4691 28.4834 36.4341H29.3048C29.4399 36.4341 29.5695 36.3804 29.665 36.2849C29.7606 36.1893 29.8143 36.0597 29.8143 35.9246C29.8143 35.7894 29.7606 35.6598 29.665 35.5643C29.5695 35.4687 29.4399 35.415 29.3048 35.415H28.2857C28.2363 35.4177 28.1876 35.4274 28.141 35.4441C28.0365 35.415 27.9444 35.3527 27.8785 35.2666C27.8127 35.1804 27.7768 35.0751 27.7762 34.9667C27.7762 34.8315 27.8299 34.7019 27.9254 34.6064C28.021 34.5108 28.1506 34.4571 28.2857 34.4571H29.3048C29.4399 34.4571 29.5695 34.4035 29.665 34.3079C29.7606 34.2124 29.8143 34.0828 29.8143 33.9476C29.8143 33.8125 29.7606 33.6829 29.665 33.5873C29.5695 33.4918 29.4399 33.4381 29.3048 33.4381H28.2857C28.1506 33.4381 28.021 33.3844 27.9254 33.2889C27.8299 33.1933 27.7762 33.0637 27.7762 32.9286C27.7762 32.7934 27.8299 32.6638 27.9254 32.5683C28.021 32.4727 28.1506 32.4191 28.2857 32.4191H29.3048C29.4399 32.4191 29.5695 32.3654 29.665 32.2698C29.7606 32.1743 29.8143 32.0447 29.8143 31.9095C29.8143 31.7744 29.7606 31.6448 29.665 31.5492C29.5695 31.4537 29.4399 31.4 29.3048 31.4H28.2857C28.1506 31.4 28.021 31.3463 27.9254 31.2508C27.8299 31.1552 27.7762 31.0256 27.7762 30.8905C27.7762 30.7553 27.8299 30.6257 27.9254 30.5302C28.021 30.4346 28.1506 30.381 28.2857 30.381H31.8524C31.9426 30.3809 32.0311 30.357 32.109 30.3115C32.1869 30.2661 32.2514 30.2008 32.2958 30.1223C32.3402 30.0438 32.3629 29.9549 32.3618 29.8648C32.3606 29.7746 32.3355 29.6863 32.289 29.609L31.8728 28.9156C31.6618 28.5647 31.5504 28.163 31.5504 27.7536C31.5504 27.3442 31.6618 26.9425 31.8728 26.5916L35.0364 30.2092C35.0843 30.2634 35.1433 30.3067 35.2092 30.3363C35.2752 30.3659 35.3467 30.3811 35.419 30.381H37.4571V35.9934C36.6089 36.0451 35.7943 36.3435 35.1133 36.8519C34.5393 37.2804 33.8425 37.5127 33.1262 37.5143H31.3429C31.2077 37.5143 31.0781 37.568 30.9826 37.6635C30.887 37.7591 30.8333 37.8887 30.8333 38.0238C30.8333 38.1589 30.887 38.2885 30.9826 38.3841C31.0781 38.4797 31.2077 38.5333 31.3429 38.5333H33.1262C34.0629 38.5313 34.9741 38.2276 35.7248 37.6671C36.2301 37.2941 36.8307 37.0717 37.4571 37.0257V37.5143C37.4571 37.6494 37.5108 37.779 37.6064 37.8746C37.7019 37.9701 37.8315 38.0238 37.9667 38.0238H41.0238C41.1589 38.0238 41.2885 37.9701 41.3841 37.8746C41.4796 37.779 41.5333 37.6494 41.5333 37.5143C41.5333 37.3792 41.4796 37.2496 41.3841 37.154C41.2885 37.0584 41.1589 37.0048 41.0238 37.0048ZM22.681 25.7952C23.3787 25.7943 24.0701 25.6623 24.719 25.406V26.0602L22.681 27.6907L20.6429 26.0602V25.406C21.2918 25.6623 21.9832 25.7943 22.681 25.7952ZM20.3305 29.5708L18.8794 26.3048H19.6238C19.6238 26.3812 19.6409 26.4566 19.674 26.5255C19.7071 26.5944 19.7552 26.6549 19.8149 26.7027L21.8657 28.3429L20.3305 29.5708ZM22.681 29.8714C22.5478 29.8701 22.4161 29.8424 22.2937 29.7899C22.1713 29.7374 22.0604 29.6612 21.9676 29.5657L22.681 28.9951L23.3943 29.5657C23.3015 29.6612 23.1906 29.7374 23.0682 29.7899C22.9458 29.8424 22.8141 29.8701 22.681 29.8714ZM25.0314 29.5708L23.4962 28.3429L25.5465 26.7027C25.6063 26.655 25.6545 26.5945 25.6877 26.5256C25.7208 26.4567 25.7381 26.3812 25.7381 26.3048H26.4825L25.0314 29.5708Z" fill="url(#paint6_linear_80_733)"/>
<path d="M35.6616 13.1616L35.4664 14.2999C35.4503 14.3936 35.4607 14.49 35.4965 14.5781C35.5322 14.6663 35.592 14.7426 35.6689 14.7986C35.7459 14.8545 35.8369 14.8878 35.9318 14.8947C36.0267 14.9015 36.1216 14.8817 36.2058 14.8374L37.2284 14.2993L38.2505 14.8374C38.3236 14.8755 38.4049 14.8954 38.4874 14.8955C38.5616 14.8955 38.635 14.8793 38.7023 14.8481C38.7696 14.8168 38.8292 14.7712 38.8771 14.7145C38.9249 14.6577 38.9598 14.5912 38.9793 14.5196C38.9988 14.448 39.0023 14.373 38.9898 14.2999L38.7947 13.1616L39.6221 12.3555C39.6902 12.2893 39.7384 12.2054 39.7614 12.1133C39.7843 12.0212 39.7811 11.9245 39.752 11.8341C39.7229 11.7437 39.6691 11.6633 39.5968 11.6018C39.5244 11.5403 39.4363 11.5003 39.3424 11.4863L38.1965 11.3197L37.687 10.2843C37.6449 10.199 37.5798 10.1271 37.499 10.0769C37.4183 10.0266 37.325 10 37.2299 10C37.1348 10 37.0416 10.0266 36.9608 10.0769C36.88 10.1271 36.8149 10.199 36.7729 10.2843L36.2633 11.3202L35.1205 11.4868C35.0264 11.5004 34.938 11.5402 34.8653 11.6015C34.7926 11.6628 34.7385 11.7432 34.7091 11.8336C34.6797 11.9241 34.6762 12.0209 34.6991 12.1133C34.7219 12.2056 34.7701 12.2897 34.8382 12.356L35.6616 13.1616ZM36.6715 12.2898C36.7532 12.2779 36.8309 12.2463 36.8977 12.1978C36.9645 12.1492 37.0186 12.0852 37.0551 12.0111L37.2284 11.6605L37.4011 12.0111C37.4377 12.0852 37.4917 12.1492 37.5585 12.1978C37.6254 12.2463 37.703 12.2779 37.7848 12.2898L38.1715 12.3458L37.8918 12.6184C37.8326 12.6761 37.7883 12.7472 37.7628 12.8258C37.7372 12.9043 37.7311 12.9879 37.745 13.0694L37.8113 13.4546L37.4653 13.2727C37.3921 13.2345 37.3107 13.2145 37.2281 13.2145C37.1455 13.2145 37.0642 13.2345 36.9909 13.2727L36.6455 13.4546L36.7117 13.0694C36.7257 12.9879 36.7196 12.9043 36.694 12.8258C36.6684 12.7472 36.6242 12.6761 36.565 12.6184L36.2853 12.3438L36.6715 12.2898Z" fill="url(#paint7_linear_80_733)"/>
<path d="M35.6616 18.8112L35.4664 19.95C35.4504 20.0437 35.4609 20.14 35.4967 20.228C35.5325 20.3161 35.5923 20.3924 35.6692 20.4483C35.7461 20.5041 35.8371 20.5374 35.932 20.5442C36.0268 20.5511 36.1216 20.5312 36.2058 20.487L37.2284 19.9495L38.2505 20.487C38.3346 20.5312 38.4295 20.5511 38.5243 20.5442C38.6191 20.5374 38.7101 20.5041 38.787 20.4483C38.864 20.3924 38.9237 20.3161 38.9595 20.228C38.9954 20.14 39.0059 20.0437 38.9898 19.95L38.7947 18.8112L39.6221 18.0051C39.6902 17.9388 39.7384 17.8547 39.7613 17.7624C39.7841 17.67 39.7806 17.5732 39.7512 17.4827C39.7219 17.3923 39.6678 17.3119 39.5951 17.2506C39.5224 17.1893 39.434 17.1495 39.3398 17.1359L38.1965 16.9698L37.687 15.9339C37.6449 15.8486 37.5798 15.7767 37.499 15.7265C37.4183 15.6762 37.325 15.6496 37.2299 15.6496C37.1348 15.6496 37.0416 15.6762 36.9608 15.7265C36.88 15.7767 36.8149 15.8486 36.7729 15.9339L36.2633 16.9698L35.1205 17.1359C35.0264 17.1495 34.938 17.1893 34.8653 17.2506C34.7926 17.3119 34.7385 17.3923 34.7091 17.4827C34.6797 17.5732 34.6762 17.67 34.6991 17.7624C34.7219 17.8547 34.7701 17.9388 34.8382 18.0051L35.6616 18.8112ZM36.6715 17.9399C36.7532 17.928 36.8309 17.8964 36.8977 17.8479C36.9645 17.7993 37.0186 17.7353 37.0551 17.6612L37.2284 17.3106L37.4011 17.6607C37.4376 17.7348 37.4916 17.799 37.5585 17.8477C37.6253 17.8963 37.703 17.928 37.7848 17.9399L38.1715 17.9959L37.8918 18.2685C37.8326 18.3262 37.7883 18.3973 37.7628 18.4759C37.7372 18.5544 37.7311 18.638 37.745 18.7195L37.8113 19.1047L37.4653 18.9228C37.3922 18.8843 37.3108 18.8642 37.2281 18.8642C37.1455 18.8642 37.0641 18.8843 36.9909 18.9228L36.6455 19.1047L36.7117 18.7195C36.7257 18.638 36.7196 18.5544 36.694 18.4759C36.6684 18.3973 36.6242 18.3262 36.565 18.2685L36.2853 17.9959L36.6715 17.9399Z" fill="url(#paint8_linear_80_733)"/>
<path d="M35.6615 24.4608L35.4664 25.5996C35.4503 25.6933 35.4608 25.7896 35.4966 25.8777C35.5325 25.9657 35.5922 26.042 35.6691 26.0979C35.7461 26.1538 35.8371 26.187 35.9319 26.1938C36.0267 26.2007 36.1216 26.1809 36.2057 26.1366L37.2283 25.5991L38.2504 26.1366C38.3346 26.1809 38.4294 26.2007 38.5242 26.1938C38.6191 26.187 38.7101 26.1538 38.787 26.0979C38.8639 26.042 38.9237 25.9657 38.9595 25.8777C38.9953 25.7896 39.0058 25.6933 38.9897 25.5996L38.7946 24.4608L39.6221 23.6552C39.6893 23.5888 39.7367 23.5049 39.759 23.4129C39.7813 23.321 39.7775 23.2247 39.7482 23.1348C39.7188 23.0449 39.665 22.965 39.5928 22.9039C39.5206 22.8428 39.4328 22.8031 39.3393 22.7891L38.1964 22.623L37.6869 21.5871C37.6448 21.5018 37.5797 21.4299 37.499 21.3797C37.4182 21.3294 37.325 21.3028 37.2298 21.3028C37.1347 21.3028 37.0415 21.3294 36.9607 21.3797C36.88 21.4299 36.8149 21.5018 36.7728 21.5871L36.2633 22.623L35.1204 22.7891C35.0269 22.8031 34.9392 22.843 34.8671 22.9041C34.7949 22.9652 34.7412 23.0451 34.7119 23.135C34.6826 23.2249 34.6789 23.3212 34.7012 23.413C34.7235 23.5049 34.7709 23.5888 34.8381 23.6552L35.6615 24.4608ZM36.6714 23.5895C36.7532 23.5776 36.8308 23.5461 36.8976 23.4975C36.9645 23.449 37.0185 23.3849 37.0551 23.3108L37.2283 22.9603L37.401 23.3108C37.4376 23.3849 37.4916 23.449 37.5585 23.4975C37.6253 23.5461 37.703 23.5776 37.7847 23.5895L38.1714 23.6456L37.8917 23.9182C37.8325 23.9758 37.7883 24.047 37.7627 24.1255C37.7371 24.2041 37.731 24.2877 37.745 24.3691L37.8112 24.7543L37.4652 24.5724C37.3921 24.5339 37.3107 24.5138 37.2281 24.5138C37.1454 24.5138 37.064 24.5339 36.9909 24.5724L36.6454 24.7543L36.7117 24.3691C36.7256 24.2877 36.7195 24.2041 36.6939 24.1255C36.6684 24.047 36.6241 23.9758 36.5649 23.9182L36.2852 23.6456L36.6714 23.5895Z" fill="url(#paint9_linear_80_733)"/>
<defs>
<filter id="filter0_d_80_733" x="0" y="0" width="58" height="58" filterUnits="userSpaceOnUse" color-interpolation-filters="sRGB">
<feFlood flood-opacity="0" result="BackgroundImageFix"/>
<feColorMatrix in="SourceAlpha" type="matrix" values="0 0 0 0 0 0 0 0 0 0 0 0 0 0 0 0 0 0 127 0" result="hardAlpha"/>
<feOffset dx="2" dy="4"/>
<feGaussianBlur stdDeviation="2"/>
<feComposite in2="hardAlpha" operator="out"/>
<feColorMatrix type="matrix" values="0 0 0 0 0 0 0 0 0 0 0 0 0 0 0 0 0 0 0.11 0"/>
<feBlend mode="normal" in2="BackgroundImageFix" result="effect1_dropShadow_80_733"/>
<feBlend mode="normal" in="SourceGraphic" in2="effect1_dropShadow_80_733" result="shape"/>
</filter>
<linearGradient id="paint0_linear_80_733" x1="42.5" y1="6.5" x2="27" y2="50" gradientUnits="userSpaceOnUse">
<stop offset="0.202638" stop-color="#EAF9FF"/>
<stop offset="0.869792" stop-color="#FFDFFD"/>
</linearGradient>
<linearGradient id="paint1_linear_80_733" x1="27" y1="0" x2="27" y2="50" gradientUnits="userSpaceOnUse">
<stop stop-color="white"/>
<stop offset="0.0416667" stop-color="white" stop-opacity="0"/>
<stop offset="0.8125" stop-color="white" stop-opacity="0"/>
<stop offset="1" stop-color="white"/>
</linearGradient>
<linearGradient id="paint2_linear_80_733" x1="16.5667" y1="36.2405" x2="17.5358" y2="36.2405" gradientUnits="userSpaceOnUse">
<stop stop-color="#000092"/>
<stop offset="1" stop-color="#FF00F3"/>
</linearGradient>
<linearGradient id="paint3_linear_80_733" x1="19.1205" y1="18.4482" x2="22.0159" y2="18.4482" gradientUnits="userSpaceOnUse">
<stop stop-color="#000092"/>
<stop offset="1" stop-color="#FF00F3"/>
</linearGradient>
<linearGradient id="paint4_linear_80_733" x1="23.1967" y1="18.4482" x2="26.0921" y2="18.4482" gradientUnits="userSpaceOnUse">
<stop stop-color="#000092"/>
<stop offset="1" stop-color="#FF00F3"/>
</linearGradient>
<linearGradient id="paint5_linear_80_733" x1="22.7743" y1="13.3586" x2="27.0464" y2="13.3586" gradientUnits="userSpaceOnUse">
<stop stop-color="#000092"/>
<stop offset="1" stop-color="#FF00F3"/>
</linearGradient>
<linearGradient id="paint6_linear_80_733" x1="13" y1="25.2857" x2="40.1346" y2="25.2857" gradientUnits="userSpaceOnUse">
<stop stop-color="#000092"/>
<stop offset="1" stop-color="#FF00F3"/>
</linearGradient>
<linearGradient id="paint7_linear_80_733" x1="34.6842" y1="12.448" x2="39.5269" y2="12.448" gradientUnits="userSpaceOnUse">
<stop stop-color="#000092"/>
<stop offset="1" stop-color="#FF00F3"/>
</linearGradient>
<linearGradient id="paint8_linear_80_733" x1="34.6842" y1="18.0976" x2="39.5265" y2="18.0976" gradientUnits="userSpaceOnUse">
<stop stop-color="#000092"/>
<stop offset="1" stop-color="#FF00F3"/>
</linearGradient>
<linearGradient id="paint9_linear_80_733" x1="34.6868" y1="23.749" x2="39.524" y2="23.749" gradientUnits="userSpaceOnUse">
<stop stop-color="#000092"/>
<stop offset="1" stop-color="#FF00F3"/>
</linearGradient>
</defs>
</svg>
