<svg width="10" height="13" viewBox="0 0 10 13" fill="none" xmlns="http://www.w3.org/2000/svg">
<path d="M9.3292 4.63975L9.13035 10.2808C9.11341 10.7639 8.89628 11.2218 8.52502 11.5574C8.15377 11.8929 7.65763 12.0796 7.1419 12.0779H3.36383C2.84844 12.0796 2.35258 11.8932 1.98138 11.558C1.61018 11.2229 1.39282 10.7654 1.37538 10.2827L1.17653 4.63975C1.17218 4.51618 1.22038 4.39605 1.31053 4.30579C1.40068 4.21552 1.5254 4.16252 1.65724 4.15845C1.78908 4.15437 1.91726 4.19955 2.01356 4.28404C2.10986 4.36854 2.16641 4.48543 2.17076 4.609L2.36961 10.2514C2.37951 10.4923 2.48861 10.7202 2.674 10.8873C2.85939 11.0544 3.10665 11.1476 3.36383 11.1474H7.1419C7.39941 11.1476 7.64695 11.0541 7.8324 10.8866C8.01784 10.7191 8.12673 10.4908 8.13613 10.2496L8.33497 4.609C8.33932 4.48543 8.39587 4.36854 8.49217 4.28404C8.58848 4.19955 8.71665 4.15437 8.84849 4.15845C8.98033 4.16252 9.10505 4.21552 9.1952 4.30579C9.28535 4.39605 9.33355 4.51618 9.3292 4.63975ZM9.98688 2.76252C9.98688 2.88609 9.93451 3.0046 9.84128 3.09198C9.74805 3.17936 9.62161 3.22845 9.48977 3.22845H1.01646C0.884619 3.22845 0.758176 3.17936 0.664949 3.09198C0.571722 3.0046 0.519348 2.88609 0.519348 2.76252C0.519348 2.63894 0.571722 2.52043 0.664949 2.43305C0.758176 2.34567 0.884619 2.29658 1.01646 2.29658H2.55751C2.71502 2.29698 2.86706 2.24244 2.98403 2.14357C3.101 2.0447 3.17454 1.90858 3.19034 1.76169C3.22702 1.41713 3.39926 1.09771 3.67348 0.865665C3.94771 0.63362 4.30428 0.505574 4.67373 0.506474H5.832C6.20145 0.505574 6.55802 0.63362 6.83225 0.865665C7.10647 1.09771 7.27871 1.41713 7.31539 1.76169C7.33119 1.90858 7.40473 2.0447 7.5217 2.14357C7.63867 2.24244 7.79071 2.29698 7.94822 2.29658H9.48927C9.62111 2.29658 9.74755 2.34567 9.84078 2.43305C9.93401 2.52043 9.98638 2.63894 9.98638 2.76252H9.98688ZM4.05333 2.29658H6.4534C6.38807 2.15668 6.34535 2.00844 6.32663 1.85674C6.31432 1.7419 6.25696 1.63542 6.16567 1.55795C6.07437 1.48047 5.95565 1.43752 5.8325 1.43741H4.67423C4.55107 1.43752 4.43235 1.48047 4.34106 1.55795C4.24977 1.63542 4.19241 1.7419 4.18009 1.85674C4.16122 2.00847 4.11833 2.15671 4.05283 2.29658H4.05333ZM4.55392 9.35591V5.38851C4.55392 5.26493 4.50155 5.14642 4.40832 5.05904C4.3151 4.97166 4.18865 4.92257 4.05681 4.92257C3.92497 4.92257 3.79852 4.97166 3.7053 5.05904C3.61207 5.14642 3.5597 5.26493 3.5597 5.38851V9.35778C3.5597 9.48135 3.61207 9.59986 3.7053 9.68724C3.79852 9.77462 3.92497 9.82371 4.05681 9.82371C4.18865 9.82371 4.3151 9.77462 4.40832 9.68724C4.50155 9.59986 4.55392 9.48135 4.55392 9.35778V9.35591ZM6.94703 9.35591V5.38851C6.94703 5.26493 6.89465 5.14642 6.80143 5.05904C6.7082 4.97166 6.58176 4.92257 6.44992 4.92257C6.31807 4.92257 6.19163 4.97166 6.0984 5.05904C6.00518 5.14642 5.9528 5.26493 5.9528 5.38851V9.35778C5.9528 9.48135 6.00518 9.59986 6.0984 9.68724C6.19163 9.77462 6.31807 9.82371 6.44992 9.82371C6.58176 9.82371 6.7082 9.77462 6.80143 9.68724C6.89465 9.59986 6.94703 9.48135 6.94703 9.35778V9.35591Z" fill="#FF3717"/>
</svg>
