<svg width="44" height="44" viewBox="0 0 44 44" fill="none" xmlns="http://www.w3.org/2000/svg">
<circle cx="22" cy="22" r="22" fill="#FAEFFC"/>
<g clip-path="url(#clip0_1_94)">
<path fill-rule="evenodd" clip-rule="evenodd" d="M17.5607 9H26.365L34.1396 16.7731V31.7026C34.1396 33.517 32.6552 35 30.8423 35H17.5607C15.7478 35 14.2633 33.517 14.2633 31.7026V12.2974C14.2634 10.483 15.7478 9 17.5607 9Z" fill="#095A97"/>
<path fill-rule="evenodd" clip-rule="evenodd" d="M26.3651 9L34.1397 16.7731H27.2046C26.7425 16.7731 26.3651 16.3972 26.3651 15.935V9ZM10.584 20.0705H28.4914C28.8882 20.0705 29.2151 20.3959 29.2151 20.7941V27.3636C29.2151 27.7618 28.8882 28.0888 28.4914 28.0888H10.584C10.1858 28.0888 9.86035 27.7618 9.86035 27.3636V20.7941C9.8604 20.3959 10.1858 20.0705 10.584 20.0705Z" fill="#199BFF"/>
<path d="M17.6216 21.4116C16.6454 21.4116 15.8511 22.2059 15.8511 23.1821V24.9771C15.8511 25.9534 16.6454 26.7476 17.6216 26.7476C18.598 26.7476 19.3922 25.9533 19.3922 24.9771V23.1821C19.3922 22.2058 18.598 21.4116 17.6216 21.4116ZM18.5526 24.9771C18.5526 25.4904 18.135 25.908 17.6216 25.908C17.1083 25.908 16.6907 25.4904 16.6907 24.9771V23.1821C16.6907 22.6688 17.1083 22.2512 17.6216 22.2512C18.135 22.2512 18.5526 22.6688 18.5526 23.1821V24.9771ZM20.7979 23.1821V24.9771C20.7979 25.4904 21.2155 25.908 21.7288 25.908C22.2422 25.908 22.6598 25.4904 22.6598 24.9771C22.6598 24.7452 22.8477 24.5573 23.0796 24.5573C23.3115 24.5573 23.4994 24.7452 23.4994 24.9771C23.4994 25.9534 22.7051 26.7476 21.7288 26.7476C20.7525 26.7476 19.9583 25.9533 19.9583 24.9771V23.1821C19.9583 22.2058 20.7526 21.4116 21.7288 21.4116C22.7051 21.4116 23.4994 22.2059 23.4994 23.1821C23.4994 23.414 23.3114 23.6019 23.0796 23.6019C22.8477 23.6019 22.6598 23.414 22.6598 23.1821C22.6598 22.6688 22.2422 22.2512 21.7288 22.2512C21.2155 22.2512 20.7979 22.6688 20.7979 23.1821ZM13.4431 21.4116H12.0924C11.8605 21.4116 11.6726 21.5995 11.6726 21.8314V26.3278C11.6726 26.5597 11.8605 26.7476 12.0924 26.7476H13.4431C14.4194 26.7476 15.2136 25.9533 15.2136 24.9771V23.1821C15.2136 22.2058 14.4194 21.4116 13.4431 21.4116ZM14.3741 24.9771C14.3741 25.4904 13.9564 25.908 13.4431 25.908H12.5122V22.2511H13.4431C13.9564 22.2511 14.374 22.6687 14.374 23.182V24.9771H14.3741ZM27.3416 26.1117C27.461 26.3104 27.3967 26.5683 27.198 26.6877C27.1303 26.7283 27.0557 26.7476 26.9822 26.7476C26.8396 26.7476 26.7007 26.675 26.6219 26.544L25.6311 24.8947L24.6402 26.544C24.5614 26.6751 24.4224 26.7476 24.2799 26.7476C24.2063 26.7476 24.1318 26.7283 24.0641 26.6877C23.8654 26.5683 23.8011 26.3104 23.9205 26.1117L25.1414 24.0796L23.9205 22.0475C23.8011 21.8488 23.8654 21.5909 24.0641 21.4715C24.263 21.3521 24.5208 21.4165 24.6402 21.6152L25.6311 23.2645L26.6219 21.6152C26.7413 21.4165 26.9992 21.3521 27.198 21.4715C27.3967 21.5909 27.461 21.8488 27.3416 22.0475L26.1207 24.0796L27.3416 26.1117Z" fill="white"/>
</g>
<defs>
<clipPath id="clip0_1_94">
<rect width="26" height="26" fill="white" transform="translate(9 9)"/>
</clipPath>
</defs>
</svg>
