<svg width="12" height="12" viewBox="0 0 12 12" fill="none" xmlns="http://www.w3.org/2000/svg">
<path d="M10.5274 1.03095C11.2094 1.71299 11.2094 2.81881 10.5274 3.50086L4.07715 9.95107C3.79736 10.2309 3.4468 10.4293 3.06294 10.5253L1.06233 11.0255C0.742552 11.1054 0.452899 10.8157 0.532843 10.496L1.033 8.49536C1.12896 8.1115 1.32745 7.76094 1.60723 7.48115L8.05744 1.03095C8.73949 0.348897 9.84531 0.348897 10.5274 1.03095ZM7.43989 2.88329L2.22471 8.09863C2.05684 8.2665 1.93775 8.47684 1.88017 8.70716L1.55651 10.0018L2.85114 9.67813C3.08146 9.62055 3.2918 9.50146 3.45967 9.33359L8.67466 4.11806L7.43989 2.88329ZM8.67492 1.64842L8.05728 2.2659L9.29205 3.50067L9.90987 2.88338C10.2509 2.54236 10.2509 1.98945 9.90987 1.64842C9.56885 1.3074 9.01594 1.3074 8.67492 1.64842Z" fill="#92479B"/>
</svg>
