<svg width="58" height="58" viewBox="0 0 58 58" fill="none" xmlns="http://www.w3.org/2000/svg">
<g filter="url(#filter0_d_80_775)">
<circle cx="27" cy="25" r="25" fill="white" fill-opacity="0.29"/>
<circle cx="27" cy="25" r="25" fill="url(#paint0_linear_80_775)"/>
<circle cx="27" cy="25" r="24.0902" stroke="url(#paint1_linear_80_775)" stroke-width="1.81964"/>
</g>
<path d="M27.7294 19.563H32.5419C32.6662 19.563 32.7854 19.5136 32.8733 19.4257C32.9612 19.3378 33.0106 19.2185 33.0106 19.0942C33.0106 18.9699 32.9612 18.8507 32.8733 18.7628C32.7854 18.6749 32.6662 18.6255 32.5419 18.6255H27.7294C27.6051 18.6255 27.4858 18.6749 27.3979 18.7628C27.31 18.8507 27.2606 18.9699 27.2606 19.0942C27.2606 19.2185 27.31 19.3378 27.3979 19.4257C27.4858 19.5136 27.6051 19.563 27.7294 19.563ZM27.7294 17.688H32.5419C32.6662 17.688 32.7854 17.6386 32.8733 17.5507C32.9612 17.4628 33.0106 17.3436 33.0106 17.2193C33.0106 17.095 32.9612 16.9757 32.8733 16.8878C32.7854 16.7999 32.6662 16.7505 32.5419 16.7505H27.7294C27.6051 16.7505 27.4858 16.7999 27.3979 16.8878C27.31 16.9757 27.2606 17.095 27.2606 17.2193C27.2606 17.3436 27.31 17.4628 27.3979 17.5507C27.4858 17.6386 27.6051 17.688 27.7294 17.688ZM25.4563 24.5347L23.7019 26.3016C23.6932 26.3103 23.6829 26.3172 23.6715 26.322C23.6601 26.3267 23.6479 26.3291 23.6356 26.3291C23.6232 26.3293 23.6108 26.327 23.5993 26.3222C23.5878 26.3175 23.5774 26.3105 23.5688 26.3016L22.9175 25.6503C22.8291 25.5649 22.7107 25.5176 22.5878 25.5186C22.4649 25.5196 22.3473 25.5689 22.2604 25.6557C22.1734 25.7426 22.1241 25.8601 22.123 25.983C22.1218 26.1059 22.169 26.2244 22.2544 26.3128L22.9062 26.9647C23.0017 27.0607 23.1153 27.1368 23.2404 27.1886C23.3655 27.2404 23.4996 27.2669 23.635 27.2666C23.7708 27.2667 23.9052 27.2398 24.0305 27.1876C24.1558 27.1353 24.2695 27.0587 24.365 26.9622L26.125 25.1947C26.2101 25.106 26.2569 24.9873 26.2553 24.8644C26.2538 24.7415 26.204 24.6241 26.1167 24.5375C26.0294 24.4509 25.9115 24.4021 25.7886 24.4016C25.6656 24.4011 25.5474 24.4489 25.4594 24.5347H25.4563ZM40.6562 12.0631H35.8219V11.3444C35.821 10.7231 35.5739 10.1274 35.1345 9.68807C34.6951 9.24872 34.0995 9.00153 33.4781 9.0007L22.7738 9.0007C22.7581 8.99977 22.7425 8.99977 22.7269 9.0007L22.6931 9.0057C22.6892 9.0054 22.6852 9.0054 22.6812 9.0057C22.6682 9.00816 22.6552 9.01129 22.6425 9.01508H22.6369C22.624 9.01879 22.6112 9.02317 22.5988 9.0282H22.5938L22.5625 9.05257L22.5556 9.05632C22.545 9.06195 22.535 9.0682 22.525 9.07445L22.5162 9.08007C22.5067 9.08624 22.4975 9.09291 22.4888 9.10007L22.4794 9.10695C22.4675 9.11695 22.4562 9.12695 22.445 9.1382L19.5169 12.0631H13.3438C12.7224 12.0638 12.1266 12.3109 11.6872 12.7503C11.2478 13.1897 11.0007 13.7854 11 14.4068V31.8439C11.0007 32.4653 11.2478 33.0611 11.6872 33.5005C12.1266 33.9398 12.7224 34.187 13.3438 34.1876H23.8988L24.64 37.7326H22.1775C21.6012 37.7332 21.0487 37.9625 20.6412 38.37C20.2336 38.7775 20.0044 39.33 20.0037 39.9063C20.0041 40.1962 20.1194 40.4742 20.3245 40.6793C20.5295 40.8843 20.8075 40.9997 21.0975 41H32.9025C33.1925 40.9997 33.4705 40.8843 33.6755 40.6793C33.8806 40.4742 33.9959 40.1962 33.9963 39.9063C33.9956 39.33 33.7664 38.7775 33.3588 38.37C32.9513 37.9625 32.3988 37.7332 31.8225 37.7326H29.36L30.1012 34.1876H40.6562C41.2776 34.187 41.8734 33.9398 42.3128 33.5005C42.7522 33.0611 42.9993 32.4653 43 31.8439V14.4068C42.9993 13.7854 42.7522 13.1897 42.3128 12.7503C41.8734 12.3109 41.2776 12.0638 40.6562 12.0631ZM35.8219 29.969V14.8756H40.1875V31.3752H35.3519C35.6572 30.97 35.8222 30.4763 35.8219 29.969ZM23.2425 12.3444V12.1881H32.055V13.1256H23.055C23.1784 12.8842 23.2427 12.6168 23.2425 12.3456V12.3444ZM22.305 10.6V12.3456C22.3045 12.5526 22.222 12.7508 22.0756 12.8971C21.9291 13.0433 21.7307 13.1254 21.5238 13.1256H19.7788L22.305 10.6ZM19.1156 14.0631H21.5238C21.5876 14.063 21.6515 14.0595 21.715 14.0525C21.7597 14.0595 21.8048 14.063 21.85 14.0631H32.15C32.3737 14.0628 32.5881 13.9738 32.7463 13.8156C32.9044 13.6574 32.9934 13.443 32.9937 13.2194V12.0944C32.9934 11.8707 32.9044 11.6563 32.7463 11.4981C32.5881 11.34 32.3737 11.251 32.15 11.2507H23.2425V9.93818H33.4781C33.8509 9.93868 34.2083 10.087 34.4719 10.3506C34.7356 10.6142 34.8839 10.9716 34.8844 11.3444V29.969C34.8839 30.3418 34.7356 30.6992 34.4719 30.9628C34.2083 31.2264 33.8509 31.3747 33.4781 31.3752H20.5219C20.1491 31.3747 19.7917 31.2264 19.5281 30.9628C19.2644 30.6992 19.1161 30.3418 19.1156 29.969V14.0631ZM18.6481 31.3752H13.8125V14.8756H18.1781V29.969C18.1778 30.4763 18.3428 30.97 18.6481 31.3752ZM31.8225 38.67C32.1502 38.6705 32.4644 38.8009 32.6961 39.0327C32.9278 39.2644 33.0583 39.5786 33.0588 39.9063C33.0586 39.9477 33.0421 39.9873 33.0128 40.0166C32.9835 40.0458 32.9439 40.0624 32.9025 40.0625H21.0975C21.0561 40.0624 21.0165 40.0458 20.9872 40.0166C20.9579 39.9873 20.9414 39.9477 20.9412 39.9063C20.9417 39.5786 21.0722 39.2644 21.3039 39.0327C21.5356 38.8009 21.8498 38.6705 22.1775 38.67H31.8225ZM24.8569 34.1876H29.1431L28.4019 37.7326H25.5981L24.8569 34.1876ZM42.0625 31.8439C42.0622 32.2168 41.9139 32.5743 41.6503 32.8379C41.3866 33.1016 41.0291 33.2498 40.6562 33.2502H13.3438C12.9709 33.2498 12.6134 33.1016 12.3497 32.8379C12.0861 32.5743 11.9378 32.2168 11.9375 31.8439V14.4068C11.9378 14.034 12.0861 13.6765 12.3497 13.4129C12.6134 13.1492 12.9709 13.0009 13.3438 13.0006H18.5794L18.3156 13.2644C18.3048 13.275 18.2945 13.2863 18.285 13.2981L18.2781 13.3075C18.2706 13.3169 18.2638 13.3256 18.2575 13.335L18.2519 13.3444C18.2456 13.3544 18.2394 13.3644 18.2337 13.3744C18.2339 13.3766 18.2339 13.3789 18.2337 13.3812C18.2281 13.3931 18.2225 13.4044 18.2175 13.4162V13.4212C18.2123 13.4337 18.2077 13.4464 18.2038 13.4594C18.2038 13.4594 18.2038 13.4631 18.2038 13.465C18.1998 13.4777 18.1964 13.4906 18.1937 13.5037V13.5156C18.1937 13.5262 18.19 13.5375 18.1887 13.5487C18.1875 13.56 18.1887 13.58 18.1887 13.5956V13.9381H13.3438C13.2194 13.9381 13.1002 13.9875 13.0123 14.0754C12.9244 14.1633 12.875 14.2825 12.875 14.4068V31.8439C12.875 31.9683 12.9244 32.0875 13.0123 32.1754C13.1002 32.2633 13.2194 32.3127 13.3438 32.3127H40.6562C40.7806 32.3127 40.8998 32.2633 40.9877 32.1754C41.0756 32.0875 41.125 31.9683 41.125 31.8439V14.4068C41.125 14.2825 41.0756 14.1633 40.9877 14.0754C40.8998 13.9875 40.7806 13.9381 40.6562 13.9381H35.8219V13.0006H40.6562C41.0291 13.0009 41.3866 13.1492 41.6503 13.4129C41.9139 13.6765 42.0622 14.034 42.0625 14.4068V31.8439ZM27.7294 24.9453H32.5419C32.6662 24.9453 32.7854 24.896 32.8733 24.8081C32.9612 24.7202 33.0106 24.6009 33.0106 24.4766C33.0106 24.3523 32.9612 24.2331 32.8733 24.1452C32.7854 24.0573 32.6662 24.0079 32.5419 24.0079H27.7294C27.6051 24.0079 27.4858 24.0573 27.3979 24.1452C27.31 24.2331 27.2606 24.3523 27.2606 24.4766C27.2606 24.6009 27.31 24.7202 27.3979 24.8081C27.4858 24.896 27.6051 24.9453 27.7294 24.9453ZM21.6531 29.4515H25.0344C25.3078 29.4512 25.5699 29.3424 25.7632 29.1491C25.9565 28.9558 26.0653 28.6937 26.0656 28.4203V27.2328C26.0656 27.1085 26.0162 26.9893 25.9283 26.9014C25.8404 26.8134 25.7212 26.7641 25.5969 26.7641C25.4726 26.7641 25.3533 26.8134 25.2654 26.9014C25.1775 26.9893 25.1281 27.1085 25.1281 27.2328V28.4203C25.1281 28.4451 25.1182 28.469 25.1007 28.4866C25.0831 28.5041 25.0592 28.514 25.0344 28.514H21.6531C21.6283 28.514 21.6044 28.5041 21.5868 28.4866C21.5693 28.469 21.5594 28.4451 21.5594 28.4203V25.0391C21.5594 25.0142 21.5693 24.9904 21.5868 24.9728C21.6044 24.9552 21.6283 24.9453 21.6531 24.9453H23.1812C23.3056 24.9453 23.4248 24.896 23.5127 24.8081C23.6006 24.7202 23.65 24.6009 23.65 24.4766C23.65 24.3523 23.6006 24.2331 23.5127 24.1452C23.4248 24.0573 23.3056 24.0079 23.1812 24.0079H21.6531C21.3797 24.0082 21.1176 24.117 20.9243 24.3103C20.731 24.5036 20.6222 24.7657 20.6219 25.0391V28.4203C20.6222 28.6937 20.731 28.9558 20.9243 29.1491C21.1176 29.3424 21.3797 29.4512 21.6531 29.4515ZM21.6531 22.191H25.0344C25.3078 22.1907 25.5699 22.082 25.7632 21.8886C25.9565 21.6953 26.0653 21.4332 26.0656 21.1598V19.9723C26.0656 19.848 26.0162 19.7288 25.9283 19.6409C25.8404 19.553 25.7212 19.5036 25.5969 19.5036C25.4726 19.5036 25.3533 19.553 25.2654 19.6409C25.1775 19.7288 25.1281 19.848 25.1281 19.9723V21.1598C25.1281 21.1847 25.1182 21.2085 25.1007 21.2261C25.0831 21.2437 25.0592 21.2536 25.0344 21.2536H21.6531C21.6283 21.2536 21.6044 21.2437 21.5868 21.2261C21.5693 21.2085 21.5594 21.1847 21.5594 21.1598V17.7786C21.5594 17.7538 21.5693 17.7299 21.5868 17.7123C21.6044 17.6948 21.6283 17.6849 21.6531 17.6849H23.1812C23.3056 17.6849 23.4248 17.6355 23.5127 17.5476C23.6006 17.4597 23.65 17.3405 23.65 17.2161C23.65 17.0918 23.6006 16.9726 23.5127 16.8847C23.4248 16.7968 23.3056 16.7474 23.1812 16.7474H21.6531C21.3797 16.7477 21.1176 16.8565 20.9243 17.0498C20.731 17.2431 20.6222 17.5052 20.6219 17.7786V21.1598C20.6222 21.4332 20.731 21.6953 20.9243 21.8886C21.1176 22.082 21.3797 22.1907 21.6531 22.191ZM23.5688 19.0411L22.9175 18.3892C22.8296 18.3013 22.7103 18.2519 22.5859 18.2519C22.4616 18.2519 22.3423 18.3013 22.2544 18.3892C22.1664 18.4772 22.117 18.5964 22.117 18.7208C22.117 18.8452 22.1664 18.9644 22.2544 19.0524L22.9062 19.7042C23.0017 19.8002 23.1153 19.8763 23.2404 19.9282C23.3655 19.98 23.4996 20.0065 23.635 20.0061C23.7708 20.0062 23.9052 19.9793 24.0305 19.9271C24.1558 19.8748 24.2695 19.7982 24.365 19.7017L26.125 17.9343C26.2126 17.846 26.2616 17.7265 26.2611 17.6022C26.2606 17.4778 26.2108 17.3587 26.1225 17.2711C26.0342 17.1835 25.9148 17.1346 25.7904 17.1351C25.6661 17.1355 25.547 17.1854 25.4594 17.2736L23.705 19.0411C23.6963 19.0498 23.686 19.0568 23.6746 19.0615C23.6633 19.0662 23.6511 19.0686 23.6388 19.0686C23.6128 19.0687 23.5877 19.0589 23.5688 19.0411ZM27.7294 26.8203H32.5419C32.6662 26.8203 32.7854 26.7709 32.8733 26.683C32.9612 26.5951 33.0106 26.4759 33.0106 26.3516C33.0106 26.2273 32.9612 26.108 32.8733 26.0201C32.7854 25.9322 32.6662 25.8828 32.5419 25.8828H27.7294C27.6051 25.8828 27.4858 25.9322 27.3979 26.0201C27.31 26.108 27.2606 26.2273 27.2606 26.3516C27.2606 26.4759 27.31 26.5951 27.3979 26.683C27.4858 26.7709 27.6051 26.8203 27.7294 26.8203Z" fill="url(#paint2_linear_80_775)"/>
<defs>
<filter id="filter0_d_80_775" x="0" y="0" width="58" height="58" filterUnits="userSpaceOnUse" color-interpolation-filters="sRGB">
<feFlood flood-opacity="0" result="BackgroundImageFix"/>
<feColorMatrix in="SourceAlpha" type="matrix" values="0 0 0 0 0 0 0 0 0 0 0 0 0 0 0 0 0 0 127 0" result="hardAlpha"/>
<feOffset dx="2" dy="4"/>
<feGaussianBlur stdDeviation="2"/>
<feComposite in2="hardAlpha" operator="out"/>
<feColorMatrix type="matrix" values="0 0 0 0 0 0 0 0 0 0 0 0 0 0 0 0 0 0 0.11 0"/>
<feBlend mode="normal" in2="BackgroundImageFix" result="effect1_dropShadow_80_775"/>
<feBlend mode="normal" in="SourceGraphic" in2="effect1_dropShadow_80_775" result="shape"/>
</filter>
<linearGradient id="paint0_linear_80_775" x1="42.5" y1="6.5" x2="27" y2="50" gradientUnits="userSpaceOnUse">
<stop offset="0.202638" stop-color="#EAF9FF"/>
<stop offset="0.869792" stop-color="#FFDFFD"/>
</linearGradient>
<linearGradient id="paint1_linear_80_775" x1="27" y1="0" x2="27" y2="50" gradientUnits="userSpaceOnUse">
<stop stop-color="white"/>
<stop offset="0.0416667" stop-color="white" stop-opacity="0"/>
<stop offset="0.8125" stop-color="white" stop-opacity="0"/>
<stop offset="1" stop-color="white"/>
</linearGradient>
<linearGradient id="paint2_linear_80_775" x1="11" y1="25" x2="41.4314" y2="25" gradientUnits="userSpaceOnUse">
<stop stop-color="#000092"/>
<stop offset="1" stop-color="#FF00F3"/>
</linearGradient>
</defs>
</svg>
