<svg width="58" height="58" viewBox="0 0 58 58" fill="none" xmlns="http://www.w3.org/2000/svg">
<g filter="url(#filter0_d_80_850)">
<circle cx="27" cy="25" r="25" fill="white" fill-opacity="0.29"/>
<circle cx="27" cy="25" r="25" fill="url(#paint0_linear_80_850)"/>
<circle cx="27" cy="25" r="24.0902" stroke="url(#paint1_linear_80_850)" stroke-width="1.81964"/>
</g>
<path d="M33.4865 17.9163C33.4865 17.7977 33.4393 17.6841 33.3555 17.6002C33.2717 17.5164 33.158 17.4693 33.0394 17.4694H18.3506C18.232 17.4694 18.1183 17.5164 18.0345 17.6003C17.9507 17.6841 17.9036 17.7978 17.9036 17.9163C17.9036 18.0348 17.9507 18.1485 18.0345 18.2323C18.1183 18.3161 18.232 18.3632 18.3506 18.3632H33.0394C33.158 18.3632 33.2717 18.3162 33.3555 18.2323C33.4393 18.1485 33.4865 18.0348 33.4865 17.9163Z" fill="url(#paint2_linear_80_850)"/>
<path d="M33.1526 20.1509C33.1526 20.0324 33.1055 19.9187 33.0216 19.8349C32.9378 19.7511 32.8241 19.704 32.7056 19.704H18.0168C17.8983 19.704 17.7846 19.7511 17.7008 19.8349C17.617 19.9187 17.5699 20.0324 17.5699 20.1509C17.5699 20.2694 17.617 20.3831 17.7008 20.4669C17.7846 20.5508 17.8983 20.5979 18.0168 20.5979H32.7056C32.8241 20.5979 32.9378 20.5508 33.0216 20.467C33.1055 20.3831 33.1526 20.2695 33.1526 20.1509Z" fill="url(#paint3_linear_80_850)"/>
<path d="M32.9301 22.3857C32.9301 22.2671 32.883 22.1534 32.7991 22.0696C32.7153 21.9858 32.6016 21.9387 32.483 21.9387H17.7943C17.6757 21.9387 17.5621 21.9858 17.4782 22.0696C17.3944 22.1534 17.3473 22.2671 17.3473 22.3857C17.3473 22.5042 17.3944 22.6179 17.4782 22.7017C17.5621 22.7855 17.6757 22.8326 17.7943 22.8326H32.483C32.6016 22.8326 32.7153 22.7855 32.7991 22.7017C32.883 22.6179 32.9301 22.5042 32.9301 22.3857Z" fill="url(#paint4_linear_80_850)"/>
<path d="M32.0625 24.1758C32.0542 24.1754 32.0463 24.1733 32.0379 24.1733H17.3491C17.2305 24.1733 17.1169 24.2204 17.033 24.3042C16.9492 24.3881 16.9021 24.5017 16.9021 24.6203C16.9021 24.7388 16.9492 24.8525 17.033 24.9363C17.1169 25.0201 17.2305 25.0672 17.3491 25.0672H31.3123L32.0625 24.1758Z" fill="url(#paint5_linear_80_850)"/>
<path d="M17.1265 26.4081C17.008 26.4081 16.8943 26.4552 16.8105 26.539C16.7267 26.6228 16.6796 26.7365 16.6796 26.855C16.6796 26.9736 16.7267 27.0872 16.8105 27.171C16.8943 27.2549 17.008 27.302 17.1265 27.302H30.0806C30.1456 26.9938 30.2451 26.6939 30.3774 26.4081H17.1265Z" fill="url(#paint6_linear_80_850)"/>
<path d="M30.0283 28.6427H17.1265C17.008 28.6427 16.8943 28.6898 16.8105 28.7736C16.7267 28.8574 16.6796 28.9711 16.6796 29.0896C16.6796 29.2082 16.7267 29.3219 16.8105 29.4057C16.8943 29.4895 17.008 29.5366 17.1265 29.5366H30.2708C30.1664 29.2902 30.0901 29.0328 30.0433 28.7694C30.036 28.7274 30.0342 28.6848 30.0283 28.6427Z" fill="url(#paint7_linear_80_850)"/>
<path d="M34.5652 31.4167C34.2771 31.5096 33.9791 31.5681 33.6773 31.591C33.8164 33.2512 34.1746 34.7101 34.865 35.7937H16.2947C13.7672 32.9484 15.0762 24.964 15.9471 19.6523C16.2064 18.071 16.4303 16.7053 16.5458 15.6063C16.6117 15.0101 16.4808 14.4087 16.173 13.8939H34.355C34.3892 13.8869 34.4245 13.8869 34.4588 13.8939C34.5554 13.9031 34.6491 13.9319 34.7342 13.9785C34.8194 14.0251 34.8941 14.0885 34.954 14.1649C35.1075 14.351 35.2212 14.5667 35.2878 14.7986C35.3544 15.0305 35.3726 15.2737 35.3412 15.5129C35.2284 16.5864 35.0064 17.9405 34.7494 19.5083C34.6528 20.0974 34.5528 20.7091 34.4537 21.3344L35.5745 20.0027C35.5936 19.8855 35.6129 19.7678 35.6317 19.653C35.8911 18.0715 36.115 16.7056 36.2305 15.6063C36.2743 15.2425 36.2425 14.8736 36.1372 14.5227C36.0319 14.1717 35.8552 13.8463 35.6184 13.5667C35.476 13.3958 35.2991 13.2569 35.0993 13.1592C34.8994 13.0616 34.6811 13.0073 34.4588 13C34.4245 13.007 34.3892 13.007 34.355 13H14.8916C14.8769 13.0007 14.8623 13.0022 14.8478 13.0044C14.8233 13.003 14.7988 13 14.7741 13C13.7793 13 13 14.1243 13 15.5596V17.4694C12.9992 17.8236 13.139 18.1638 13.3886 18.4151C13.6383 18.6665 13.9775 18.8086 14.3318 18.8102H15.1789C15.1419 19.0378 15.1039 19.2703 15.0648 19.5078C14.096 25.4169 12.7692 33.5095 15.7834 36.5549C15.8249 36.5969 15.8744 36.6303 15.929 36.6531C15.9835 36.6758 16.0421 36.6876 16.1012 36.6876H35.7858C35.874 36.6876 35.9603 36.6615 36.0337 36.6127C36.1071 36.5638 36.1644 36.4943 36.1984 36.4129C36.2324 36.3315 36.2415 36.2419 36.2246 36.1553C36.2078 36.0687 36.1657 35.9891 36.1037 35.9264C35.1601 34.9729 34.7123 33.3515 34.5652 31.4167ZM14.3318 17.9163C14.2145 17.9149 14.1026 17.8671 14.0205 17.7833C13.9385 17.6995 13.893 17.5866 13.8941 17.4694V15.5596C13.8941 14.6062 14.3587 13.8939 14.7741 13.8939C14.8707 13.9031 14.9644 13.9319 15.0496 13.9785C15.1347 14.0251 15.2095 14.0885 15.2693 14.1649C15.4229 14.351 15.5365 14.5667 15.6031 14.7986C15.6698 15.0305 15.6879 15.2737 15.6565 15.5129C15.584 16.2038 15.4662 17.0109 15.3229 17.9163H14.3318Z" fill="url(#paint8_linear_80_850)"/>
<path d="M40.8199 17.7623C40.5278 17.5695 40.1851 17.4675 39.8351 17.4694C39.526 17.4739 39.2216 17.5461 38.9434 17.6808C38.6651 17.8155 38.4197 18.0096 38.2244 18.2492L31.5913 26.1314C31.5801 26.1447 31.5693 26.1583 31.5588 26.1723C31.2948 26.5156 31.1031 26.9089 30.9952 27.3283C30.8873 27.7478 30.8656 28.1847 30.9313 28.6128C31.017 29.1337 31.2633 29.6148 31.6358 29.9888L31.0058 30.8775H17.1265C17.008 30.8775 16.8943 30.9245 16.8105 31.0084C16.7267 31.0922 16.6796 31.2059 16.6796 31.3244C16.6796 31.4429 16.7267 31.5566 16.8105 31.6404C16.8943 31.7242 17.008 31.7713 17.1265 31.7713H31.1477C31.1656 31.7706 31.1834 31.7688 31.2011 31.7659C31.2129 31.7669 31.2245 31.7713 31.2364 31.7713C31.3079 31.7715 31.3784 31.7544 31.442 31.7216C31.5056 31.6888 31.5603 31.6412 31.6016 31.5828L32.375 30.4919C32.702 30.635 33.0552 30.7084 33.4121 30.7076C33.9394 30.6926 34.4553 30.55 34.9155 30.2921C35.3758 30.0343 35.7667 29.6687 36.0548 29.2268C36.0646 29.2122 36.0739 29.1974 36.0828 29.1823L38.3538 25.3372C38.4143 25.2347 38.4538 25.1211 38.4698 25.0031C38.4858 24.8851 38.4781 24.7651 38.4472 24.6502C38.4162 24.5352 38.3625 24.4276 38.2894 24.3336C38.2162 24.2397 38.1251 24.1613 38.0212 24.1031L39.6006 23.1595C39.7357 23.0788 39.8471 22.9638 39.9235 22.8263L41.3027 20.3439C41.8446 19.4146 41.6382 18.3068 40.8199 17.7623ZM40.5261 19.9009L39.1419 22.3922L35.4443 24.6013L37.5839 24.8827L35.3129 28.7278C35.1072 29.0488 34.8269 29.3151 34.4959 29.5042C34.1649 29.6933 33.793 29.7995 33.4121 29.8137C33.0875 29.8171 32.7693 29.7239 32.4979 29.5458C31.6414 28.976 31.5407 27.6913 32.2755 26.7068L38.9086 18.8247C39.0206 18.6855 39.1615 18.5723 39.3214 18.4926C39.4813 18.413 39.6566 18.3688 39.8351 18.3633C40.0089 18.3614 40.1792 18.4112 40.3245 18.5064C40.7423 18.7844 40.8294 19.3874 40.5261 19.9009Z" fill="url(#paint9_linear_80_850)"/>
<defs>
<filter id="filter0_d_80_850" x="0" y="0" width="58" height="58" filterUnits="userSpaceOnUse" color-interpolation-filters="sRGB">
<feFlood flood-opacity="0" result="BackgroundImageFix"/>
<feColorMatrix in="SourceAlpha" type="matrix" values="0 0 0 0 0 0 0 0 0 0 0 0 0 0 0 0 0 0 127 0" result="hardAlpha"/>
<feOffset dx="2" dy="4"/>
<feGaussianBlur stdDeviation="2"/>
<feComposite in2="hardAlpha" operator="out"/>
<feColorMatrix type="matrix" values="0 0 0 0 0 0 0 0 0 0 0 0 0 0 0 0 0 0 0.11 0"/>
<feBlend mode="normal" in2="BackgroundImageFix" result="effect1_dropShadow_80_850"/>
<feBlend mode="normal" in="SourceGraphic" in2="effect1_dropShadow_80_850" result="shape"/>
</filter>
<linearGradient id="paint0_linear_80_850" x1="42.5" y1="6.5" x2="27" y2="50" gradientUnits="userSpaceOnUse">
<stop offset="0.202638" stop-color="#EAF9FF"/>
<stop offset="0.869792" stop-color="#FFDFFD"/>
</linearGradient>
<linearGradient id="paint1_linear_80_850" x1="27" y1="0" x2="27" y2="50" gradientUnits="userSpaceOnUse">
<stop stop-color="white"/>
<stop offset="0.0416667" stop-color="white" stop-opacity="0"/>
<stop offset="0.8125" stop-color="white" stop-opacity="0"/>
<stop offset="1" stop-color="white"/>
</linearGradient>
<linearGradient id="paint2_linear_80_850" x1="17.9036" y1="17.9163" x2="32.7226" y2="17.9163" gradientUnits="userSpaceOnUse">
<stop stop-color="#000092"/>
<stop offset="1" stop-color="#FF00F3"/>
</linearGradient>
<linearGradient id="paint3_linear_80_850" x1="17.5699" y1="20.1509" x2="32.3888" y2="20.1509" gradientUnits="userSpaceOnUse">
<stop stop-color="#000092"/>
<stop offset="1" stop-color="#FF00F3"/>
</linearGradient>
<linearGradient id="paint4_linear_80_850" x1="17.3473" y1="22.3857" x2="32.1662" y2="22.3857" gradientUnits="userSpaceOnUse">
<stop stop-color="#000092"/>
<stop offset="1" stop-color="#FF00F3"/>
</linearGradient>
<linearGradient id="paint5_linear_80_850" x1="16.9021" y1="24.6203" x2="31.3193" y2="24.6203" gradientUnits="userSpaceOnUse">
<stop stop-color="#000092"/>
<stop offset="1" stop-color="#FF00F3"/>
</linearGradient>
<linearGradient id="paint6_linear_80_850" x1="16.6796" y1="26.855" x2="29.7059" y2="26.855" gradientUnits="userSpaceOnUse">
<stop stop-color="#000092"/>
<stop offset="1" stop-color="#FF00F3"/>
</linearGradient>
<linearGradient id="paint7_linear_80_850" x1="16.6796" y1="29.0896" x2="29.6046" y2="29.0896" gradientUnits="userSpaceOnUse">
<stop stop-color="#000092"/>
<stop offset="1" stop-color="#FF00F3"/>
</linearGradient>
<linearGradient id="paint8_linear_80_850" x1="13" y1="24.8438" x2="35.1099" y2="24.8438" gradientUnits="userSpaceOnUse">
<stop stop-color="#000092"/>
<stop offset="1" stop-color="#FF00F3"/>
</linearGradient>
<linearGradient id="paint9_linear_80_850" x1="16.6796" y1="24.6203" x2="40.3821" y2="24.6203" gradientUnits="userSpaceOnUse">
<stop stop-color="#000092"/>
<stop offset="1" stop-color="#FF00F3"/>
</linearGradient>
</defs>
</svg>
