<svg width="44" height="44" viewBox="0 0 44 44" fill="none" xmlns="http://www.w3.org/2000/svg">
<circle cx="22" cy="22" r="22" fill="#FAEFFC"/>
<path d="M23.5897 18.2719C23.1196 18.2719 22.6687 18.0852 22.3363 17.7528C22.0039 17.4203 21.8171 16.9695 21.8171 16.4994C21.8171 16.0293 22.0039 15.5784 22.3363 15.246C22.6687 14.9136 23.1196 14.7268 23.5897 14.7268C24.0598 14.7268 24.5107 14.9136 24.8431 15.246C25.1755 15.5784 25.3623 16.0293 25.3623 16.4994C25.3623 16.9695 25.1755 17.4203 24.8431 17.7528C24.5107 18.0852 24.0598 18.2719 23.5897 18.2719Z" fill="#BED6E0"/>
<path d="M30.089 10H13.5451C12.6058 10.0028 11.7057 10.3772 11.0414 11.0414C10.3772 11.7057 10.0028 12.6058 10 13.5451V24.015L14.585 19.43C15.2606 18.787 16.1576 18.4284 17.0902 18.4284C18.0229 18.4284 18.9199 18.787 19.5955 19.43L22.9881 22.8416L24.0375 21.7923C24.7035 21.13 25.6046 20.7582 26.5439 20.7582C27.4832 20.7582 28.3843 21.13 29.0503 21.7923L33.6341 26.3785V13.5451C33.6313 12.6058 33.2569 11.7057 32.5927 11.0414C31.9285 10.3772 31.0284 10.0028 30.089 10ZM23.5896 18.272C23.1195 18.272 22.6687 18.0852 22.3362 17.7528C22.0038 17.4204 21.8171 16.9695 21.8171 16.4994C21.8171 16.0293 22.0038 15.5784 22.3362 15.246C22.6687 14.9136 23.1195 14.7268 23.5896 14.7268C24.0597 14.7268 24.5106 14.9136 24.843 15.246C25.1754 15.5784 25.3622 16.0293 25.3622 16.4994C25.3622 16.9695 25.1754 17.4204 24.843 17.7528C24.5106 18.0852 24.0597 18.272 23.5896 18.272Z" fill="#019CDF"/>
<path d="M19.5955 19.4299C18.9199 18.7869 18.0229 18.4283 17.0902 18.4283C16.1576 18.4283 15.2606 18.7869 14.585 19.4299L10 24.0149V30.0889C10.0028 31.0283 10.3772 31.9284 11.0414 32.5926C11.7057 33.2568 12.6058 33.6312 13.5451 33.634H30.089C31.0521 33.634 31.9738 33.2405 32.6415 32.5469L19.5955 19.4299Z" fill="#0C187A"/>
<path d="M33.6342 26.3759L29.0503 21.7921C28.3843 21.1298 27.4832 20.758 26.5439 20.758C25.6046 20.758 24.7035 21.1298 24.0375 21.7921L22.9882 22.8414L32.6368 32.5421C33.2773 31.8862 33.6353 31.0058 33.6342 30.0888V26.3759Z" fill="#BED6E0"/>
</svg>
