<svg width="21" height="15" viewBox="0 0 21 15" fill="none" xmlns="http://www.w3.org/2000/svg">
<path d="M8.94245 8.55H1.20863C0.453238 8.55 0 8.1 0 7.5C0 6.9 0.453237 6.45 1.05755 6.45H8.94245C9.54677 6.45 10 6.9 10 7.5C10 8.1 9.69785 8.55 8.94245 8.55ZM20.5755 1.2C20.5755 0.45 20.1223 0 19.518 0H1.20863C0.453238 0 0 0.6 0 1.2C0 1.8 0.453237 2.25 1.05755 2.25H19.3669C20.1223 2.25 20.5755 1.8 20.5755 1.2ZM16.4508 13.8C16.4508 13.2 15.9976 12.75 15.3933 12.75H1.20863C0.604317 12.75 0.151079 13.2 0.151079 13.8C-1.63913e-07 14.4 0.604317 15 1.20863 15H15.3933C15.9976 15 16.4508 14.55 16.4508 13.8Z" fill="#222222"/>
</svg>
