<svg width="18" height="18" viewBox="0 0 18 18" fill="none" xmlns="http://www.w3.org/2000/svg">
<path d="M6.29181 5.97438C6.25549 5.21917 6.51974 4.48031 7.02679 3.91934C7.53384 3.35837 8.24243 3.02093 8.99764 2.98079C9.75285 3.02093 10.4614 3.35837 10.9685 3.91934C11.4755 4.48031 11.7398 5.21917 11.7035 5.97438C11.7385 6.72863 11.4737 7.46611 10.9667 8.02579C10.4597 8.58547 9.75186 8.92187 8.99764 8.96155C8.24342 8.92187 7.53554 8.58547 7.02858 8.02579C6.52161 7.46611 6.25674 6.72863 6.29181 5.97438ZM18 9.00001C18.0027 10.7867 17.4689 12.533 16.4675 14.0128C16.4413 14.058 16.4113 14.1009 16.3778 14.141C15.5505 15.332 14.4471 16.305 13.1619 16.977C11.8768 17.649 10.448 18 8.99764 18C7.5473 18 6.11851 17.649 4.83333 16.977C3.54816 16.305 2.4448 15.332 1.61751 14.141C1.58399 14.1009 1.55396 14.058 1.52775 14.0128C0.74389 12.8456 0.244551 11.5109 0.0697769 10.1159C-0.104998 8.72083 0.0496558 7.30427 0.521334 5.97978C0.993012 4.6553 1.76859 3.45974 2.78586 2.48901C3.80314 1.51827 5.03379 0.799369 6.37914 0.389955C7.72449 -0.0194595 9.14708 -0.107991 10.5328 0.13146C11.9186 0.370911 13.2289 0.93168 14.3588 1.7688C15.4886 2.60591 16.4065 3.69607 17.0388 4.95185C17.6712 6.20764 18.0004 7.59409 18 9.00001ZM0.957084 9.00001C0.954674 10.3658 1.30118 11.7095 1.96376 12.9039C3.35515 11.0769 6.02251 9.93591 8.99764 9.93591C11.9728 9.93591 14.6401 11.0769 16.0315 12.9039C16.6274 11.8306 16.9695 10.6352 17.0317 9.40932C17.0939 8.18342 16.8746 6.95956 16.3904 5.83153C15.9063 4.70351 15.1703 3.70128 14.2387 2.90166C13.3072 2.10204 12.2049 1.52626 11.0163 1.21846C9.82775 0.910652 8.58446 0.878995 7.38176 1.12591C6.17906 1.37283 5.04888 1.89176 4.07783 2.64293C3.10679 3.39411 2.32066 4.35758 1.77972 5.4595C1.23878 6.56142 0.957376 7.77254 0.957084 9.00001Z" fill="url(#paint0_linear_80_210)"/>
<defs>
<linearGradient id="paint0_linear_80_210" x1="0" y1="9" x2="17.1176" y2="9" gradientUnits="userSpaceOnUse">
<stop stop-color="#000092"/>
<stop offset="1" stop-color="#FF00F3"/>
</linearGradient>
</defs>
</svg>
