<svg width="53" height="53" viewBox="0 0 53 53" fill="none" xmlns="http://www.w3.org/2000/svg">
<circle cx="26.5" cy="26.5" r="26.5" fill="#EFEFEF"/>
<path d="M40.302 11.068V42.3493C40.302 42.7289 40.1512 43.0931 39.8827 43.3616C39.6142 43.6301 39.2501 43.7809 38.8704 43.7809H16.4796C16.0999 43.7809 15.7358 43.6301 15.4673 43.3616C15.1988 43.0931 15.048 42.7289 15.048 42.3493V20.3307L22.922 9.63635H38.8704C39.2501 9.63635 39.6142 9.78719 39.8827 10.0557C40.1512 10.3242 40.302 10.6883 40.302 11.068Z" fill="#902211"/>
<path d="M22.9221 9.65051V18.8345C22.9221 19.2142 22.7712 19.5783 22.5028 19.8468C22.2343 20.1153 21.8701 20.2661 21.4904 20.2661H15.0839L22.9221 9.65051Z" fill="#511108"/>
<path d="M30.6244 29.1925H11.0682C10.2776 29.1925 9.6366 29.8335 9.6366 30.6241V37.811C9.6366 38.6016 10.2776 39.2426 11.0682 39.2426H30.6244C31.4151 39.2426 32.056 38.6016 32.056 37.811V30.6241C32.056 29.8335 31.4151 29.1925 30.6244 29.1925Z" fill="#FF3717"/>
<path d="M16.9092 34.7974V36.3436H15.6636V32.0988H17.3816C17.716 32.0808 18.0504 32.1344 18.3623 32.2563C18.5843 32.3568 18.7712 32.5213 18.8991 32.7287C19.0286 32.9448 19.0955 33.1926 19.0924 33.4445C19.1008 33.6273 19.0693 33.8097 19.0001 33.9791C18.9308 34.1484 18.8256 34.3007 18.6915 34.4252C18.3932 34.6848 18.0056 34.8182 17.6107 34.7974H16.9092ZM16.9092 33.8883H17.3243C17.6894 33.8883 17.8684 33.7452 17.8684 33.466C17.8684 33.1868 17.7037 33.0652 17.3673 33.0652H16.9092V33.8883ZM19.5577 36.3436V32.0988H21.1253C21.411 32.0773 21.6978 32.1231 21.9626 32.2325C22.2274 32.3419 22.4628 32.5118 22.65 32.7287C22.9873 33.1426 23.1673 33.6624 23.1583 34.1961C23.1885 34.7632 22.9929 35.3191 22.6142 35.7423C22.4345 35.9416 22.213 36.0988 21.9655 36.2028C21.7181 36.3067 21.4508 36.3548 21.1826 36.3436H19.5577ZM20.8032 35.3629H21.1253C21.2324 35.3611 21.3372 35.331 21.4289 35.2757C21.5207 35.2204 21.5962 35.1418 21.6479 35.048C21.7978 34.79 21.8699 34.4942 21.8555 34.1961C21.8611 33.9176 21.7971 33.642 21.6694 33.3944C21.6192 33.2936 21.5414 33.2092 21.4451 33.1509C21.3488 33.0926 21.2379 33.0629 21.1253 33.0652H20.8032V35.3629ZM26.2148 34.7545H24.8977V36.3436H23.688V32.0988H26.6157V33.1081H24.8977V33.8239H26.2148V34.7545Z" fill="#EDEEEF"/>
</svg>
