<svg width="58" height="58" viewBox="0 0 58 58" fill="none" xmlns="http://www.w3.org/2000/svg">
<g filter="url(#filter0_d_80_758)">
<circle cx="27" cy="25" r="25" fill="white" fill-opacity="0.29"/>
<circle cx="27" cy="25" r="25" fill="url(#paint0_linear_80_758)"/>
<circle cx="27" cy="25" r="24.0902" stroke="url(#paint1_linear_80_758)" stroke-width="1.81964"/>
</g>
<path fill-rule="evenodd" clip-rule="evenodd" d="M12.3502 11.6913C11.8833 11.6913 11.8833 11 12.3502 11H35.764C37.6814 11 39.501 12.3765 39.501 14.3289V36.5641C39.501 38.1968 41.0623 39.3087 42.6498 39.3087C43.1167 39.3087 43.1167 40 42.6498 40H19.236C17.3186 40 15.499 38.6235 15.499 36.6712V14.4363C15.499 12.8035 13.9377 11.6913 12.3502 11.6913ZM23.0202 26.4523V27.0903C23.0202 27.3863 23.3754 27.5405 23.603 27.3557L25.6951 25.7727C25.8812 25.632 25.876 25.3589 25.6899 25.2232L23.5933 23.6369C23.3581 23.4591 23.0205 23.6265 23.0205 23.9097V24.5477H19.0181C18.822 24.5477 18.6629 24.7026 18.6629 24.8936V26.1068C18.6629 26.2977 18.822 26.4526 19.0181 26.4526L23.0202 26.4523ZM23.3754 25.239H19.3734V25.761H23.3754C23.5715 25.761 23.7306 25.9159 23.7306 26.1068V26.3842L24.8993 25.5L23.7306 24.6158V24.8932C23.7306 25.0841 23.5715 25.239 23.3754 25.239ZM28.1822 37.3318H36.1368C36.6037 37.3318 36.6037 36.6405 36.1368 36.6405H28.1822C27.7153 36.6405 27.7153 37.3318 28.1822 37.3318ZM28.1822 35.5233H35.6391C36.106 35.5233 36.106 34.832 35.6391 34.832H28.1822C27.7153 34.832 27.7153 35.5233 28.1822 35.5233ZM28.1822 33.7147H35.1414C35.6083 33.7147 35.6083 33.0234 35.1414 33.0234H28.1822C27.7153 33.0234 27.7153 33.7147 28.1822 33.7147ZM28.1822 31.9062H34.6437C35.1106 31.9062 35.1106 31.2149 34.6437 31.2149H28.1822C27.7153 31.2149 27.7153 31.9062 28.1822 31.9062ZM28.1822 19.7848H36.1368C36.6037 19.7848 36.6037 19.0935 36.1368 19.0935H28.1822C27.7153 19.0935 27.7153 19.7848 28.1822 19.7848ZM28.1822 17.9762H35.6391C36.106 17.9762 36.106 17.285 35.6391 17.285H28.1822C27.7153 17.285 27.7153 17.9762 28.1822 17.9762ZM28.1822 16.1677H35.1414C35.6083 16.1677 35.6083 15.4764 35.1414 15.4764H28.1822C27.7153 15.4764 27.7153 16.1677 28.1822 16.1677ZM28.1822 14.3592H34.6437C35.1106 14.3592 35.1106 13.6679 34.6437 13.6679H28.1822C27.7153 13.6679 27.7153 14.3592 28.1822 14.3592ZM33.9855 26.6388H32.9742C32.6702 26.6388 32.5118 26.9846 32.7017 27.2062L34.9031 29.9643C35.0477 30.1454 35.3282 30.1404 35.4675 29.9592L37.6728 27.1968C37.8554 26.9678 37.6835 26.6391 37.3926 26.6391H36.3813V21.2479C36.3813 21.0569 36.2222 20.902 36.0261 20.902H34.3407C34.1446 20.902 33.9855 21.0569 33.9855 21.2479V26.6388ZM35.6709 26.9846V21.5933H34.6959V26.9846C34.6959 27.1755 34.5368 27.3304 34.3407 27.3304H33.6995L35.1832 29.1891L36.667 27.3304H36.0258C35.8297 27.3304 35.6709 27.1755 35.6709 26.9846ZM31.9629 24.3609H32.9742C33.2782 24.3609 33.4366 24.015 33.2467 23.7935L31.0453 21.0354C30.9007 20.8542 30.6202 20.8593 30.4808 21.0404L28.2759 23.8029C28.0933 24.0319 28.2652 24.3605 28.5561 24.3605H29.5674V29.7518C29.5674 29.9427 29.7265 30.0976 29.9226 30.0976H31.608C31.8041 30.0976 31.9632 29.9427 31.9632 29.7518V24.3605L31.9629 24.3609ZM30.2775 24.015V29.4063H31.2528V24.015C31.2528 23.8241 31.4119 23.6692 31.608 23.6692H32.2493L30.7655 21.8105L29.2817 23.6692H29.923C30.1191 23.6692 30.2782 23.8241 30.2782 24.015H30.2775ZM22.3181 27.6076C19.5601 27.5695 17.294 29.7165 17.2553 32.4008C17.2162 35.0859 19.4214 37.2921 22.1787 37.3298C24.9366 37.3678 27.2027 35.2209 27.2415 32.5365C27.2805 29.8515 25.0757 27.6453 22.3181 27.6076ZM22.3098 28.2962C19.9444 28.2635 17.9961 30.1054 17.9626 32.4089C17.929 34.7118 19.8209 36.6085 22.187 36.6412C24.5524 36.6738 26.5006 34.832 26.5342 32.5284C26.5677 30.2256 24.6758 28.3288 22.3098 28.2962ZM21.9445 29.0332L21.9418 29.2181C21.0736 29.3679 20.4092 30.1172 20.4092 30.9809C20.3968 31.9974 21.2092 32.7739 22.2392 32.814C22.8763 32.814 23.3927 33.3416 23.3799 33.9561C23.3799 34.5784 22.8379 35.0579 22.2098 35.0579C21.5734 35.0492 21.065 34.5377 21.074 33.9184C21.0795 33.4655 20.3722 33.4575 20.3667 33.9104C20.3542 34.7784 20.9768 35.5334 21.8477 35.7088L21.8449 35.8957C21.8394 36.3486 22.547 36.3567 22.5522 35.9038L22.555 35.7189C23.4207 35.5694 24.0875 34.8161 24.0875 33.9561C24.0996 32.9702 23.2695 32.1227 22.2482 32.1227C21.6184 32.1227 21.1037 31.5883 21.1165 30.9809C21.1165 30.367 21.6682 29.8666 22.2907 29.8791C22.9337 29.8791 23.4224 30.4108 23.4224 31.0223C23.4224 31.4769 24.1297 31.4772 24.1297 31.0223C24.1404 30.1555 23.5182 29.403 22.6487 29.2279L22.6515 29.041C22.657 28.5881 21.9497 28.58 21.9442 29.0329L21.9445 29.0332ZM25.0113 19.048C23.7787 19.048 22.7794 20.0208 22.7794 21.2209C22.7794 22.421 23.7787 23.3938 25.0113 23.3938C26.244 23.3938 27.2432 22.421 27.2432 21.2209C27.2432 20.0208 26.244 19.048 25.0113 19.048ZM25.0113 19.7393C24.1709 19.7393 23.4895 20.4023 23.4895 21.2209C23.4895 22.0395 24.1705 22.7025 25.0113 22.7025C25.8521 22.7025 26.5331 22.0395 26.5331 21.2209C26.5331 20.4023 25.8518 19.7393 25.0113 19.7393ZM19.4851 13.6679C18.2527 13.6679 17.2532 14.6407 17.2532 15.8407C17.2532 17.0408 18.2524 18.0136 19.4851 18.0136C20.7177 18.0136 21.7169 17.0408 21.7169 15.8407C21.7169 14.6407 20.7177 13.6679 19.4851 13.6679ZM19.4851 14.3592C18.6446 14.3592 17.9633 15.0225 17.9633 15.8407C17.9633 16.659 18.6443 17.3223 19.4851 17.3223C20.3259 17.3223 21.0069 16.6593 21.0069 15.8407C21.0069 15.0222 20.3255 14.3592 19.4851 14.3592ZM19.0251 22.1577L25.9735 15.3929C26.3038 15.0713 25.8016 14.5827 25.4713 14.904L18.5229 21.6688C18.1926 21.9903 18.6948 22.4789 19.0251 22.1577ZM14.6633 11.6913C15.5975 12.3183 16.209 13.3146 16.209 14.4359V36.6712C16.209 38.243 17.708 39.3084 19.236 39.3084H40.3363C39.4021 38.6814 38.7906 37.685 38.7906 36.5637V14.3285C38.7906 12.7567 37.2916 11.6913 35.7636 11.6913H14.6633Z" fill="url(#paint2_linear_80_758)"/>
<defs>
<filter id="filter0_d_80_758" x="0" y="0" width="58" height="58" filterUnits="userSpaceOnUse" color-interpolation-filters="sRGB">
<feFlood flood-opacity="0" result="BackgroundImageFix"/>
<feColorMatrix in="SourceAlpha" type="matrix" values="0 0 0 0 0 0 0 0 0 0 0 0 0 0 0 0 0 0 127 0" result="hardAlpha"/>
<feOffset dx="2" dy="4"/>
<feGaussianBlur stdDeviation="2"/>
<feComposite in2="hardAlpha" operator="out"/>
<feColorMatrix type="matrix" values="0 0 0 0 0 0 0 0 0 0 0 0 0 0 0 0 0 0 0.11 0"/>
<feBlend mode="normal" in2="BackgroundImageFix" result="effect1_dropShadow_80_758"/>
<feBlend mode="normal" in="SourceGraphic" in2="effect1_dropShadow_80_758" result="shape"/>
</filter>
<linearGradient id="paint0_linear_80_758" x1="42.5" y1="6.5" x2="27" y2="50" gradientUnits="userSpaceOnUse">
<stop offset="0.202638" stop-color="#EAF9FF"/>
<stop offset="0.869792" stop-color="#FFDFFD"/>
</linearGradient>
<linearGradient id="paint1_linear_80_758" x1="27" y1="0" x2="27" y2="50" gradientUnits="userSpaceOnUse">
<stop stop-color="white"/>
<stop offset="0.0416667" stop-color="white" stop-opacity="0"/>
<stop offset="0.8125" stop-color="white" stop-opacity="0"/>
<stop offset="1" stop-color="white"/>
</linearGradient>
<linearGradient id="paint2_linear_80_758" x1="12" y1="25.5" x2="41.4804" y2="25.5" gradientUnits="userSpaceOnUse">
<stop stop-color="#000092"/>
<stop offset="1" stop-color="#FF00F3"/>
</linearGradient>
</defs>
</svg>
