<svg width="58" height="58" viewBox="0 0 58 58" fill="none" xmlns="http://www.w3.org/2000/svg">
<g filter="url(#filter0_d_80_716)">
<circle cx="27" cy="25" r="25" fill="white" fill-opacity="0.29"/>
<circle cx="27" cy="25" r="25" fill="url(#paint0_linear_80_716)"/>
<circle cx="27" cy="25" r="24.0902" stroke="url(#paint1_linear_80_716)" stroke-width="1.81964"/>
</g>
<path d="M37.1572 24.3986C37.272 24.2847 37.3502 24.1396 37.3818 23.9817C37.4135 23.8238 37.3972 23.6602 37.3351 23.5114C37.273 23.3627 37.1678 23.2355 37.0328 23.1461C36.8978 23.0566 36.739 23.0088 36.5767 23.0087H34.1915C33.9738 23.009 33.7651 23.0949 33.6111 23.2475C33.4572 23.4002 33.3705 23.6071 33.3702 23.823V26.1871C33.3702 26.3482 33.4184 26.5057 33.5086 26.6397C33.5989 26.7737 33.7272 26.8781 33.8774 26.9397C34.0275 27.0013 34.1927 27.0174 34.3521 26.9859C34.5115 26.9544 34.6578 26.8767 34.7727 26.7627L35.6642 25.8788L37.5996 27.7971C37.6388 27.8373 37.6856 27.8695 37.7374 27.8916C37.7893 27.9136 37.845 27.9253 37.9014 27.9258C37.9578 27.9263 38.0137 27.9157 38.066 27.8945C38.1182 27.8734 38.1656 27.8421 38.2055 27.8026C38.2454 27.7631 38.277 27.7161 38.2984 27.6643C38.3198 27.6126 38.3305 27.5571 38.3301 27.5012C38.3296 27.4453 38.3179 27.39 38.2957 27.3386C38.2734 27.2872 38.2411 27.2407 38.2005 27.2019L36.2651 25.2808L37.1572 24.3986ZM35.3646 24.9843L34.221 26.1181V23.8511H36.5059L35.3646 24.9843ZM31.2666 24.8315H26.3389C26.1211 24.8317 25.9123 24.9175 25.7583 25.0702C25.6043 25.2229 25.5177 25.4299 25.5176 25.6458V27.1058C25.5179 27.3217 25.6045 27.5286 25.7585 27.6813C25.9124 27.8339 26.1211 27.9198 26.3389 27.9201H31.2666C31.4843 27.9198 31.6931 27.8339 31.847 27.6813C32.001 27.5286 32.0876 27.3217 32.0879 27.1058V25.6458C32.0877 25.4299 32.0012 25.2229 31.8472 25.0702C31.6932 24.9175 31.4844 24.8317 31.2666 24.8315ZM31.2383 27.0778H26.3672V25.6739H31.2383V27.0778ZM25.4043 17.054H37.3271C37.4398 17.054 37.5479 17.0096 37.6275 16.9306C37.7072 16.8517 37.752 16.7445 37.752 16.6328C37.752 16.5211 37.7072 16.414 37.6275 16.335C37.5479 16.256 37.4398 16.2117 37.3271 16.2117H25.4043C25.2916 16.2117 25.1836 16.256 25.1039 16.335C25.0242 16.414 24.9795 16.5211 24.9795 16.6328C24.9795 16.7445 25.0242 16.8517 25.1039 16.9306C25.1836 17.0096 25.2916 17.054 25.4043 17.054ZM25.4043 18.7387H37.3271C37.4398 18.7387 37.5479 18.6943 37.6275 18.6153C37.7072 18.5363 37.752 18.4292 37.752 18.3175C37.752 18.2058 37.7072 18.0987 37.6275 18.0197C37.5479 17.9407 37.4398 17.8963 37.3271 17.8963H25.4043C25.2916 17.8963 25.1836 17.9407 25.1039 18.0197C25.0242 18.0987 24.9795 18.2058 24.9795 18.3175C24.9795 18.4292 25.0242 18.5363 25.1039 18.6153C25.1836 18.6943 25.2916 18.7387 25.4043 18.7387ZM39.876 12H15.124C14.5609 12.0006 14.021 12.2226 13.6228 12.6174C13.2246 13.0122 13.0006 13.5475 13 14.1058V29.7732C13.0006 30.3315 13.2246 30.8668 13.6228 31.2616C14.021 31.6564 14.5609 31.8785 15.124 31.879H24.6895L25.3612 35.0642H23.1296C22.6073 35.0648 22.1066 35.2707 21.7373 35.6369C21.368 36.003 21.1602 36.4995 21.1596 37.0173C21.1599 37.2778 21.2645 37.5276 21.4503 37.7118C21.6361 37.8961 21.8881 37.9997 22.1509 38H32.8491C33.1119 37.9997 33.3639 37.8961 33.5497 37.7118C33.7355 37.5276 33.8401 37.2778 33.8404 37.0173C33.8398 36.4995 33.632 36.003 33.2627 35.6369C32.8934 35.2707 32.3927 35.0648 31.8704 35.0642H29.6388L30.3105 31.879H39.876C40.4391 31.8785 40.979 31.6564 41.3772 31.2616C41.7754 30.8668 41.9994 30.3315 42 29.7732V14.1058C41.9994 13.5475 41.7754 13.0122 41.3772 12.6174C40.979 12.2226 40.4391 12.0006 39.876 12ZM31.8704 35.9065C32.1674 35.907 32.4521 36.0241 32.6621 36.2323C32.8721 36.4406 32.9903 36.7228 32.9907 37.0173C32.9907 37.0545 32.9758 37.0902 32.9493 37.1165C32.9227 37.1429 32.8867 37.1577 32.8491 37.1577H22.1509C22.1133 37.1577 22.0773 37.1429 22.0507 37.1165C22.0242 37.0902 22.0093 37.0545 22.0093 37.0173C22.0097 36.7228 22.1279 36.4406 22.3379 36.2323C22.5479 36.0241 22.8326 35.907 23.1296 35.9065H31.8704ZM25.5578 31.879H29.4422L28.7704 35.0642H26.2296L25.5578 31.879ZM41.1504 29.7732C41.1501 30.1082 41.0157 30.4294 40.7768 30.6663C40.5379 30.9032 40.2139 31.0364 39.876 31.0367H15.124C14.7861 31.0364 14.4621 30.9032 14.2232 30.6663C13.9843 30.4294 13.8499 30.1082 13.8496 29.7732V14.1058C13.8499 13.7708 13.9843 13.4496 14.2232 13.2127C14.4621 12.9758 14.7861 12.8426 15.124 12.8423H39.876C40.2139 12.8426 40.5379 12.9758 40.7768 13.2127C41.0157 13.4496 41.1501 13.7708 41.1504 14.1058V29.7732ZM18.0693 27.9201H22.9971C23.2148 27.9198 23.4235 27.8339 23.5775 27.6813C23.7314 27.5286 23.8181 27.3217 23.8184 27.1058V25.6458C23.8182 25.4299 23.7316 25.2229 23.5776 25.0702C23.4237 24.9175 23.2148 24.8317 22.9971 24.8315H18.0693C17.8515 24.8317 17.6426 24.9176 17.4886 25.0704C17.3346 25.2232 17.248 25.4303 17.248 25.6463V27.1064C17.2485 27.3222 17.3352 27.5289 17.4891 27.6815C17.6431 27.834 17.8517 27.9198 18.0693 27.9201ZM18.0977 25.6739H22.9688V27.0778H18.0977V25.6739ZM17.9844 19.5602C18.2908 19.7015 18.6412 19.7164 18.9587 19.6018C19.2763 19.4871 19.5349 19.2522 19.6779 18.9487C19.7844 18.7222 19.8207 18.4695 19.7823 18.2225C19.7439 17.9755 19.6325 17.7454 19.4622 17.5612C19.2918 17.377 19.0702 17.247 18.8254 17.1877C18.5806 17.1283 18.3235 17.1423 18.0866 17.2278C17.8498 17.3133 17.6439 17.4665 17.4949 17.6681C17.3459 17.8696 17.2605 18.1105 17.2496 18.3601C17.2386 18.6098 17.3026 18.8571 17.4334 19.0707C17.5642 19.2843 17.7559 19.4546 17.9844 19.5602ZM18.1379 18.2372C18.1721 18.1644 18.2266 18.1029 18.2949 18.0598C18.3633 18.0167 18.4426 17.9939 18.5236 17.994C18.5853 17.9939 18.6462 18.0073 18.702 18.0333C18.7779 18.0688 18.8415 18.1257 18.8848 18.197C18.9282 18.2682 18.9492 18.3506 18.9454 18.4337C18.9415 18.5168 18.9129 18.5969 18.8632 18.6639C18.8134 18.731 18.7448 18.7819 18.6659 18.8103C18.5871 18.8386 18.5015 18.8432 18.42 18.8234C18.3385 18.8037 18.2647 18.7604 18.208 18.6991C18.1513 18.6378 18.1141 18.5612 18.1012 18.479C18.0883 18.3968 18.1003 18.3127 18.1356 18.2372H18.1379ZM39.876 13.6847H15.124C15.0114 13.6847 14.9033 13.729 14.8236 13.808C14.744 13.887 14.6992 13.9941 14.6992 14.1058V29.7732C14.6992 29.8849 14.744 29.992 14.8236 30.071C14.9033 30.15 15.0114 30.1944 15.124 30.1944H39.876C39.9886 30.1944 40.0967 30.15 40.1764 30.071C40.256 29.992 40.3008 29.8849 40.3008 29.7732V14.1058C40.3008 13.9941 40.256 13.887 40.1764 13.808C40.0967 13.729 39.9886 13.6847 39.876 13.6847ZM39.4512 29.3521H15.5488V14.527H39.4512V29.3521ZM25.4043 20.4233H37.3271C37.4398 20.4233 37.5479 20.379 37.6275 20.3C37.7072 20.221 37.752 20.1139 37.752 20.0022C37.752 19.8905 37.7072 19.7833 37.6275 19.7044C37.5479 19.6254 37.4398 19.581 37.3271 19.581H25.4043C25.2916 19.581 25.1836 19.6254 25.1039 19.7044C25.0242 19.7833 24.9795 19.8905 24.9795 20.0022C24.9795 20.1139 25.0242 20.221 25.1039 20.3C25.1836 20.379 25.2916 20.4233 25.4043 20.4233ZM25.4043 22.108H33.9287C34.0414 22.108 34.1494 22.0636 34.2291 21.9846C34.3088 21.9057 34.3535 21.7985 34.3535 21.6868C34.3535 21.5751 34.3088 21.468 34.2291 21.389C34.1494 21.31 34.0414 21.2657 33.9287 21.2657H25.4043C25.2916 21.2657 25.1836 21.31 25.1039 21.389C25.0242 21.468 24.9795 21.5751 24.9795 21.6868C24.9795 21.7985 25.0242 21.9057 25.1039 21.9846C25.1836 22.0636 25.2916 22.108 25.4043 22.108ZM19.3126 22.7145C19.3632 22.7382 19.4181 22.7518 19.474 22.7544C19.5299 22.7571 19.5859 22.7487 19.6385 22.7298C19.6912 22.7109 19.7395 22.6818 19.7808 22.6443C19.8221 22.6068 19.8555 22.5616 19.879 22.5112L22.5598 16.8108C22.5849 16.7605 22.5996 16.7058 22.603 16.6498C22.6065 16.5938 22.5986 16.5376 22.5799 16.4847C22.5611 16.4317 22.5319 16.383 22.4939 16.3414C22.4559 16.2998 22.4099 16.2662 22.3586 16.2425C22.3073 16.2188 22.2518 16.2054 22.1952 16.2033C22.1386 16.2012 22.0822 16.2102 22.0293 16.23C21.9763 16.2498 21.9279 16.2799 21.8868 16.3185C21.8457 16.3571 21.8128 16.4034 21.7901 16.4548L19.107 22.1552C19.0595 22.2564 19.0545 22.3721 19.093 22.477C19.1316 22.5819 19.2106 22.6673 19.3126 22.7145ZM21.9877 20.019C21.8806 20.2455 21.8438 20.4984 21.8819 20.7457C21.9201 20.993 22.0314 21.2234 22.2019 21.4078C22.3724 21.5922 22.5942 21.7223 22.8394 21.7814C23.0845 21.8406 23.3419 21.8263 23.5788 21.7402C23.7757 21.6691 23.9519 21.551 24.0918 21.3962C24.2317 21.2415 24.3309 21.055 24.3807 20.8531C24.4305 20.6513 24.4293 20.4404 24.3773 20.2391C24.3252 20.0379 24.2239 19.8524 24.0823 19.6992C23.9407 19.5461 23.7632 19.4299 23.5655 19.3609C23.3678 19.292 23.156 19.2725 22.9488 19.3041C22.7417 19.3358 22.5456 19.4175 22.378 19.5422C22.2103 19.6669 22.0763 19.8307 21.9877 20.019ZM22.7575 20.375C22.8051 20.2738 22.8913 20.1954 22.9973 20.1572C23.1032 20.1189 23.22 20.124 23.3222 20.1712C23.4243 20.2184 23.5034 20.3039 23.5419 20.4089C23.5805 20.5139 23.5754 20.6298 23.5278 20.7311C23.4802 20.8323 23.3939 20.9107 23.288 20.9489C23.1821 20.9872 23.0652 20.9821 22.9631 20.9349C22.8609 20.8877 22.7819 20.8022 22.7433 20.6972C22.7048 20.5922 22.7099 20.4763 22.7575 20.375Z" fill="url(#paint2_linear_80_716)"/>
<defs>
<filter id="filter0_d_80_716" x="0" y="0" width="58" height="58" filterUnits="userSpaceOnUse" color-interpolation-filters="sRGB">
<feFlood flood-opacity="0" result="BackgroundImageFix"/>
<feColorMatrix in="SourceAlpha" type="matrix" values="0 0 0 0 0 0 0 0 0 0 0 0 0 0 0 0 0 0 127 0" result="hardAlpha"/>
<feOffset dx="2" dy="4"/>
<feGaussianBlur stdDeviation="2"/>
<feComposite in2="hardAlpha" operator="out"/>
<feColorMatrix type="matrix" values="0 0 0 0 0 0 0 0 0 0 0 0 0 0 0 0 0 0 0.11 0"/>
<feBlend mode="normal" in2="BackgroundImageFix" result="effect1_dropShadow_80_716"/>
<feBlend mode="normal" in="SourceGraphic" in2="effect1_dropShadow_80_716" result="shape"/>
</filter>
<linearGradient id="paint0_linear_80_716" x1="42.5" y1="6.5" x2="27" y2="50" gradientUnits="userSpaceOnUse">
<stop offset="0.202638" stop-color="#EAF9FF"/>
<stop offset="0.869792" stop-color="#FFDFFD"/>
</linearGradient>
<linearGradient id="paint1_linear_80_716" x1="27" y1="0" x2="27" y2="50" gradientUnits="userSpaceOnUse">
<stop stop-color="white"/>
<stop offset="0.0416667" stop-color="white" stop-opacity="0"/>
<stop offset="0.8125" stop-color="white" stop-opacity="0"/>
<stop offset="1" stop-color="white"/>
</linearGradient>
<linearGradient id="paint2_linear_80_716" x1="13" y1="25" x2="40.5784" y2="25" gradientUnits="userSpaceOnUse">
<stop stop-color="#000092"/>
<stop offset="1" stop-color="#FF00F3"/>
</linearGradient>
</defs>
</svg>
