<svg width="20" height="20" viewBox="0 0 20 20" fill="none" xmlns="http://www.w3.org/2000/svg">
<path d="M10 0C8.02219 0 6.08879 0.586489 4.4443 1.6853C2.79981 2.78412 1.51809 4.3459 0.761209 6.17316C0.00433284 8.00043 -0.1937 10.0111 0.192152 11.9509C0.578004 13.8907 1.53041 15.6725 2.92894 17.0711C4.32746 18.4696 6.10929 19.422 8.0491 19.8078C9.98891 20.1937 11.9996 19.9957 13.8268 19.2388C15.6541 18.4819 17.2159 17.2002 18.3147 15.5557C19.4135 13.9112 20 11.9778 20 10C19.997 7.34875 18.9425 4.80696 17.0678 2.93224C15.193 1.05753 12.6512 0.00299948 10 0ZM9.23002 3.0772C9.23002 2.87319 9.31106 2.67753 9.45532 2.53328C9.59958 2.38902 9.79524 2.30797 9.99925 2.30797C10.2033 2.30797 10.3989 2.38902 10.5432 2.53328C10.6874 2.67753 10.7685 2.87319 10.7685 3.0772V8.84643C10.7685 9.05045 10.6874 9.2461 10.5432 9.39036C10.3989 9.53462 10.2033 9.61566 9.99925 9.61566C9.79524 9.61566 9.59958 9.53462 9.45532 9.39036C9.31106 9.2461 9.23002 9.05045 9.23002 8.84643V3.0772ZM10 17.6923C8.35006 17.6927 6.74374 17.1624 5.4183 16.1798C4.09285 15.1972 3.11855 13.8144 2.63929 12.2356C2.16003 10.6567 2.20122 8.96567 2.75678 7.41207C3.31235 5.85847 4.35282 4.52473 5.72454 3.60783C5.80842 3.55132 5.90263 3.51191 6.00176 3.49185C6.10089 3.47179 6.20301 3.47148 6.30227 3.49093C6.40152 3.51038 6.49597 3.54922 6.58019 3.60521C6.66442 3.66121 6.73678 3.73327 6.79313 3.81726C6.84947 3.90126 6.8887 3.99554 6.90857 4.09471C6.92844 4.19388 6.92855 4.296 6.9089 4.39522C6.88926 4.49443 6.85024 4.5888 6.79408 4.67292C6.73791 4.75704 6.66572 4.82926 6.58161 4.88544C5.48373 5.61888 4.65085 6.68598 4.206 7.92911C3.76115 9.17225 3.72792 10.5255 4.11122 11.789C4.49452 13.0524 5.27403 14.1591 6.33459 14.9456C7.39515 15.732 8.68054 16.1565 10.0009 16.1563C11.3212 16.1561 12.6065 15.7313 13.6668 14.9446C14.7272 14.1578 15.5064 13.0509 15.8893 11.7873C16.2723 10.5238 16.2387 9.17053 15.7935 7.92752C15.3483 6.68451 14.5151 5.61764 13.417 4.8845C13.2476 4.77089 13.1302 4.59462 13.0907 4.39446C13.0512 4.1943 13.0929 3.98666 13.2065 3.81721C13.3201 3.64776 13.4964 3.53038 13.6965 3.49089C13.8967 3.45141 14.1043 3.49305 14.2738 3.60666C15.6459 4.5233 16.6868 5.85695 17.2427 7.4106C17.7986 8.96425 17.8401 10.6555 17.361 12.2346C16.8819 13.8136 15.9076 15.1967 14.5821 16.1795C13.2566 17.1622 11.6501 17.6926 10 17.6923Z" fill="url(#paint0_linear_80_222)"/>
<defs>
<linearGradient id="paint0_linear_80_222" x1="0" y1="10" x2="19.0196" y2="10" gradientUnits="userSpaceOnUse">
<stop stop-color="#000092"/>
<stop offset="1" stop-color="#FF00F3"/>
</linearGradient>
</defs>
</svg>
