<svg width="48" height="48" viewBox="0 0 48 48" fill="none" xmlns="http://www.w3.org/2000/svg">
<circle cx="24" cy="24" r="24" fill="white"/>
<path d="M24.1315 29.3579C25.8529 29.3579 27.2483 27.9624 27.2483 26.241C27.2483 24.5197 25.8529 23.1242 24.1315 23.1242C22.4101 23.1242 21.0146 24.5197 21.0146 26.241C21.0146 27.9624 22.4101 29.3579 24.1315 29.3579Z" fill="#92479B"/>
<path d="M33.4821 18.6716H30.5621C30.3751 18.6716 30.1928 18.6128 30.0412 18.5035C29.8895 18.3942 29.776 18.2399 29.717 18.0625L29.4356 17.2173C29.3172 16.8627 29.0903 16.5543 28.787 16.3358C28.4836 16.1173 28.1192 15.9998 27.7453 16H20.5169C20.1431 16.0001 19.7788 16.1178 19.4756 16.3364C19.1724 16.5551 18.9457 16.8636 18.8276 17.2182L18.5462 18.0625C18.4871 18.2399 18.3737 18.3942 18.222 18.5035C18.0703 18.6128 17.8881 18.6716 17.7011 18.6716H14.7811C14.3087 18.6716 13.8557 18.8592 13.5217 19.1932C13.1876 19.5272 13 19.9803 13 20.4526V31.1389C13 31.6113 13.1876 32.0643 13.5217 32.3983C13.8557 32.7324 14.3087 32.92 14.7811 32.92H33.4821C33.9545 32.92 34.4075 32.7324 34.7415 32.3983C35.0755 32.0643 35.2632 31.6113 35.2632 31.1389V20.4526C35.2632 19.9803 35.0755 19.5272 34.7415 19.1932C34.4075 18.8592 33.9545 18.6716 33.4821 18.6716ZM24.1316 31.1389C21.4315 31.1389 19.2337 28.9411 19.2337 26.2411C19.2337 23.541 21.4315 21.3432 24.1316 21.3432C26.8317 21.3432 29.0295 23.541 29.0295 26.2411C29.0295 28.9411 26.8317 31.1389 24.1316 31.1389ZM29.4747 22.2337C29.2386 22.2337 29.012 22.1399 28.845 21.9729C28.678 21.8058 28.5842 21.5793 28.5842 21.3432C28.5842 21.107 28.678 20.8805 28.845 20.7135C29.012 20.5465 29.2386 20.4526 29.4747 20.4526C29.7109 20.4526 29.9374 20.5465 30.1044 20.7135C30.2714 20.8805 30.3653 21.107 30.3653 21.3432C30.3653 21.5793 30.2714 21.8058 30.1044 21.9729C29.9374 22.1399 29.7109 22.2337 29.4747 22.2337Z" fill="url(#paint0_linear_80_617)"/>
<path d="M16.1169 17.781H14.3359C14.2178 17.781 14.1045 17.7341 14.021 17.6506C13.9375 17.5671 13.8906 17.4539 13.8906 17.3358C13.8906 17.2177 13.9375 17.1044 14.021 17.0209C14.1045 16.9374 14.2178 16.8905 14.3359 16.8905H16.1169C16.235 16.8905 16.3483 16.9374 16.4318 17.0209C16.5153 17.1044 16.5622 17.2177 16.5622 17.3358C16.5622 17.4539 16.5153 17.5671 16.4318 17.6506C16.3483 17.7341 16.235 17.781 16.1169 17.781Z" fill="#92479B"/>
<defs>
<linearGradient id="paint0_linear_80_617" x1="13" y1="24.46" x2="34.1718" y2="24.46" gradientUnits="userSpaceOnUse">
<stop stop-color="#000092"/>
<stop offset="1" stop-color="#FF00F3"/>
</linearGradient>
</defs>
</svg>
