<svg width="58" height="58" viewBox="0 0 58 58" fill="none" xmlns="http://www.w3.org/2000/svg">
<g filter="url(#filter0_d_80_803)">
<circle cx="27" cy="25" r="25" fill="white" fill-opacity="0.29"/>
<circle cx="27" cy="25" r="25" fill="url(#paint0_linear_80_803)"/>
<circle cx="27" cy="25" r="24.0902" stroke="url(#paint1_linear_80_803)" stroke-width="1.81964"/>
</g>
<path d="M37.5223 33.023L34.0833 32.3811C33.9916 32.3811 33.9458 32.2893 33.9458 32.2435L33.4873 30.6845C34.5419 29.5841 35.2755 27.8875 35.4589 26.3285C36.5594 24.9071 36.8345 23.1189 35.4131 21.5599C35.4589 21.2389 35.4131 20.6887 35.0921 20.276C34.8628 20.0009 34.4043 19.6341 33.4414 19.7258C33.4414 19.7258 33.3956 19.7258 33.3497 19.7258C31.9283 19.7258 30.6903 19.4507 29.7274 19.6341V10.4636C29.7274 10.1885 29.544 10.0051 29.2688 10.0051C18.035 10.0051 18.4935 9.95924 18.3101 10.1427C13.8624 14.5903 14.0917 14.3152 14.0459 14.4528C13.9541 14.6362 14.0459 13.9025 14 29.5841C14 29.8592 14.1834 30.0426 14.4585 30.0426H27.5264C27.7099 30.2718 27.8933 30.5011 28.1225 30.7304L27.664 32.2435C27.6182 32.3352 27.5723 32.3811 27.4806 32.3811L24.0417 33.023C22.5744 33.2981 21.4739 34.582 21.4739 36.1409V38.2502C21.4739 38.8921 21.9783 39.3965 22.6202 39.3965H38.9895C39.6315 39.3965 40.1358 38.8921 40.1358 38.2502V36.1409C40.1358 34.582 39.0354 33.2981 37.5223 33.023ZM30.782 31.0972C27.9391 31.0972 24.5002 24.0359 29.8191 23.5774C29.9108 23.5774 30.461 23.394 31.378 23.394C33.3497 23.394 34.5877 24.1735 34.5419 26.1451V26.191C34.2667 28.5295 32.6161 31.0972 30.782 31.0972ZM28.8562 31.4181C29.4522 31.8308 30.0942 32.0601 30.7361 32.0601C31.4239 32.0601 32.0658 31.8308 32.6619 31.4181L33.0287 32.5645C33.0287 32.6103 33.0746 32.6562 33.1204 32.702C32.4327 33.4815 31.6532 34.1234 30.782 34.582C29.8649 34.1234 29.0854 33.5274 28.4435 32.702C28.4893 32.6562 28.4893 32.6103 28.5352 32.5645L28.8562 31.4181ZM33.3497 20.6887C33.4414 20.6887 33.4873 20.6887 33.5331 20.6887C33.9458 20.6428 34.2209 20.7345 34.3585 20.918C34.7253 21.3765 34.175 22.0184 34.6794 22.2477L34.817 22.4311C35.5506 23.2564 35.4589 24.1735 35.2296 24.8613C34.7253 23.1647 33.1204 22.5686 31.3322 22.5686C30.5069 22.5686 29.8191 22.7062 29.6815 22.7521C27.9391 22.9355 27.0221 23.715 26.5635 24.5403C26.5177 23.7608 26.747 23.0272 27.1596 22.3394C28.8103 19.7716 31.1946 20.6887 33.3497 20.6887ZM18.1726 11.5641V14.1777H15.559L18.1726 11.5641ZM14.917 29.1255V15.0947H18.6311C18.9062 15.0947 19.0896 14.9113 19.0896 14.6362V10.9221H28.8103V19.8634C27.8474 20.2302 27.0221 20.8721 26.426 21.7433C24.9129 24.0818 26.0592 26.2368 26.105 26.2827C26.1967 27.2456 26.5177 28.2543 26.9762 29.1255H14.917ZM39.2188 38.2043C39.2188 38.3419 39.1271 38.4336 38.9895 38.4336H36.7428V36.3244C36.7428 36.0492 36.5594 35.8658 36.2842 35.8658C36.0091 35.8658 35.8257 36.0492 35.8257 36.3244V38.4336H25.7382V36.3244C25.7382 35.7283 24.8212 35.7283 24.8212 36.3244V38.4336H22.5744C22.4368 38.4336 22.3451 38.3419 22.3451 38.2043V36.1409C22.3451 35.0405 23.1246 34.1234 24.1792 33.94L27.6182 33.2981C27.664 33.2981 27.664 33.2981 27.7099 33.2522C28.4893 34.1693 29.4064 34.9029 30.461 35.4073C30.6444 35.5449 30.8737 35.5449 31.0112 35.4073C32.0658 34.9029 32.9829 34.1693 33.7624 33.2522C33.8082 33.2522 33.8082 33.2981 33.8541 33.2981L37.293 33.94C38.3476 34.1234 39.1271 35.0405 39.1271 36.1409V38.2043H39.2188Z" fill="url(#paint2_linear_80_803)"/>
<path d="M26.3521 12.6376C26.1752 12.5079 25.9315 12.5472 25.8018 12.7241L22.8542 16.7604C22.7245 16.9373 22.7638 17.181 22.9406 17.3107C23.0114 17.3618 23.09 17.3853 23.1725 17.3853C23.2944 17.3853 23.4123 17.3303 23.4909 17.2242L26.4385 13.1879C26.5682 13.011 26.5289 12.7634 26.3521 12.6376Z" fill="url(#paint3_linear_80_803)"/>
<path d="M24.3438 13.6241C24.3438 12.9049 23.8447 12.3154 23.2355 12.3154C22.6263 12.3154 22.1272 12.901 22.1272 13.6241C22.1272 14.3473 22.6263 14.9329 23.2355 14.9329C23.8447 14.929 24.3438 14.3434 24.3438 13.6241ZM22.9132 13.6241C22.9132 13.3254 23.0822 13.1014 23.2355 13.1014C23.3888 13.1014 23.5578 13.3254 23.5578 13.6241C23.5578 13.9228 23.3888 14.1469 23.2355 14.1469C23.0822 14.1469 22.9132 13.9228 22.9132 13.6241Z" fill="url(#paint4_linear_80_803)"/>
<path d="M26.0612 15.0154C25.452 15.0154 24.9529 15.601 24.9529 16.3242C24.9529 17.0474 25.452 17.633 26.0612 17.633C26.6743 17.633 27.1695 17.0474 27.1695 16.3242C27.1695 15.601 26.6704 15.0154 26.0612 15.0154ZM26.0612 16.8469C25.9079 16.8469 25.7389 16.6229 25.7389 16.3242C25.7389 16.0255 25.9079 15.8015 26.0612 15.8015C26.2145 15.8015 26.3835 16.0255 26.3835 16.3242C26.3835 16.6229 26.2105 16.8469 26.0612 16.8469Z" fill="url(#paint5_linear_80_803)"/>
<path d="M19.5481 17.8458H17.2554C16.9803 17.8458 16.7969 18.0292 16.7969 18.3043V20.597C16.7969 20.8721 16.9803 21.0555 17.2554 21.0555H19.5481C19.8232 21.0555 20.0066 20.8721 20.0066 20.597V18.3043C20.0066 18.0751 19.8232 17.8458 19.5481 17.8458ZM19.0895 20.1384H17.714V18.7629H19.0895V20.1384Z" fill="url(#paint6_linear_80_803)"/>
<path d="M19.5481 23.5774H17.2554C16.9803 23.5774 16.7969 23.7608 16.7969 24.0359V26.3285C16.7969 26.6036 16.9803 26.7871 17.2554 26.7871H19.5481C19.8232 26.7871 20.0066 26.6036 20.0066 26.3285V24.0359C20.0066 23.7608 19.8232 23.5774 19.5481 23.5774ZM19.0895 25.87H17.714V24.4944H19.0895V25.87Z" fill="url(#paint7_linear_80_803)"/>
<path d="M26.0133 19.4507C26.0133 19.1756 25.8299 18.9922 25.5548 18.9922H22.3451C22.07 18.9922 21.8866 19.1756 21.8866 19.4507C21.8866 19.7258 22.07 19.9092 22.3451 19.9092H25.5548C25.784 19.9092 26.0133 19.7258 26.0133 19.4507Z" fill="url(#paint8_linear_80_803)"/>
<path d="M23.7207 24.7237H22.3451C22.07 24.7237 21.8866 24.9071 21.8866 25.1822C21.8866 25.4573 22.07 25.6407 22.3451 25.6407H23.7207C23.9958 25.6407 24.1792 25.4573 24.1792 25.1822C24.1792 24.9071 23.9499 24.7237 23.7207 24.7237Z" fill="url(#paint9_linear_80_803)"/>
<defs>
<filter id="filter0_d_80_803" x="0" y="0" width="58" height="58" filterUnits="userSpaceOnUse" color-interpolation-filters="sRGB">
<feFlood flood-opacity="0" result="BackgroundImageFix"/>
<feColorMatrix in="SourceAlpha" type="matrix" values="0 0 0 0 0 0 0 0 0 0 0 0 0 0 0 0 0 0 127 0" result="hardAlpha"/>
<feOffset dx="2" dy="4"/>
<feGaussianBlur stdDeviation="2"/>
<feComposite in2="hardAlpha" operator="out"/>
<feColorMatrix type="matrix" values="0 0 0 0 0 0 0 0 0 0 0 0 0 0 0 0 0 0 0.11 0"/>
<feBlend mode="normal" in2="BackgroundImageFix" result="effect1_dropShadow_80_803"/>
<feBlend mode="normal" in="SourceGraphic" in2="effect1_dropShadow_80_803" result="shape"/>
</filter>
<linearGradient id="paint0_linear_80_803" x1="42.5" y1="6.5" x2="27" y2="50" gradientUnits="userSpaceOnUse">
<stop offset="0.202638" stop-color="#EAF9FF"/>
<stop offset="0.869792" stop-color="#FFDFFD"/>
</linearGradient>
<linearGradient id="paint1_linear_80_803" x1="27" y1="0" x2="27" y2="50" gradientUnits="userSpaceOnUse">
<stop stop-color="white"/>
<stop offset="0.0416667" stop-color="white" stop-opacity="0"/>
<stop offset="0.8125" stop-color="white" stop-opacity="0"/>
<stop offset="1" stop-color="white"/>
</linearGradient>
<linearGradient id="paint2_linear_80_803" x1="14" y1="24.6982" x2="38.8547" y2="24.6982" gradientUnits="userSpaceOnUse">
<stop stop-color="#000092"/>
<stop offset="1" stop-color="#FF00F3"/>
</linearGradient>
<linearGradient id="paint3_linear_80_803" x1="22.7776" y1="14.9732" x2="26.3319" y2="14.9732" gradientUnits="userSpaceOnUse">
<stop stop-color="#000092"/>
<stop offset="1" stop-color="#FF00F3"/>
</linearGradient>
<linearGradient id="paint4_linear_80_803" x1="22.1272" y1="13.6241" x2="24.2352" y2="13.6241" gradientUnits="userSpaceOnUse">
<stop stop-color="#000092"/>
<stop offset="1" stop-color="#FF00F3"/>
</linearGradient>
<linearGradient id="paint5_linear_80_803" x1="24.9529" y1="16.3242" x2="27.0609" y2="16.3242" gradientUnits="userSpaceOnUse">
<stop stop-color="#000092"/>
<stop offset="1" stop-color="#FF00F3"/>
</linearGradient>
<linearGradient id="paint6_linear_80_803" x1="16.7969" y1="19.4507" x2="19.8492" y2="19.4507" gradientUnits="userSpaceOnUse">
<stop stop-color="#000092"/>
<stop offset="1" stop-color="#FF00F3"/>
</linearGradient>
<linearGradient id="paint7_linear_80_803" x1="16.7969" y1="25.1822" x2="19.8492" y2="25.1822" gradientUnits="userSpaceOnUse">
<stop stop-color="#000092"/>
<stop offset="1" stop-color="#FF00F3"/>
</linearGradient>
<linearGradient id="paint8_linear_80_803" x1="21.8866" y1="19.4507" x2="25.811" y2="19.4507" gradientUnits="userSpaceOnUse">
<stop stop-color="#000092"/>
<stop offset="1" stop-color="#FF00F3"/>
</linearGradient>
<linearGradient id="paint9_linear_80_803" x1="21.8866" y1="25.1822" x2="24.0668" y2="25.1822" gradientUnits="userSpaceOnUse">
<stop stop-color="#000092"/>
<stop offset="1" stop-color="#FF00F3"/>
</linearGradient>
</defs>
</svg>
