<svg width="48" height="48" viewBox="0 0 48 48" fill="none" xmlns="http://www.w3.org/2000/svg">
<circle cx="24" cy="24" r="24" fill="white"/>
<path d="M32.2469 22.7333C32.2469 22.6667 32.2585 22.6 32.2585 22.5333C32.2585 18.9222 29.2522 16 25.5437 16C22.8683 16 20.5701 17.5222 19.4906 19.7222C19.0205 19.4944 18.4924 19.3611 17.9353 19.3611C16.2232 19.3611 14.7955 20.5778 14.5228 22.1667C12.4683 22.8444 11 24.7278 11 26.9444C11 29.7333 13.3272 32 16.1942 32H22.1429V27.5556H19.3455L24 22.9056L28.6545 27.55H25.8571V31.9944H32.2585C34.8817 31.9944 37 29.9111 37 27.3611C37 24.8111 34.8701 22.7389 32.2469 22.7333Z" fill="url(#paint0_linear_80_609)"/>
<defs>
<linearGradient id="paint0_linear_80_609" x1="11" y1="24" x2="35.7255" y2="24" gradientUnits="userSpaceOnUse">
<stop stop-color="#000092"/>
<stop offset="1" stop-color="#FF00F3"/>
</linearGradient>
</defs>
</svg>
