<svg width="46" height="46" viewBox="0 0 46 46" fill="none" xmlns="http://www.w3.org/2000/svg">
<circle cx="23" cy="23" r="23" fill="#47959B"/>
<mask id="path-2-outside-1_646_703" maskUnits="userSpaceOnUse" x="11" y="8" width="27" height="30" fill="black">
<rect fill="white" x="11" y="8" width="27" height="30"/>
<path fill-rule="evenodd" clip-rule="evenodd" d="M26.077 11.7545H30.3604C30.9034 11.7545 31.3952 12.1549 31.3952 12.6945V19.3883L33.1902 16.2831L33.2094 16.2499L33.2095 16.25C33.4904 15.7738 33.9391 15.4532 34.4377 15.3198C34.9325 15.1874 35.4774 15.2396 35.9571 15.5074L35.9987 15.5304L35.9986 15.5306C36.9578 16.095 37.2858 17.3357 36.728 18.3006L36.7276 18.3003L31.3953 27.5246V36.0601C31.3953 36.5996 30.9034 37 30.3605 37H13.0347C12.4918 37 12 36.5997 12 36.0601V12.6944C12 12.1549 12.4918 11.7545 13.0347 11.7545H17.3182V11.3144C17.3182 11.1566 17.4463 11.0287 17.6043 11.0287H19.3978C19.5396 9.8788 20.5212 9 21.6976 9C22.874 9 23.8556 9.8788 23.9974 11.0287H25.7909C25.9489 11.0287 26.077 11.1566 26.077 11.3144V11.7545ZM33.8376 19.8008L31.8545 23.2313C31.7761 23.3676 31.602 23.4145 31.4656 23.3363C31.3292 23.258 31.2821 23.0841 31.3605 22.9479L33.3442 19.5163L32.3212 18.9264L31.3664 20.5779C31.3605 20.5901 31.3537 20.6019 31.3461 20.6131L29.0028 24.6668C28.9968 24.6791 28.99 24.6908 28.9825 24.702L27.4462 27.3597L29.9861 28.8242L34.8611 20.3909L33.8376 19.8008ZM28.2294 30.0155L27.2908 29.4743L27.2622 30.6062L28.2294 30.0155ZM26.7327 28.995C26.7325 28.9853 26.7327 28.9755 26.7334 28.9657L26.7713 27.4708C26.7699 27.4198 26.7822 27.368 26.8096 27.3206L28.4593 24.4669V14.0284H26.0769V14.5112C26.0769 14.669 25.9488 14.7969 25.7908 14.7969H17.6043C17.4463 14.7969 17.3182 14.669 17.3182 14.5112V14.0284H14.9358V34.4085H28.4594V30.5432L27.1126 31.3658L27.1124 31.3656C26.922 31.4818 26.6735 31.342 26.679 31.1158L26.7327 28.995ZM27.3072 28.8255L28.7837 29.6769L29.5324 29.2196L27.3294 27.9493L27.3072 28.8255ZM32.606 18.4336L35.1459 19.8982L36.2207 18.0391C36.227 18.0252 36.2345 18.0119 36.2429 17.9993C36.4364 17.655 36.4739 17.2621 36.3779 16.9044C36.0413 15.6498 34.3494 15.418 33.6853 16.5667L33.6853 16.5668L33.6846 16.5678L32.606 18.4336ZM30.823 20.378V12.6944C30.823 12.4751 30.591 12.3259 30.3604 12.3259H26.0769V13.457H28.7454C28.9033 13.457 29.0314 13.5849 29.0314 13.7427V23.4771L30.823 20.378ZM29.0315 30.1937V34.6942C29.0315 34.8519 28.9034 34.9799 28.7454 34.9799H14.6498C14.4918 34.9799 14.3637 34.8519 14.3637 34.6942V13.7427C14.3637 13.585 14.4918 13.457 14.6498 13.457H17.3182V12.3259H13.0347C12.8041 12.3259 12.5721 12.4752 12.5721 12.6945V36.0601C12.5721 36.2794 12.8041 36.4286 13.0347 36.4286H30.3604C30.591 36.4286 30.823 36.2793 30.823 36.0601V28.5144L30.3458 29.3397C30.3227 29.3863 30.2866 29.4271 30.2389 29.4562L29.0315 30.1937ZM22.6246 31.3618H25.5201C25.8968 31.3618 25.8968 30.7904 25.5201 30.7904H22.6246C22.2479 30.7904 22.2479 31.3618 22.6246 31.3618ZM22.6246 29.1639H25.5201C25.8968 29.1639 25.8968 28.5925 25.5201 28.5925H22.6246C22.2479 28.5925 22.2479 29.1639 22.6246 29.1639ZM22.6246 25.7586H25.5201C25.8968 25.7586 25.8968 25.1872 25.5201 25.1872H22.6246C22.2479 25.1872 22.2479 25.7586 22.6246 25.7586ZM22.6246 23.5607H25.5201C25.8968 23.5607 25.8968 22.9893 25.5201 22.9893H22.6246C22.2479 22.9893 22.2479 23.5607 22.6246 23.5607ZM22.6246 20.1554H25.5201C25.8968 20.1554 25.8968 19.584 25.5201 19.584H22.6246C22.2479 19.584 22.2479 20.1554 22.6246 20.1554ZM22.6246 17.9575H25.5201C25.8968 17.9575 25.8968 17.3861 25.5201 17.3861H22.6246C22.2479 17.3861 22.2479 17.9575 22.6246 17.9575ZM20.27 28.6255L18.7784 30.1153L18.4161 29.7533C18.1498 29.4874 17.7453 29.8914 18.0116 30.1573L18.5762 30.7213C18.6878 30.8328 18.869 30.8328 18.9807 30.7213L20.6746 29.0295C20.9408 28.7635 20.5363 28.3595 20.27 28.6255ZM20.1862 30.765V31.5133H17.11V28.4409H18.8363C19.213 28.4409 19.213 27.8695 18.8363 27.8695H16.824C16.666 27.8695 16.5379 27.9974 16.5379 28.1552V31.799C16.5379 31.9568 16.666 32.0847 16.824 32.0847H20.4723C20.6303 32.0847 20.7584 31.9568 20.7584 31.799V30.765C20.7584 30.3889 20.1862 30.3889 20.1862 30.765ZM20.27 23.0223L18.7784 24.5121L18.4161 24.1502C18.1498 23.8843 17.7453 24.2883 18.0116 24.5542L18.5762 25.1181C18.6878 25.2296 18.869 25.2296 18.9807 25.1181L20.6746 23.4263C20.9408 23.1604 20.5363 22.7564 20.27 23.0223ZM20.1862 25.1619V25.9101H17.11V22.8377H18.8363C19.213 22.8377 19.213 22.2663 18.8363 22.2663H16.824C16.666 22.2663 16.5379 22.3943 16.5379 22.552V26.1958C16.5379 26.3536 16.666 26.4815 16.824 26.4815H20.4723C20.6303 26.4815 20.7584 26.3536 20.7584 26.1958V25.1619C20.7584 24.7857 20.1862 24.7857 20.1862 25.1619ZM20.27 17.4191L18.7784 18.9089L18.4161 18.547C18.1498 18.281 17.7453 18.685 18.0116 18.951L18.5762 19.5149C18.6878 19.6264 18.869 19.6264 18.9807 19.5149L20.6746 17.8231C20.9408 17.5572 20.5363 17.1532 20.27 17.4191ZM20.1862 19.5587V20.3069H17.11V17.2346H18.8363C19.213 17.2346 19.213 16.6632 18.8363 16.6632H16.824C16.666 16.6632 16.5379 16.7911 16.5379 16.9489V20.5927C16.5379 20.7504 16.666 20.8784 16.824 20.8784H20.4723C20.6303 20.8784 20.7584 20.7504 20.7584 20.5927V19.5587C20.7584 19.1826 20.1862 19.1826 20.1862 19.5587ZM19.6664 11.6001H17.8904V14.2254H25.5048V11.6001H23.7288C23.5709 11.6001 23.4428 11.4722 23.4428 11.3144C23.4428 10.3517 22.6615 9.57143 21.6976 9.57143C20.7337 9.57143 19.9524 10.3517 19.9524 11.3144C19.9524 11.4722 19.8243 11.6001 19.6664 11.6001Z"/>
</mask>
<path fill-rule="evenodd" clip-rule="evenodd" d="M26.077 11.7545H30.3604C30.9034 11.7545 31.3952 12.1549 31.3952 12.6945V19.3883L33.1902 16.2831L33.2094 16.2499L33.2095 16.25C33.4904 15.7738 33.9391 15.4532 34.4377 15.3198C34.9325 15.1874 35.4774 15.2396 35.9571 15.5074L35.9987 15.5304L35.9986 15.5306C36.9578 16.095 37.2858 17.3357 36.728 18.3006L36.7276 18.3003L31.3953 27.5246V36.0601C31.3953 36.5996 30.9034 37 30.3605 37H13.0347C12.4918 37 12 36.5997 12 36.0601V12.6944C12 12.1549 12.4918 11.7545 13.0347 11.7545H17.3182V11.3144C17.3182 11.1566 17.4463 11.0287 17.6043 11.0287H19.3978C19.5396 9.8788 20.5212 9 21.6976 9C22.874 9 23.8556 9.8788 23.9974 11.0287H25.7909C25.9489 11.0287 26.077 11.1566 26.077 11.3144V11.7545ZM33.8376 19.8008L31.8545 23.2313C31.7761 23.3676 31.602 23.4145 31.4656 23.3363C31.3292 23.258 31.2821 23.0841 31.3605 22.9479L33.3442 19.5163L32.3212 18.9264L31.3664 20.5779C31.3605 20.5901 31.3537 20.6019 31.3461 20.6131L29.0028 24.6668C28.9968 24.6791 28.99 24.6908 28.9825 24.702L27.4462 27.3597L29.9861 28.8242L34.8611 20.3909L33.8376 19.8008ZM28.2294 30.0155L27.2908 29.4743L27.2622 30.6062L28.2294 30.0155ZM26.7327 28.995C26.7325 28.9853 26.7327 28.9755 26.7334 28.9657L26.7713 27.4708C26.7699 27.4198 26.7822 27.368 26.8096 27.3206L28.4593 24.4669V14.0284H26.0769V14.5112C26.0769 14.669 25.9488 14.7969 25.7908 14.7969H17.6043C17.4463 14.7969 17.3182 14.669 17.3182 14.5112V14.0284H14.9358V34.4085H28.4594V30.5432L27.1126 31.3658L27.1124 31.3656C26.922 31.4818 26.6735 31.342 26.679 31.1158L26.7327 28.995ZM27.3072 28.8255L28.7837 29.6769L29.5324 29.2196L27.3294 27.9493L27.3072 28.8255ZM32.606 18.4336L35.1459 19.8982L36.2207 18.0391C36.227 18.0252 36.2345 18.0119 36.2429 17.9993C36.4364 17.655 36.4739 17.2621 36.3779 16.9044C36.0413 15.6498 34.3494 15.418 33.6853 16.5667L33.6853 16.5668L33.6846 16.5678L32.606 18.4336ZM30.823 20.378V12.6944C30.823 12.4751 30.591 12.3259 30.3604 12.3259H26.0769V13.457H28.7454C28.9033 13.457 29.0314 13.5849 29.0314 13.7427V23.4771L30.823 20.378ZM29.0315 30.1937V34.6942C29.0315 34.8519 28.9034 34.9799 28.7454 34.9799H14.6498C14.4918 34.9799 14.3637 34.8519 14.3637 34.6942V13.7427C14.3637 13.585 14.4918 13.457 14.6498 13.457H17.3182V12.3259H13.0347C12.8041 12.3259 12.5721 12.4752 12.5721 12.6945V36.0601C12.5721 36.2794 12.8041 36.4286 13.0347 36.4286H30.3604C30.591 36.4286 30.823 36.2793 30.823 36.0601V28.5144L30.3458 29.3397C30.3227 29.3863 30.2866 29.4271 30.2389 29.4562L29.0315 30.1937ZM22.6246 31.3618H25.5201C25.8968 31.3618 25.8968 30.7904 25.5201 30.7904H22.6246C22.2479 30.7904 22.2479 31.3618 22.6246 31.3618ZM22.6246 29.1639H25.5201C25.8968 29.1639 25.8968 28.5925 25.5201 28.5925H22.6246C22.2479 28.5925 22.2479 29.1639 22.6246 29.1639ZM22.6246 25.7586H25.5201C25.8968 25.7586 25.8968 25.1872 25.5201 25.1872H22.6246C22.2479 25.1872 22.2479 25.7586 22.6246 25.7586ZM22.6246 23.5607H25.5201C25.8968 23.5607 25.8968 22.9893 25.5201 22.9893H22.6246C22.2479 22.9893 22.2479 23.5607 22.6246 23.5607ZM22.6246 20.1554H25.5201C25.8968 20.1554 25.8968 19.584 25.5201 19.584H22.6246C22.2479 19.584 22.2479 20.1554 22.6246 20.1554ZM22.6246 17.9575H25.5201C25.8968 17.9575 25.8968 17.3861 25.5201 17.3861H22.6246C22.2479 17.3861 22.2479 17.9575 22.6246 17.9575ZM20.27 28.6255L18.7784 30.1153L18.4161 29.7533C18.1498 29.4874 17.7453 29.8914 18.0116 30.1573L18.5762 30.7213C18.6878 30.8328 18.869 30.8328 18.9807 30.7213L20.6746 29.0295C20.9408 28.7635 20.5363 28.3595 20.27 28.6255ZM20.1862 30.765V31.5133H17.11V28.4409H18.8363C19.213 28.4409 19.213 27.8695 18.8363 27.8695H16.824C16.666 27.8695 16.5379 27.9974 16.5379 28.1552V31.799C16.5379 31.9568 16.666 32.0847 16.824 32.0847H20.4723C20.6303 32.0847 20.7584 31.9568 20.7584 31.799V30.765C20.7584 30.3889 20.1862 30.3889 20.1862 30.765ZM20.27 23.0223L18.7784 24.5121L18.4161 24.1502C18.1498 23.8843 17.7453 24.2883 18.0116 24.5542L18.5762 25.1181C18.6878 25.2296 18.869 25.2296 18.9807 25.1181L20.6746 23.4263C20.9408 23.1604 20.5363 22.7564 20.27 23.0223ZM20.1862 25.1619V25.9101H17.11V22.8377H18.8363C19.213 22.8377 19.213 22.2663 18.8363 22.2663H16.824C16.666 22.2663 16.5379 22.3943 16.5379 22.552V26.1958C16.5379 26.3536 16.666 26.4815 16.824 26.4815H20.4723C20.6303 26.4815 20.7584 26.3536 20.7584 26.1958V25.1619C20.7584 24.7857 20.1862 24.7857 20.1862 25.1619ZM20.27 17.4191L18.7784 18.9089L18.4161 18.547C18.1498 18.281 17.7453 18.685 18.0116 18.951L18.5762 19.5149C18.6878 19.6264 18.869 19.6264 18.9807 19.5149L20.6746 17.8231C20.9408 17.5572 20.5363 17.1532 20.27 17.4191ZM20.1862 19.5587V20.3069H17.11V17.2346H18.8363C19.213 17.2346 19.213 16.6632 18.8363 16.6632H16.824C16.666 16.6632 16.5379 16.7911 16.5379 16.9489V20.5927C16.5379 20.7504 16.666 20.8784 16.824 20.8784H20.4723C20.6303 20.8784 20.7584 20.7504 20.7584 20.5927V19.5587C20.7584 19.1826 20.1862 19.1826 20.1862 19.5587ZM19.6664 11.6001H17.8904V14.2254H25.5048V11.6001H23.7288C23.5709 11.6001 23.4428 11.4722 23.4428 11.3144C23.4428 10.3517 22.6615 9.57143 21.6976 9.57143C20.7337 9.57143 19.9524 10.3517 19.9524 11.3144C19.9524 11.4722 19.8243 11.6001 19.6664 11.6001Z" fill="white"/>
<path fill-rule="evenodd" clip-rule="evenodd" d="M26.077 11.7545H30.3604C30.9034 11.7545 31.3952 12.1549 31.3952 12.6945V19.3883L33.1902 16.2831L33.2094 16.2499L33.2095 16.25C33.4904 15.7738 33.9391 15.4532 34.4377 15.3198C34.9325 15.1874 35.4774 15.2396 35.9571 15.5074L35.9987 15.5304L35.9986 15.5306C36.9578 16.095 37.2858 17.3357 36.728 18.3006L36.7276 18.3003L31.3953 27.5246V36.0601C31.3953 36.5996 30.9034 37 30.3605 37H13.0347C12.4918 37 12 36.5997 12 36.0601V12.6944C12 12.1549 12.4918 11.7545 13.0347 11.7545H17.3182V11.3144C17.3182 11.1566 17.4463 11.0287 17.6043 11.0287H19.3978C19.5396 9.8788 20.5212 9 21.6976 9C22.874 9 23.8556 9.8788 23.9974 11.0287H25.7909C25.9489 11.0287 26.077 11.1566 26.077 11.3144V11.7545ZM33.8376 19.8008L31.8545 23.2313C31.7761 23.3676 31.602 23.4145 31.4656 23.3363C31.3292 23.258 31.2821 23.0841 31.3605 22.9479L33.3442 19.5163L32.3212 18.9264L31.3664 20.5779C31.3605 20.5901 31.3537 20.6019 31.3461 20.6131L29.0028 24.6668C28.9968 24.6791 28.99 24.6908 28.9825 24.702L27.4462 27.3597L29.9861 28.8242L34.8611 20.3909L33.8376 19.8008ZM28.2294 30.0155L27.2908 29.4743L27.2622 30.6062L28.2294 30.0155ZM26.7327 28.995C26.7325 28.9853 26.7327 28.9755 26.7334 28.9657L26.7713 27.4708C26.7699 27.4198 26.7822 27.368 26.8096 27.3206L28.4593 24.4669V14.0284H26.0769V14.5112C26.0769 14.669 25.9488 14.7969 25.7908 14.7969H17.6043C17.4463 14.7969 17.3182 14.669 17.3182 14.5112V14.0284H14.9358V34.4085H28.4594V30.5432L27.1126 31.3658L27.1124 31.3656C26.922 31.4818 26.6735 31.342 26.679 31.1158L26.7327 28.995ZM27.3072 28.8255L28.7837 29.6769L29.5324 29.2196L27.3294 27.9493L27.3072 28.8255ZM32.606 18.4336L35.1459 19.8982L36.2207 18.0391C36.227 18.0252 36.2345 18.0119 36.2429 17.9993C36.4364 17.655 36.4739 17.2621 36.3779 16.9044C36.0413 15.6498 34.3494 15.418 33.6853 16.5667L33.6853 16.5668L33.6846 16.5678L32.606 18.4336ZM30.823 20.378V12.6944C30.823 12.4751 30.591 12.3259 30.3604 12.3259H26.0769V13.457H28.7454C28.9033 13.457 29.0314 13.5849 29.0314 13.7427V23.4771L30.823 20.378ZM29.0315 30.1937V34.6942C29.0315 34.8519 28.9034 34.9799 28.7454 34.9799H14.6498C14.4918 34.9799 14.3637 34.8519 14.3637 34.6942V13.7427C14.3637 13.585 14.4918 13.457 14.6498 13.457H17.3182V12.3259H13.0347C12.8041 12.3259 12.5721 12.4752 12.5721 12.6945V36.0601C12.5721 36.2794 12.8041 36.4286 13.0347 36.4286H30.3604C30.591 36.4286 30.823 36.2793 30.823 36.0601V28.5144L30.3458 29.3397C30.3227 29.3863 30.2866 29.4271 30.2389 29.4562L29.0315 30.1937ZM22.6246 31.3618H25.5201C25.8968 31.3618 25.8968 30.7904 25.5201 30.7904H22.6246C22.2479 30.7904 22.2479 31.3618 22.6246 31.3618ZM22.6246 29.1639H25.5201C25.8968 29.1639 25.8968 28.5925 25.5201 28.5925H22.6246C22.2479 28.5925 22.2479 29.1639 22.6246 29.1639ZM22.6246 25.7586H25.5201C25.8968 25.7586 25.8968 25.1872 25.5201 25.1872H22.6246C22.2479 25.1872 22.2479 25.7586 22.6246 25.7586ZM22.6246 23.5607H25.5201C25.8968 23.5607 25.8968 22.9893 25.5201 22.9893H22.6246C22.2479 22.9893 22.2479 23.5607 22.6246 23.5607ZM22.6246 20.1554H25.5201C25.8968 20.1554 25.8968 19.584 25.5201 19.584H22.6246C22.2479 19.584 22.2479 20.1554 22.6246 20.1554ZM22.6246 17.9575H25.5201C25.8968 17.9575 25.8968 17.3861 25.5201 17.3861H22.6246C22.2479 17.3861 22.2479 17.9575 22.6246 17.9575ZM20.27 28.6255L18.7784 30.1153L18.4161 29.7533C18.1498 29.4874 17.7453 29.8914 18.0116 30.1573L18.5762 30.7213C18.6878 30.8328 18.869 30.8328 18.9807 30.7213L20.6746 29.0295C20.9408 28.7635 20.5363 28.3595 20.27 28.6255ZM20.1862 30.765V31.5133H17.11V28.4409H18.8363C19.213 28.4409 19.213 27.8695 18.8363 27.8695H16.824C16.666 27.8695 16.5379 27.9974 16.5379 28.1552V31.799C16.5379 31.9568 16.666 32.0847 16.824 32.0847H20.4723C20.6303 32.0847 20.7584 31.9568 20.7584 31.799V30.765C20.7584 30.3889 20.1862 30.3889 20.1862 30.765ZM20.27 23.0223L18.7784 24.5121L18.4161 24.1502C18.1498 23.8843 17.7453 24.2883 18.0116 24.5542L18.5762 25.1181C18.6878 25.2296 18.869 25.2296 18.9807 25.1181L20.6746 23.4263C20.9408 23.1604 20.5363 22.7564 20.27 23.0223ZM20.1862 25.1619V25.9101H17.11V22.8377H18.8363C19.213 22.8377 19.213 22.2663 18.8363 22.2663H16.824C16.666 22.2663 16.5379 22.3943 16.5379 22.552V26.1958C16.5379 26.3536 16.666 26.4815 16.824 26.4815H20.4723C20.6303 26.4815 20.7584 26.3536 20.7584 26.1958V25.1619C20.7584 24.7857 20.1862 24.7857 20.1862 25.1619ZM20.27 17.4191L18.7784 18.9089L18.4161 18.547C18.1498 18.281 17.7453 18.685 18.0116 18.951L18.5762 19.5149C18.6878 19.6264 18.869 19.6264 18.9807 19.5149L20.6746 17.8231C20.9408 17.5572 20.5363 17.1532 20.27 17.4191ZM20.1862 19.5587V20.3069H17.11V17.2346H18.8363C19.213 17.2346 19.213 16.6632 18.8363 16.6632H16.824C16.666 16.6632 16.5379 16.7911 16.5379 16.9489V20.5927C16.5379 20.7504 16.666 20.8784 16.824 20.8784H20.4723C20.6303 20.8784 20.7584 20.7504 20.7584 20.5927V19.5587C20.7584 19.1826 20.1862 19.1826 20.1862 19.5587ZM19.6664 11.6001H17.8904V14.2254H25.5048V11.6001H23.7288C23.5709 11.6001 23.4428 11.4722 23.4428 11.3144C23.4428 10.3517 22.6615 9.57143 21.6976 9.57143C20.7337 9.57143 19.9524 10.3517 19.9524 11.3144C19.9524 11.4722 19.8243 11.6001 19.6664 11.6001Z" stroke="white" stroke-width="0.6" mask="url(#path-2-outside-1_646_703)"/>
</svg>
