<svg width="46" height="46" viewBox="0 0 46 46" fill="none" xmlns="http://www.w3.org/2000/svg">
<circle cx="23" cy="23" r="23" fill="#799B47"/>
<path d="M27.905 37.1692C27.7806 37.1698 27.6602 37.1255 27.5659 37.0443C27.4716 36.9632 27.4098 36.8507 27.3919 36.7276C27.374 36.6045 27.4012 36.4791 27.4685 36.3745C27.5357 36.2698 27.6385 36.193 27.758 36.1582C31.0611 35.165 33.8968 33.0169 35.7472 30.106C37.5977 27.1952 38.3394 23.7159 37.837 20.3035C37.3346 16.8911 35.6215 13.7732 33.0107 11.5192C30.3998 9.26526 27.0653 8.02556 23.6161 8.02651C20.552 8.0158 17.5654 8.98937 15.0963 10.8038C12.6271 12.6183 10.806 15.1778 9.90098 18.1052C9.86028 18.2359 9.76936 18.345 9.6482 18.4086C9.52704 18.4722 9.38559 18.4851 9.25494 18.4444C9.1243 18.4037 9.01518 18.3127 8.95157 18.1916C8.88797 18.0704 8.87511 17.929 8.9158 17.7983C10.0159 14.286 12.3375 11.2837 15.4601 9.33522C18.5826 7.38675 22.2998 6.62095 25.9382 7.17649C29.5767 7.73203 32.8959 9.57219 35.2947 12.3637C37.6936 15.1552 39.0134 18.7135 39.0153 22.3941C39.0005 25.7002 37.9289 28.915 35.9569 31.5686C33.9848 34.2222 31.2159 36.1756 28.0545 37.1434C28.0062 37.1593 27.9558 37.168 27.905 37.1692Z" fill="white"/>
<path d="M24.5263 33.458C23.046 31.9777 21.0292 30.8145 20.0801 31.7353C19.5415 32.218 19.0805 32.7808 18.7132 33.4039C17.5707 33.115 16.1549 32.2201 14.9376 31.0028C13.7203 29.7855 12.8924 28.4883 12.5701 27.369C13.2322 26.9845 13.7991 26.4556 14.2284 25.8216C15.0975 24.8596 13.9421 22.8687 12.4772 21.4038C11.0124 19.9389 8.96205 18.7552 8.01814 19.7016C8.01814 19.7016 7.99751 19.7274 7.98719 19.7378L7.95109 19.7687C7.00202 20.7152 5.92657 22.0434 6.00394 23.9157C6.13547 26.8919 8.32504 30.8429 11.7061 34.2317C15.4147 37.9429 19.1775 40.0061 22.1459 40.0061C22.3402 40.0061 22.5319 39.9975 22.721 39.9803C24.0518 39.8539 25.331 38.8249 26.1691 37.9867C26.1691 37.9867 26.1898 37.9609 26.2001 37.9481L26.2362 37.9171C27.1801 36.9732 26.0118 34.9435 24.5263 33.458ZM22.6204 38.9513C19.9151 39.2092 16.1136 37.1718 12.4385 33.4967C9.27669 30.3349 7.15676 26.5566 7.03554 23.8693C6.97107 22.4019 7.87888 21.2903 8.67579 20.4986C8.67579 20.4986 8.69642 20.4728 8.70673 20.4599L8.74284 20.4289C8.77637 20.3954 9.04458 20.3258 9.67386 20.6146C10.442 21.0036 11.1395 21.5189 11.7371 22.1388C13.1323 23.534 13.5424 24.7178 13.4779 25.0582C13.4436 25.0548 13.409 25.0548 13.3747 25.0582C12.8589 25.0582 11.964 24.4264 10.7158 23.1781C10.2489 22.7191 9.83775 22.2066 9.49075 21.6514C9.45553 21.5935 9.40924 21.543 9.35454 21.503C9.29983 21.463 9.23778 21.4341 9.17192 21.4181C9.10607 21.402 9.03769 21.3991 8.97071 21.4095C8.90372 21.4199 8.83944 21.4434 8.78152 21.4786C8.72361 21.5138 8.6732 21.5601 8.63317 21.6148C8.59315 21.6695 8.56429 21.7315 8.54824 21.7974C8.5322 21.8633 8.52928 21.9316 8.53966 21.9986C8.55004 22.0656 8.57351 22.1299 8.60873 22.1878C8.99852 22.8142 9.46077 23.3924 9.98592 23.9106C10.8576 24.7823 11.8376 25.6694 12.7429 25.9738C12.3663 26.3271 11.8583 26.6727 11.3089 26.6727C11.1721 26.6727 11.0409 26.727 10.9442 26.8238C10.8475 26.9205 10.7931 27.0517 10.7931 27.1885C10.7931 27.3253 10.8475 27.4565 10.9442 27.5532C11.0409 27.6499 11.1721 27.7043 11.3089 27.7043C11.3951 27.7038 11.4812 27.6987 11.5668 27.6888C11.9485 28.9783 12.8976 30.4561 14.1845 31.7404C15.5076 33.0634 17.0214 34.0228 18.3316 34.3839C18.3124 34.4903 18.3021 34.5981 18.3006 34.7063C18.3006 34.8431 18.3549 34.9742 18.4517 35.071C18.5484 35.1677 18.6796 35.2221 18.8164 35.2221C18.9532 35.2221 19.0844 35.1677 19.1811 35.071C19.2779 34.9742 19.3322 34.8431 19.3322 34.7063C19.3322 34.0151 20.2013 32.9912 20.7507 32.5089L20.7739 32.4857C20.9415 32.3207 22.2284 32.6508 23.7758 34.1956C24.3958 34.7931 24.9111 35.4906 25.3 36.2588C25.5889 36.8881 25.5192 37.1589 25.4857 37.1898C25.4522 37.2208 25.4651 37.2156 25.4547 37.2285C25.4207 37.2312 25.387 37.2372 25.3542 37.2466C25.0137 37.3446 23.7758 36.5889 22.6153 35.4413C22.1484 34.9822 21.7372 34.4697 21.3902 33.9145C21.355 33.8566 21.3087 33.8062 21.254 33.7662C21.1993 33.7261 21.1373 33.6973 21.0714 33.6812C21.0056 33.6652 20.9372 33.6623 20.8702 33.6726C20.8032 33.683 20.7389 33.7065 20.681 33.7417C20.6231 33.7769 20.5727 33.8232 20.5327 33.8779C20.4926 33.9326 20.4638 33.9947 20.4477 34.0605C20.4317 34.1264 20.4288 34.1948 20.4392 34.2618C20.4495 34.3287 20.473 34.393 20.5082 34.4509C20.898 35.0773 21.3603 35.6555 21.8854 36.1737C22.2981 36.5863 23.4328 37.6515 24.4799 38.0951C23.9306 38.5103 23.2626 38.8894 22.6204 38.9513Z" fill="white"/>
<path d="M15.946 28.8343C15.8577 28.8342 15.7709 28.8115 15.6939 28.7683C15.6169 28.7251 15.5523 28.6629 15.5062 28.5876C15.4601 28.5123 15.4342 28.4264 15.4308 28.3382C15.4274 28.25 15.4467 28.1624 15.4869 28.0838L16.9776 25.1643V17.1359C16.9776 16.9991 17.0319 16.8679 17.1286 16.7712C17.2254 16.6745 17.3566 16.6201 17.4934 16.6201H31.1363C31.2731 16.6201 31.4043 16.6745 31.501 16.7712C31.5977 16.8679 31.6521 16.9991 31.6521 17.1359V26.7711C31.6521 26.9079 31.5977 27.039 31.501 27.1358C31.4043 27.2325 31.2731 27.2869 31.1363 27.2869H19.1568L16.1755 28.7801C16.1042 28.8156 16.0256 28.8342 15.946 28.8343ZM18.0092 17.6517V25.2881C18.0091 25.3697 17.9896 25.4502 17.9524 25.5228L17.1194 27.1553L18.8061 26.312C18.8782 26.2761 18.9576 26.2575 19.0382 26.2578H30.6205V17.6517H18.0092Z" fill="white"/>
<path d="M21.4133 22.8532C21.2603 22.8532 21.1107 22.8078 20.9835 22.7228C20.8562 22.6378 20.7571 22.5169 20.6985 22.3756C20.64 22.2342 20.6246 22.0786 20.6545 21.9285C20.6843 21.7785 20.758 21.6406 20.8662 21.5324C20.9744 21.4242 21.1123 21.3505 21.2624 21.3207C21.4125 21.2908 21.568 21.3061 21.7094 21.3647C21.8508 21.4232 21.9716 21.5224 22.0566 21.6496C22.1416 21.7769 22.187 21.9265 22.187 22.0795C22.187 22.2847 22.1055 22.4815 21.9604 22.6266C21.8153 22.7717 21.6185 22.8532 21.4133 22.8532Z" fill="white"/>
<path d="M24.5084 22.8532C24.3554 22.8532 24.2058 22.8078 24.0786 22.7228C23.9513 22.6378 23.8522 22.5169 23.7936 22.3756C23.735 22.2342 23.7197 22.0786 23.7496 21.9285C23.7794 21.7785 23.8531 21.6406 23.9613 21.5324C24.0695 21.4242 24.2074 21.3505 24.3575 21.3207C24.5076 21.2908 24.6631 21.3061 24.8045 21.3647C24.9459 21.4232 25.0667 21.5224 25.1517 21.6496C25.2367 21.7769 25.2821 21.9265 25.2821 22.0795C25.2821 22.2847 25.2006 22.4815 25.0555 22.6266C24.9104 22.7717 24.7136 22.8532 24.5084 22.8532Z" fill="white"/>
<path d="M27.6031 22.8532C27.4501 22.8532 27.3005 22.8078 27.1732 22.7228C27.046 22.6378 26.9468 22.5169 26.8883 22.3756C26.8297 22.2342 26.8144 22.0786 26.8442 21.9285C26.8741 21.7785 26.9478 21.6406 27.056 21.5324C27.1642 21.4242 27.3021 21.3505 27.4521 21.3207C27.6022 21.2908 27.7578 21.3061 27.8992 21.3647C28.0405 21.4232 28.1614 21.5224 28.2464 21.6496C28.3314 21.7769 28.3768 21.9265 28.3768 22.0795C28.3768 22.2847 28.2953 22.4815 28.1502 22.6266C28.0051 22.7717 27.8083 22.8532 27.6031 22.8532Z" fill="white"/>
</svg>
