<svg width="46" height="46" viewBox="0 0 46 46" fill="none" xmlns="http://www.w3.org/2000/svg">
<circle cx="23" cy="23" r="23" fill="#475D9B"/>
<mask id="path-2-outside-1_646_717" maskUnits="userSpaceOnUse" x="6" y="6" width="33" height="33" fill="black">
<rect fill="white" x="6" y="6" width="33" height="33"/>
<path fill-rule="evenodd" clip-rule="evenodd" d="M20.4292 23.7206H22.5182C22.5842 23.8436 22.678 23.9494 22.7919 24.0295C22.9059 24.1096 23.0368 24.1619 23.1744 24.1821C23.312 24.2023 23.4523 24.1899 23.5843 24.1459C23.7162 24.1019 23.8362 24.0275 23.9345 23.9286C24.0328 23.8298 24.1068 23.7092 24.1505 23.5765C24.1943 23.4438 24.2066 23.3026 24.1865 23.1643C24.1664 23.026 24.1145 22.8943 24.0348 22.7797C23.9551 22.6651 23.8499 22.5709 23.7276 22.5044V19.3099C23.7292 19.2529 23.7194 19.1962 23.6988 19.1431C23.6782 19.09 23.6472 19.0416 23.6077 19.0008C23.5682 18.9599 23.5209 18.9275 23.4687 18.9053C23.4165 18.8831 23.3604 18.8717 23.3038 18.8717C23.2471 18.8717 23.191 18.8831 23.1388 18.9053C23.0866 18.9275 23.0393 18.9599 22.9998 19.0008C22.9603 19.0416 22.9293 19.09 22.9087 19.1431C22.8881 19.1962 22.8783 19.2529 22.8799 19.3099V22.5044C22.7268 22.5878 22.6011 22.7142 22.5182 22.8682H20.4292C20.3726 22.8666 20.3162 22.8764 20.2634 22.8972C20.2106 22.9179 20.1624 22.949 20.1218 22.9887C20.0812 23.0285 20.0489 23.076 20.0269 23.1285C20.0048 23.181 19.9935 23.2374 19.9935 23.2944C19.9935 23.3514 20.0048 23.4078 20.0269 23.4603C20.0489 23.5128 20.0812 23.5603 20.1218 23.6C20.1624 23.6398 20.2106 23.6709 20.2634 23.6916C20.3162 23.7123 20.3726 23.7222 20.4292 23.7206ZM23.3036 23.3399C23.2923 23.3389 23.2817 23.3337 23.274 23.3253C23.2663 23.3169 23.262 23.3058 23.262 23.2944C23.262 23.2829 23.2663 23.2719 23.274 23.2635C23.2817 23.2551 23.2923 23.2498 23.3036 23.2489C23.3099 23.2483 23.3162 23.2491 23.3221 23.2512C23.3281 23.2532 23.3335 23.2565 23.3382 23.2608C23.3428 23.265 23.3465 23.2702 23.349 23.276C23.3515 23.2818 23.3528 23.2881 23.3528 23.2944C23.3528 23.3007 23.3515 23.307 23.349 23.3128C23.3465 23.3185 23.3428 23.3237 23.3382 23.328C23.3335 23.3323 23.3281 23.3356 23.3221 23.3376C23.3162 23.3397 23.3099 23.3404 23.3036 23.3399ZM18.7094 18.6744C18.6968 18.687 18.6851 18.7005 18.6744 18.7148C17.4766 19.9343 16.8054 21.5796 16.8064 23.2936V23.2952C16.8056 25.0091 17.4766 26.6543 18.6741 27.8739C18.6958 27.9024 18.7212 27.9279 18.7497 27.9496C19.9626 29.1541 21.5989 29.8291 23.3036 29.8281C25.0084 29.829 26.6448 29.1541 27.8579 27.9496C27.8719 27.9387 27.8854 27.9269 27.8981 27.9144C27.9105 27.9016 27.9222 27.8881 27.9331 27.8739C29.1302 26.6536 29.8013 25.0085 29.8013 23.2944C29.8013 21.5803 29.1302 19.9351 27.9331 18.7148C27.9224 18.7006 27.9108 18.6871 27.8984 18.6744C27.8856 18.6619 27.8722 18.6502 27.8582 18.6392C26.6451 17.4347 25.0087 16.7598 23.3039 16.7607C21.5991 16.7596 19.9627 17.4346 18.7497 18.6392C18.7356 18.6501 18.7221 18.6618 18.7094 18.6744ZM19.3314 19.9023C19.4117 19.9771 19.5177 20.0176 19.6271 20.0155C19.7366 20.0134 19.8409 19.9688 19.9184 19.8911C19.9959 19.8133 20.0404 19.7084 20.0427 19.5984C20.0449 19.4883 20.0048 19.3817 19.9306 19.3008L19.6214 18.9899C20.5345 18.197 21.6768 17.7203 22.8799 17.6301V18.0722C22.8783 18.1291 22.8881 18.1858 22.9087 18.2389C22.9293 18.292 22.9603 18.3404 22.9998 18.3812C23.0393 18.4221 23.0866 18.4546 23.1388 18.4767C23.191 18.4989 23.2471 18.5103 23.3038 18.5103C23.3604 18.5103 23.4165 18.4989 23.4687 18.4767C23.5209 18.4546 23.5682 18.4221 23.6077 18.3812C23.6472 18.3404 23.6782 18.292 23.6988 18.2389C23.7194 18.1858 23.7292 18.1291 23.7276 18.0722V17.6291C24.9306 17.7193 26.0728 18.196 26.9858 18.9889L26.6766 19.2998C26.6373 19.3394 26.6061 19.3864 26.5848 19.4381C26.5635 19.4898 26.5526 19.5452 26.5526 19.6012C26.5526 19.6571 26.5636 19.7126 26.5849 19.7643C26.6062 19.816 26.6374 19.8629 26.6768 19.9025C26.7162 19.9421 26.7629 19.9734 26.8143 19.9949C26.8657 20.0163 26.9209 20.0273 26.9765 20.0272C27.0322 20.0272 27.0873 20.0162 27.1387 19.9948C27.1901 19.9733 27.2368 19.9419 27.2762 19.9023L27.585 19.5918C28.3735 20.5098 28.8477 21.6584 28.9375 22.8682H28.4976C28.3872 22.8712 28.2824 22.9175 28.2054 22.9971C28.1284 23.0767 28.0853 23.1833 28.0853 23.2944C28.0853 23.4054 28.1284 23.5121 28.2054 23.5917C28.2824 23.6713 28.3872 23.7175 28.4976 23.7206H28.9375C28.8477 24.9303 28.3735 26.079 27.585 26.997L27.2762 26.6861C27.1961 26.6088 27.0891 26.5661 26.9782 26.5673C26.8672 26.5684 26.7611 26.6132 26.6826 26.6921C26.6042 26.771 26.5596 26.8777 26.5585 26.9893C26.5573 27.1009 26.5998 27.2085 26.6766 27.289L26.9858 27.5999C26.0728 28.3927 24.9306 28.8694 23.7276 28.9597V28.5173C23.7246 28.4063 23.6786 28.3008 23.5994 28.2234C23.5203 28.146 23.4142 28.1027 23.3038 28.1027C23.1933 28.1027 23.0873 28.146 23.0081 28.2234C22.9289 28.3008 22.883 28.4063 22.8799 28.5173V28.9597C21.6769 28.8693 20.5346 28.3926 19.6214 27.5999L19.9306 27.289C19.9699 27.2494 20.0012 27.2025 20.0225 27.1508C20.0438 27.0991 20.0548 27.0436 20.0548 26.9877C20.0548 26.9317 20.0438 26.8763 20.0226 26.8246C20.0013 26.7729 19.9701 26.7259 19.9307 26.6863C19.8914 26.6467 19.8447 26.6153 19.7933 26.5938C19.7418 26.5724 19.6867 26.5614 19.6311 26.5614C19.5754 26.5613 19.5203 26.5724 19.4689 26.5938C19.4174 26.6152 19.3707 26.6465 19.3314 26.6861L19.0222 26.997C18.2337 26.079 17.7595 24.9303 17.6697 23.7206H18.1096C18.1662 23.7222 18.2226 23.7123 18.2754 23.6916C18.3282 23.6709 18.3763 23.6398 18.417 23.6C18.4576 23.5603 18.4899 23.5128 18.5119 23.4603C18.534 23.4078 18.5453 23.3514 18.5453 23.2944C18.5453 23.2374 18.534 23.181 18.5119 23.1285C18.4899 23.076 18.4576 23.0285 18.417 22.9887C18.3763 22.949 18.3282 22.9179 18.2754 22.8972C18.2226 22.8764 18.1662 22.8666 18.1096 22.8682H17.6697C17.7595 21.6584 18.2337 20.5098 19.0222 19.5918L19.3314 19.9023ZM20.8493 12.1999L18.0917 13.2089C17.8279 13.3059 17.613 13.5042 17.4943 13.7603C17.3756 14.0163 17.3627 14.3093 17.4585 14.5749L17.899 15.7921C17.916 15.8348 17.9181 15.882 17.9052 15.926C17.8922 15.9701 17.8649 16.0085 17.8276 16.0351C17.3803 16.3762 16.9655 16.7584 16.5887 17.177C16.5591 17.212 16.5187 17.236 16.4739 17.2451C16.4291 17.2542 16.3826 17.2479 16.3418 17.2272L15.1739 16.6798C14.9191 16.5607 14.6277 16.5481 14.3637 16.6448C14.0997 16.7414 13.8846 16.9393 13.7655 17.1952L12.5256 19.8704C12.4072 20.1266 12.3947 20.4195 12.4908 20.685C12.5869 20.9505 12.7837 21.1668 13.0382 21.2866L14.2061 21.8337C14.248 21.8519 14.2827 21.8837 14.3045 21.924C14.3263 21.9643 14.334 22.0109 14.3265 22.0562C14.2501 22.6154 14.2257 23.1806 14.2535 23.7444C14.2573 23.7902 14.2456 23.8359 14.2203 23.8741C14.1951 23.9124 14.1577 23.9409 14.1143 23.9552L12.9039 24.3985C12.64 24.4954 12.425 24.6936 12.3063 24.9496C12.1875 25.2056 12.1745 25.4986 12.2703 25.7642L13.274 28.5372C13.3703 28.8026 13.5674 29.0188 13.822 29.1382C14.0766 29.2576 14.368 29.2705 14.6321 29.174L15.8431 28.729C15.8856 28.7119 15.9325 28.7097 15.9763 28.7227C16.0201 28.7356 16.0584 28.763 16.0848 28.8004C16.4239 29.2505 16.804 29.6677 17.2203 30.0467C17.2551 30.0764 17.2789 30.1171 17.2879 30.1622C17.2969 30.2072 17.2906 30.254 17.27 30.2949L16.7253 31.4694C16.6068 31.7255 16.5942 32.0185 16.6903 32.2839C16.7864 32.5494 16.9833 32.7656 17.2378 32.8853L19.8981 34.1321C20.1528 34.2514 20.4442 34.2641 20.7083 34.1675C20.9723 34.071 21.1874 33.873 21.3064 33.617L21.8511 32.4426C21.869 32.4003 21.9006 32.3654 21.9407 32.3434C21.9808 32.3214 22.0271 32.3137 22.0721 32.3215C22.6282 32.3984 23.1903 32.4228 23.751 32.3946C23.7965 32.3907 23.8421 32.4023 23.8802 32.4278C23.9183 32.4532 23.9468 32.4908 23.9609 32.5346L24.3998 33.753C24.4472 33.8847 24.52 34.0057 24.6139 34.109C24.7079 34.2124 24.8213 34.296 24.9475 34.3552C25.0737 34.4143 25.2103 34.4479 25.3494 34.4538C25.4885 34.4598 25.6274 34.438 25.7582 34.3899L28.5158 33.3808C28.7797 33.2838 28.9945 33.0855 29.1132 32.8295C29.2319 32.5734 29.2448 32.2805 29.1491 32.0149L28.7082 30.7973C28.6913 30.7547 28.6891 30.7076 28.702 30.6635C28.715 30.6195 28.7423 30.5812 28.7795 30.5546C29.227 30.2136 29.6419 29.8313 30.0188 29.4128C30.0484 29.3778 30.0888 29.3539 30.1335 29.3447C30.1782 29.3356 30.2247 29.3419 30.2654 29.3626L31.4333 29.91C31.6881 30.0291 31.9795 30.0418 32.2435 29.9451C32.5075 29.8485 32.7226 29.6505 32.8417 29.3945L34.0816 26.7194C34.2001 26.4632 34.2126 26.1703 34.1165 25.9048C34.0204 25.6394 33.8235 25.4231 33.569 25.3035L32.4011 24.7561C32.3592 24.7379 32.3245 24.7061 32.3027 24.6657C32.2809 24.6254 32.2731 24.5789 32.2807 24.5336C32.3571 23.9744 32.3815 23.4094 32.3537 22.8456C32.35 22.7999 32.3617 22.7541 32.3869 22.7158C32.4122 22.6776 32.4495 22.6489 32.4929 22.6346L33.7036 22.1915C33.9675 22.0945 34.1823 21.8962 34.301 21.6401C34.4197 21.3841 34.4326 21.0912 34.3369 20.8256L33.3335 18.0526C33.237 17.7872 33.0398 17.5712 32.7852 17.4518C32.5306 17.3324 32.2392 17.3195 31.9751 17.4158L30.7644 17.8588C30.722 17.8759 30.6751 17.8781 30.6314 17.8652C30.5876 17.8522 30.5494 17.8248 30.523 17.7873C30.1838 17.3374 29.8037 16.9201 29.3875 16.5411C29.3528 16.5113 29.329 16.4706 29.32 16.4256C29.311 16.3806 29.3173 16.3338 29.3379 16.2929L29.8823 15.1184C30.0006 14.8622 30.0131 14.5693 29.9171 14.3039C29.821 14.0385 29.6241 13.8222 29.3697 13.7025L26.7094 12.4557C26.4546 12.3369 26.1635 12.3245 25.8997 12.4212C25.6358 12.518 25.4209 12.716 25.302 12.9718L24.7577 14.1462C24.7397 14.1884 24.7082 14.2233 24.6681 14.2453C24.628 14.2672 24.5817 14.275 24.5367 14.2673C23.9806 14.1906 23.4185 14.1661 22.8578 14.1942C22.8123 14.1978 22.7669 14.186 22.7289 14.1606C22.6908 14.1353 22.6623 14.0978 22.6479 14.0542L22.208 12.8367C22.1118 12.5713 21.9147 12.3551 21.66 12.2357C21.4054 12.1163 21.1141 12.1034 20.85 12.1999H20.8493ZM21.4109 13.1284L21.8511 14.3455C21.9278 14.5602 22.0713 14.7442 22.2603 14.8702C22.4492 14.9963 22.6736 15.0577 22.9 15.0453C23.4079 15.0196 23.9171 15.0414 24.4209 15.1106C24.6453 15.1425 24.874 15.1008 25.0731 14.9918C25.2721 14.8827 25.4309 14.712 25.5259 14.5051L26.0703 13.3306C26.0943 13.2796 26.1373 13.2401 26.1901 13.2207C26.2429 13.2013 26.3011 13.2037 26.3522 13.2272L29.0125 14.4741C29.0633 14.4981 29.1026 14.5413 29.1218 14.5944C29.141 14.6475 29.1386 14.706 29.115 14.7573L28.5706 15.9317C28.4742 16.1378 28.4464 16.3697 28.4912 16.593C28.5361 16.8163 28.6513 17.0191 28.8198 17.1714C29.1966 17.5147 29.5408 17.8926 29.8479 18.3002C29.9839 18.4826 30.1749 18.6161 30.3923 18.6807C30.6098 18.7454 30.8422 18.7378 31.0551 18.6591L32.2652 18.2177C32.2913 18.2081 32.3191 18.2038 32.3469 18.205C32.3747 18.2063 32.402 18.213 32.4272 18.2249C32.4524 18.2367 32.4751 18.2534 32.4939 18.2741C32.5126 18.2947 32.5272 18.3189 32.5367 18.3452L33.5405 21.1182C33.5594 21.1714 33.5567 21.2299 33.5329 21.281C33.5092 21.3322 33.4663 21.3718 33.4136 21.3913L32.2029 21.8346C31.9895 21.9118 31.8065 22.0561 31.681 22.246C31.5556 22.436 31.4945 22.6616 31.5067 22.8894C31.5323 23.4001 31.5106 23.9121 31.4418 24.4188C31.41 24.6444 31.4514 24.8744 31.5598 25.0745C31.6682 25.2747 31.8378 25.4344 32.0436 25.5299L33.2115 26.077C33.2623 26.1012 33.3016 26.1445 33.3208 26.1976C33.3399 26.2507 33.3375 26.3092 33.314 26.3605L32.0741 29.0357C32.0502 29.0869 32.0071 29.1265 31.9543 29.1458C31.9014 29.1651 31.8431 29.1626 31.7921 29.1388L30.6242 28.5913C30.4192 28.4945 30.1886 28.4666 29.9666 28.5117C29.7446 28.5568 29.5429 28.6726 29.3914 28.8419C29.0501 29.2209 28.6743 29.567 28.2689 29.8757C28.0875 30.0126 27.9548 30.2046 27.8905 30.4233C27.8263 30.6419 27.8338 30.8756 27.912 31.0897L28.3526 32.3072C28.3718 32.3603 28.3693 32.4189 28.3456 32.4702C28.3219 32.5214 28.2789 32.5611 28.2261 32.5806L25.4685 33.5896C25.4156 33.6086 25.3575 33.6059 25.3066 33.5821C25.2557 33.5583 25.2162 33.5153 25.1966 33.4624L24.756 32.2449C24.6825 32.0391 24.5475 31.8612 24.3695 31.7356C24.1914 31.61 23.9791 31.5429 23.7617 31.5434C23.7438 31.5434 23.7253 31.5434 23.7072 31.5451C23.1994 31.5709 22.6903 31.549 22.1866 31.4798C21.9622 31.4479 21.7334 31.4895 21.5344 31.5986C21.3353 31.7076 21.1766 31.8783 21.0816 32.0853L20.5372 33.2598C20.5132 33.3107 20.4701 33.3501 20.4174 33.3694C20.3648 33.3887 20.3066 33.3863 20.2556 33.3629L17.5954 32.1157C17.5701 32.1038 17.5475 32.0871 17.5287 32.0665C17.5099 32.0459 17.4953 32.0217 17.4858 31.9954C17.4762 31.9691 17.472 31.9412 17.4732 31.9133C17.4744 31.8853 17.4811 31.8579 17.4928 31.8325L18.0379 30.6538C18.1342 30.4476 18.1619 30.2157 18.117 29.9925C18.0721 29.7692 17.9569 29.5664 17.7884 29.4141C17.4117 29.0708 17.0676 28.6929 16.7606 28.2853C16.6245 28.1029 16.4336 27.9695 16.2161 27.9049C15.9987 27.8402 15.7663 27.8478 15.5534 27.9265L14.3427 28.3701C14.2898 28.3894 14.2315 28.3868 14.1805 28.3628C14.1296 28.3389 14.0901 28.2957 14.0708 28.2426L13.0674 25.4696C13.0484 25.4165 13.0511 25.358 13.0748 25.3069C13.0985 25.2557 13.1413 25.2161 13.1939 25.1965L14.4046 24.7535C14.6179 24.6762 14.8008 24.5319 14.9261 24.3419C15.0515 24.1519 15.1126 23.9264 15.1005 23.6988C15.0759 23.1887 15.0985 22.6775 15.168 22.1716C15.1998 21.946 15.1584 21.716 15.05 21.5159C14.9416 21.3158 14.772 21.1561 14.5662 21.0605L13.3983 20.5134C13.3474 20.4893 13.3081 20.446 13.2889 20.3929C13.2697 20.3398 13.2722 20.2812 13.2958 20.2299L14.5357 17.5547C14.5596 17.5035 14.6027 17.464 14.6555 17.4446C14.7083 17.4253 14.7666 17.4278 14.8176 17.4516L15.9856 17.9991C16.1906 18.096 16.4211 18.124 16.6432 18.0789C16.8652 18.0338 17.0669 17.9179 17.2184 17.7485C17.5599 17.3696 17.9358 17.0235 18.3412 16.7147C18.5226 16.5778 18.6552 16.3858 18.7195 16.1671C18.7838 15.9485 18.7763 15.7148 18.6981 15.5008L18.2552 14.2832C18.2361 14.2301 18.2387 14.1714 18.2625 14.1202C18.2863 14.0689 18.3293 14.0293 18.3821 14.0099L21.1397 13.0008C21.1926 12.9817 21.2508 12.9845 21.3017 13.0083C21.3526 13.0322 21.3921 13.0754 21.4116 13.1284H21.4109ZM9.39327 22.9602C9.38906 23.1999 9.39035 23.4378 9.39684 23.6779C9.40593 23.9428 9.42118 24.2044 9.44356 24.4684C9.46595 24.7323 9.49774 24.9946 9.53537 25.2578C9.57787 25.5466 9.62816 25.8307 9.68753 26.1165C9.74333 26.3798 9.80562 26.6385 9.87504 26.8995C9.94447 27.1605 10.0233 27.4146 10.1077 27.6694L10.5638 25.3808L11.3311 25.5355L10.4876 29.7583L7 27.2609L7.45419 26.6199L9.40074 28.0106C9.33217 27.8092 9.26729 27.6066 9.20608 27.4029C9.13374 27.1539 9.06788 26.9057 9.00721 26.6525C8.94654 26.3993 8.89626 26.1517 8.84922 25.8982C8.80217 25.6448 8.76487 25.3952 8.73145 25.1411C8.69803 24.8869 8.67338 24.6367 8.65294 24.3822C8.6325 24.1278 8.6205 23.8775 8.61433 23.6234C8.60784 23.3448 8.60849 23.0688 8.61628 22.7902C8.62471 22.5374 8.63866 22.2878 8.65845 22.0356C8.68181 21.7593 8.71166 21.4862 8.74897 21.2112C8.78401 20.962 8.82424 20.7156 8.8703 20.468C8.9274 20.1715 8.99196 19.8808 9.06496 19.5872C9.12076 19.368 9.18078 19.1517 9.24566 18.9347C9.32612 18.6698 9.41242 18.4098 9.5052 18.1495C9.59182 17.9129 9.68266 17.681 9.77966 17.4487C9.88802 17.1933 10.0016 16.9434 10.1226 16.6938C10.2436 16.4442 10.3724 16.2009 10.5073 15.9581C10.6423 15.7154 10.7854 15.4786 10.934 15.2434C11.0705 15.0293 11.211 14.8192 11.3557 14.6131C11.5179 14.3847 11.686 14.1632 11.8602 13.9436C12.0224 13.744 12.1846 13.5502 12.3536 13.3584C12.5425 13.147 12.7345 12.9427 12.934 12.7418C13.1177 12.5587 13.3036 12.3829 13.4956 12.2077C13.7094 12.0159 13.9261 11.8319 14.1497 11.6531C14.3349 11.5053 14.5218 11.3631 14.7132 11.2235L14.7349 11.2078C16.6345 9.8345 18.834 8.9395 21.1488 8.59791C21.2001 8.5893 21.2526 8.59107 21.3032 8.60311C21.3539 8.61516 21.4016 8.63724 21.4436 8.66806C21.4857 8.69888 21.5212 8.73782 21.5481 8.7826C21.575 8.82739 21.5927 8.87712 21.6003 8.92888C21.6078 8.98065 21.605 9.03341 21.5921 9.08407C21.5791 9.13474 21.5562 9.1823 21.5247 9.22396C21.4933 9.26562 21.4538 9.30056 21.4088 9.32671C21.3637 9.35287 21.3139 9.36973 21.2623 9.37631C19.0636 9.7015 16.975 10.5543 15.1732 11.8626C14.9922 11.9931 14.8163 12.1294 14.6399 12.2694C14.4471 12.4243 14.2603 12.5826 14.0754 12.747C13.8742 12.9271 13.6802 13.1107 13.4891 13.3016C13.2831 13.5091 13.0855 13.7202 12.8915 13.9394C12.7322 14.1217 12.5785 14.3061 12.4276 14.494C12.2485 14.7224 12.0782 14.9507 11.9124 15.1892C11.7758 15.3866 11.6451 15.5856 11.5179 15.7895C11.3794 16.0136 11.248 16.239 11.1208 16.47C10.9842 16.7222 10.8558 16.9753 10.7315 17.2347C10.6206 17.4729 10.5168 17.711 10.4178 17.9524C10.3117 18.218 10.2137 18.4839 10.1223 18.755C10.0249 19.0486 9.93668 19.3422 9.8572 19.6423C9.79232 19.8958 9.73165 20.1486 9.67844 20.4051C9.6168 20.7094 9.56489 21.0115 9.52175 21.3185C9.4893 21.5551 9.46367 21.7903 9.44226 22.0281C9.41793 22.3416 9.40139 22.6489 9.39327 22.9602ZM31.2815 32.4807L35.3407 31.1053L34.9326 35.3917L34.1539 35.3167L34.381 32.9273C34.1877 33.1503 33.988 33.3678 33.7818 33.5798C33.496 33.8715 33.2021 34.1484 32.8942 34.4163C32.5335 34.7278 32.1626 35.0195 31.7746 35.2971C31.3866 35.5748 30.9863 35.8286 30.572 36.0667C30.2151 36.2709 29.8531 36.4582 29.4806 36.6331C29.0735 36.822 28.6631 36.9919 28.241 37.1433C27.7813 37.3064 27.3196 37.4474 26.846 37.5674C26.4349 37.6689 26.0249 37.7524 25.607 37.8193C25.2177 37.8799 24.8323 37.9256 24.4391 37.9563C24.0592 37.985 23.6822 37.9993 23.3013 38C23.1742 38 23.047 37.9984 22.9198 37.9951C22.4873 37.9834 22.0601 37.9537 21.6302 37.9054C21.2244 37.8584 20.8253 37.7961 20.4247 37.7168C19.9607 37.6235 19.5069 37.5097 19.0536 37.373C18.7052 37.2669 18.3642 37.1492 18.0242 37.0184C17.338 36.7518 16.6724 36.4342 16.0329 36.0684C15.885 35.9831 15.7388 35.8961 15.5943 35.8074C15.2323 35.5819 14.8841 35.3441 14.5422 35.0896C14.161 34.8039 13.796 34.5024 13.4447 34.1834C13.1556 33.9198 12.8799 33.648 12.6119 33.3632C12.3199 33.0526 12.0464 32.7332 11.782 32.3995C11.7501 32.359 11.7263 32.3126 11.7122 32.263C11.6981 32.2133 11.6938 32.1613 11.6997 32.1099C11.7056 32.0586 11.7214 32.0089 11.7464 31.9638C11.7713 31.9186 11.8049 31.8788 11.8451 31.8467C11.8853 31.8146 11.9315 31.7907 11.9809 31.7765C12.0303 31.7623 12.082 31.758 12.133 31.7639C12.1841 31.7698 12.2335 31.7858 12.2784 31.8108C12.3233 31.8359 12.3629 31.8697 12.3948 31.9101L12.425 31.948C12.6661 32.2504 12.9165 32.5401 13.1806 32.8226C13.4901 33.1515 13.8106 33.4614 14.149 33.7599C14.4874 34.0584 14.8374 34.3357 15.2031 34.6003C15.5577 34.8551 15.9191 35.0896 16.2947 35.3125C16.6704 35.5353 17.0565 35.7366 17.4533 35.9212C17.8101 36.0866 18.167 36.2351 18.5346 36.3708C18.9213 36.512 19.3093 36.6347 19.7067 36.742C20.109 36.8494 20.511 36.9378 20.921 37.0095C21.3207 37.0784 21.7181 37.1293 22.1214 37.1642C22.5152 37.1968 22.9055 37.2128 23.3007 37.2138H23.3526C23.7474 37.2118 24.1374 37.1939 24.5309 37.1599C24.9341 37.1237 25.3312 37.0712 25.7313 37.0014C26.1572 36.9251 26.5748 36.8308 26.9916 36.7166C27.3719 36.6109 27.7437 36.4908 28.1145 36.3541C28.5271 36.2005 28.9281 36.0279 29.3249 35.8384C29.7217 35.6488 30.0993 35.44 30.474 35.2136C30.8487 34.9872 31.2043 34.7461 31.5553 34.4868C31.8911 34.2369 32.2126 33.9749 32.526 33.6963C32.8504 33.4066 33.1576 33.1058 33.4548 32.7877C33.5476 32.6883 33.6388 32.5875 33.7283 32.4853L31.5287 33.2298L31.2815 32.4807ZM38 23.2189C38.0016 25.083 37.6519 26.9306 36.9693 28.6638C36.9311 28.7607 36.8561 28.8384 36.7609 28.8798C36.6656 28.9211 36.558 28.9227 36.4616 28.8843C36.3652 28.8458 36.2879 28.7704 36.2468 28.6747C36.2056 28.5789 36.204 28.4707 36.2423 28.3737C36.8875 26.7328 37.2177 24.9838 37.2155 23.2192C37.2155 23.0561 37.2123 22.893 37.2071 22.7269C37.198 22.4822 37.1834 22.2402 37.1633 21.9961C37.1432 21.7521 37.115 21.5162 37.0825 21.2761C37.0452 21.0122 37.0017 20.7519 36.9511 20.4902C36.9096 20.2827 36.8645 20.0779 36.8152 19.8723C36.7584 19.644 36.6971 19.4156 36.63 19.1898C36.5628 18.9641 36.4901 18.7435 36.4123 18.5217C36.3247 18.277 36.2322 18.0376 36.1326 17.7975C36.0421 17.5831 35.948 17.3734 35.8481 17.1629C35.7365 16.9306 35.621 16.7039 35.4971 16.4778C35.3731 16.2517 35.245 16.0338 35.11 15.8152C34.9751 15.5967 34.8346 15.3869 34.6883 15.1768C34.542 14.9667 34.3905 14.7648 34.2341 14.5631C34.0777 14.3615 33.9148 14.1687 33.7474 13.9759C33.58 13.7831 33.4078 13.5994 33.2303 13.4168C33.0529 13.2341 32.8709 13.0595 32.6837 12.8866C32.5143 12.732 32.3433 12.5826 32.1675 12.4354C31.9514 12.2567 31.7331 12.0854 31.5076 11.9187C31.3013 11.768 31.094 11.6251 30.8805 11.4835C30.667 11.3419 30.4507 11.2114 30.2297 11.0829C30.0088 10.9543 29.784 10.8339 29.5556 10.7175C29.3272 10.601 29.0955 10.493 28.8603 10.3889C28.6251 10.2849 28.3863 10.1896 28.1443 10.0986C27.9253 10.0174 27.7067 9.942 27.4841 9.87023C27.2346 9.79226 26.9861 9.72147 26.7331 9.65589C26.5157 9.60141 26.2954 9.54954 26.0755 9.5055L27.8205 11.047L27.3037 11.6378L24.0874 8.79267L27.9805 7L28.3049 7.71511L26.1345 8.7147C26.237 8.7346 26.3392 8.75581 26.4414 8.77766C26.6851 8.83182 26.9248 8.89087 27.1659 8.95579C27.4312 9.02919 27.6921 9.10847 27.9536 9.19525C28.1612 9.26571 28.3653 9.33912 28.57 9.41774C28.7971 9.5068 29.0242 9.59978 29.2477 9.69928C29.4959 9.81053 29.7382 9.92765 29.9802 10.0503C30.1966 10.1622 30.4085 10.2787 30.62 10.3991C30.8315 10.5194 31.0356 10.6473 31.24 10.7785C31.4444 10.9096 31.6419 11.0463 31.8392 11.1876C32.0364 11.3288 32.2285 11.4743 32.417 11.6247C32.6055 11.7751 32.7901 11.9298 32.9721 12.0893C33.1739 12.2674 33.3688 12.4482 33.5616 12.6364C33.7338 12.806 33.9009 12.9783 34.0657 13.1554C34.2305 13.3326 34.3882 13.5143 34.5442 13.6989C34.7168 13.9058 34.8826 14.1149 35.0448 14.3302C35.1746 14.5031 35.2985 14.677 35.4208 14.8548C35.5727 15.0786 35.7177 15.3034 35.8588 15.5344C35.9847 15.7435 36.1047 15.9532 36.2215 16.1676C36.3383 16.3819 36.4486 16.5992 36.5537 16.8201C36.6708 17.067 36.7808 17.314 36.8856 17.5665C36.979 17.7949 37.0666 18.0232 37.1497 18.2561C37.2327 18.4891 37.3083 18.7243 37.38 18.9621C37.4517 19.2 37.5156 19.4404 37.5747 19.6831C37.6337 19.9258 37.6866 20.1725 37.7346 20.4181C37.7865 20.6954 37.8319 20.9708 37.8689 21.2503C37.8942 21.4461 37.9163 21.6438 37.9338 21.8415C37.9543 22.0699 37.9698 22.2966 37.9809 22.5266C37.9919 22.7566 37.9993 22.9872 38 23.2172V23.2189Z"/>
</mask>
<path fill-rule="evenodd" clip-rule="evenodd" d="M20.4292 23.7206H22.5182C22.5842 23.8436 22.678 23.9494 22.7919 24.0295C22.9059 24.1096 23.0368 24.1619 23.1744 24.1821C23.312 24.2023 23.4523 24.1899 23.5843 24.1459C23.7162 24.1019 23.8362 24.0275 23.9345 23.9286C24.0328 23.8298 24.1068 23.7092 24.1505 23.5765C24.1943 23.4438 24.2066 23.3026 24.1865 23.1643C24.1664 23.026 24.1145 22.8943 24.0348 22.7797C23.9551 22.6651 23.8499 22.5709 23.7276 22.5044V19.3099C23.7292 19.2529 23.7194 19.1962 23.6988 19.1431C23.6782 19.09 23.6472 19.0416 23.6077 19.0008C23.5682 18.9599 23.5209 18.9275 23.4687 18.9053C23.4165 18.8831 23.3604 18.8717 23.3038 18.8717C23.2471 18.8717 23.191 18.8831 23.1388 18.9053C23.0866 18.9275 23.0393 18.9599 22.9998 19.0008C22.9603 19.0416 22.9293 19.09 22.9087 19.1431C22.8881 19.1962 22.8783 19.2529 22.8799 19.3099V22.5044C22.7268 22.5878 22.6011 22.7142 22.5182 22.8682H20.4292C20.3726 22.8666 20.3162 22.8764 20.2634 22.8972C20.2106 22.9179 20.1624 22.949 20.1218 22.9887C20.0812 23.0285 20.0489 23.076 20.0269 23.1285C20.0048 23.181 19.9935 23.2374 19.9935 23.2944C19.9935 23.3514 20.0048 23.4078 20.0269 23.4603C20.0489 23.5128 20.0812 23.5603 20.1218 23.6C20.1624 23.6398 20.2106 23.6709 20.2634 23.6916C20.3162 23.7123 20.3726 23.7222 20.4292 23.7206ZM23.3036 23.3399C23.2923 23.3389 23.2817 23.3337 23.274 23.3253C23.2663 23.3169 23.262 23.3058 23.262 23.2944C23.262 23.2829 23.2663 23.2719 23.274 23.2635C23.2817 23.2551 23.2923 23.2498 23.3036 23.2489C23.3099 23.2483 23.3162 23.2491 23.3221 23.2512C23.3281 23.2532 23.3335 23.2565 23.3382 23.2608C23.3428 23.265 23.3465 23.2702 23.349 23.276C23.3515 23.2818 23.3528 23.2881 23.3528 23.2944C23.3528 23.3007 23.3515 23.307 23.349 23.3128C23.3465 23.3185 23.3428 23.3237 23.3382 23.328C23.3335 23.3323 23.3281 23.3356 23.3221 23.3376C23.3162 23.3397 23.3099 23.3404 23.3036 23.3399ZM18.7094 18.6744C18.6968 18.687 18.6851 18.7005 18.6744 18.7148C17.4766 19.9343 16.8054 21.5796 16.8064 23.2936V23.2952C16.8056 25.0091 17.4766 26.6543 18.6741 27.8739C18.6958 27.9024 18.7212 27.9279 18.7497 27.9496C19.9626 29.1541 21.5989 29.8291 23.3036 29.8281C25.0084 29.829 26.6448 29.1541 27.8579 27.9496C27.8719 27.9387 27.8854 27.9269 27.8981 27.9144C27.9105 27.9016 27.9222 27.8881 27.9331 27.8739C29.1302 26.6536 29.8013 25.0085 29.8013 23.2944C29.8013 21.5803 29.1302 19.9351 27.9331 18.7148C27.9224 18.7006 27.9108 18.6871 27.8984 18.6744C27.8856 18.6619 27.8722 18.6502 27.8582 18.6392C26.6451 17.4347 25.0087 16.7598 23.3039 16.7607C21.5991 16.7596 19.9627 17.4346 18.7497 18.6392C18.7356 18.6501 18.7221 18.6618 18.7094 18.6744ZM19.3314 19.9023C19.4117 19.9771 19.5177 20.0176 19.6271 20.0155C19.7366 20.0134 19.8409 19.9688 19.9184 19.8911C19.9959 19.8133 20.0404 19.7084 20.0427 19.5984C20.0449 19.4883 20.0048 19.3817 19.9306 19.3008L19.6214 18.9899C20.5345 18.197 21.6768 17.7203 22.8799 17.6301V18.0722C22.8783 18.1291 22.8881 18.1858 22.9087 18.2389C22.9293 18.292 22.9603 18.3404 22.9998 18.3812C23.0393 18.4221 23.0866 18.4546 23.1388 18.4767C23.191 18.4989 23.2471 18.5103 23.3038 18.5103C23.3604 18.5103 23.4165 18.4989 23.4687 18.4767C23.5209 18.4546 23.5682 18.4221 23.6077 18.3812C23.6472 18.3404 23.6782 18.292 23.6988 18.2389C23.7194 18.1858 23.7292 18.1291 23.7276 18.0722V17.6291C24.9306 17.7193 26.0728 18.196 26.9858 18.9889L26.6766 19.2998C26.6373 19.3394 26.6061 19.3864 26.5848 19.4381C26.5635 19.4898 26.5526 19.5452 26.5526 19.6012C26.5526 19.6571 26.5636 19.7126 26.5849 19.7643C26.6062 19.816 26.6374 19.8629 26.6768 19.9025C26.7162 19.9421 26.7629 19.9734 26.8143 19.9949C26.8657 20.0163 26.9209 20.0273 26.9765 20.0272C27.0322 20.0272 27.0873 20.0162 27.1387 19.9948C27.1901 19.9733 27.2368 19.9419 27.2762 19.9023L27.585 19.5918C28.3735 20.5098 28.8477 21.6584 28.9375 22.8682H28.4976C28.3872 22.8712 28.2824 22.9175 28.2054 22.9971C28.1284 23.0767 28.0853 23.1833 28.0853 23.2944C28.0853 23.4054 28.1284 23.5121 28.2054 23.5917C28.2824 23.6713 28.3872 23.7175 28.4976 23.7206H28.9375C28.8477 24.9303 28.3735 26.079 27.585 26.997L27.2762 26.6861C27.1961 26.6088 27.0891 26.5661 26.9782 26.5673C26.8672 26.5684 26.7611 26.6132 26.6826 26.6921C26.6042 26.771 26.5596 26.8777 26.5585 26.9893C26.5573 27.1009 26.5998 27.2085 26.6766 27.289L26.9858 27.5999C26.0728 28.3927 24.9306 28.8694 23.7276 28.9597V28.5173C23.7246 28.4063 23.6786 28.3008 23.5994 28.2234C23.5203 28.146 23.4142 28.1027 23.3038 28.1027C23.1933 28.1027 23.0873 28.146 23.0081 28.2234C22.9289 28.3008 22.883 28.4063 22.8799 28.5173V28.9597C21.6769 28.8693 20.5346 28.3926 19.6214 27.5999L19.9306 27.289C19.9699 27.2494 20.0012 27.2025 20.0225 27.1508C20.0438 27.0991 20.0548 27.0436 20.0548 26.9877C20.0548 26.9317 20.0438 26.8763 20.0226 26.8246C20.0013 26.7729 19.9701 26.7259 19.9307 26.6863C19.8914 26.6467 19.8447 26.6153 19.7933 26.5938C19.7418 26.5724 19.6867 26.5614 19.6311 26.5614C19.5754 26.5613 19.5203 26.5724 19.4689 26.5938C19.4174 26.6152 19.3707 26.6465 19.3314 26.6861L19.0222 26.997C18.2337 26.079 17.7595 24.9303 17.6697 23.7206H18.1096C18.1662 23.7222 18.2226 23.7123 18.2754 23.6916C18.3282 23.6709 18.3763 23.6398 18.417 23.6C18.4576 23.5603 18.4899 23.5128 18.5119 23.4603C18.534 23.4078 18.5453 23.3514 18.5453 23.2944C18.5453 23.2374 18.534 23.181 18.5119 23.1285C18.4899 23.076 18.4576 23.0285 18.417 22.9887C18.3763 22.949 18.3282 22.9179 18.2754 22.8972C18.2226 22.8764 18.1662 22.8666 18.1096 22.8682H17.6697C17.7595 21.6584 18.2337 20.5098 19.0222 19.5918L19.3314 19.9023ZM20.8493 12.1999L18.0917 13.2089C17.8279 13.3059 17.613 13.5042 17.4943 13.7603C17.3756 14.0163 17.3627 14.3093 17.4585 14.5749L17.899 15.7921C17.916 15.8348 17.9181 15.882 17.9052 15.926C17.8922 15.9701 17.8649 16.0085 17.8276 16.0351C17.3803 16.3762 16.9655 16.7584 16.5887 17.177C16.5591 17.212 16.5187 17.236 16.4739 17.2451C16.4291 17.2542 16.3826 17.2479 16.3418 17.2272L15.1739 16.6798C14.9191 16.5607 14.6277 16.5481 14.3637 16.6448C14.0997 16.7414 13.8846 16.9393 13.7655 17.1952L12.5256 19.8704C12.4072 20.1266 12.3947 20.4195 12.4908 20.685C12.5869 20.9505 12.7837 21.1668 13.0382 21.2866L14.2061 21.8337C14.248 21.8519 14.2827 21.8837 14.3045 21.924C14.3263 21.9643 14.334 22.0109 14.3265 22.0562C14.2501 22.6154 14.2257 23.1806 14.2535 23.7444C14.2573 23.7902 14.2456 23.8359 14.2203 23.8741C14.1951 23.9124 14.1577 23.9409 14.1143 23.9552L12.9039 24.3985C12.64 24.4954 12.425 24.6936 12.3063 24.9496C12.1875 25.2056 12.1745 25.4986 12.2703 25.7642L13.274 28.5372C13.3703 28.8026 13.5674 29.0188 13.822 29.1382C14.0766 29.2576 14.368 29.2705 14.6321 29.174L15.8431 28.729C15.8856 28.7119 15.9325 28.7097 15.9763 28.7227C16.0201 28.7356 16.0584 28.763 16.0848 28.8004C16.4239 29.2505 16.804 29.6677 17.2203 30.0467C17.2551 30.0764 17.2789 30.1171 17.2879 30.1622C17.2969 30.2072 17.2906 30.254 17.27 30.2949L16.7253 31.4694C16.6068 31.7255 16.5942 32.0185 16.6903 32.2839C16.7864 32.5494 16.9833 32.7656 17.2378 32.8853L19.8981 34.1321C20.1528 34.2514 20.4442 34.2641 20.7083 34.1675C20.9723 34.071 21.1874 33.873 21.3064 33.617L21.8511 32.4426C21.869 32.4003 21.9006 32.3654 21.9407 32.3434C21.9808 32.3214 22.0271 32.3137 22.0721 32.3215C22.6282 32.3984 23.1903 32.4228 23.751 32.3946C23.7965 32.3907 23.8421 32.4023 23.8802 32.4278C23.9183 32.4532 23.9468 32.4908 23.9609 32.5346L24.3998 33.753C24.4472 33.8847 24.52 34.0057 24.6139 34.109C24.7079 34.2124 24.8213 34.296 24.9475 34.3552C25.0737 34.4143 25.2103 34.4479 25.3494 34.4538C25.4885 34.4598 25.6274 34.438 25.7582 34.3899L28.5158 33.3808C28.7797 33.2838 28.9945 33.0855 29.1132 32.8295C29.2319 32.5734 29.2448 32.2805 29.1491 32.0149L28.7082 30.7973C28.6913 30.7547 28.6891 30.7076 28.702 30.6635C28.715 30.6195 28.7423 30.5812 28.7795 30.5546C29.227 30.2136 29.6419 29.8313 30.0188 29.4128C30.0484 29.3778 30.0888 29.3539 30.1335 29.3447C30.1782 29.3356 30.2247 29.3419 30.2654 29.3626L31.4333 29.91C31.6881 30.0291 31.9795 30.0418 32.2435 29.9451C32.5075 29.8485 32.7226 29.6505 32.8417 29.3945L34.0816 26.7194C34.2001 26.4632 34.2126 26.1703 34.1165 25.9048C34.0204 25.6394 33.8235 25.4231 33.569 25.3035L32.4011 24.7561C32.3592 24.7379 32.3245 24.7061 32.3027 24.6657C32.2809 24.6254 32.2731 24.5789 32.2807 24.5336C32.3571 23.9744 32.3815 23.4094 32.3537 22.8456C32.35 22.7999 32.3617 22.7541 32.3869 22.7158C32.4122 22.6776 32.4495 22.6489 32.4929 22.6346L33.7036 22.1915C33.9675 22.0945 34.1823 21.8962 34.301 21.6401C34.4197 21.3841 34.4326 21.0912 34.3369 20.8256L33.3335 18.0526C33.237 17.7872 33.0398 17.5712 32.7852 17.4518C32.5306 17.3324 32.2392 17.3195 31.9751 17.4158L30.7644 17.8588C30.722 17.8759 30.6751 17.8781 30.6314 17.8652C30.5876 17.8522 30.5494 17.8248 30.523 17.7873C30.1838 17.3374 29.8037 16.9201 29.3875 16.5411C29.3528 16.5113 29.329 16.4706 29.32 16.4256C29.311 16.3806 29.3173 16.3338 29.3379 16.2929L29.8823 15.1184C30.0006 14.8622 30.0131 14.5693 29.9171 14.3039C29.821 14.0385 29.6241 13.8222 29.3697 13.7025L26.7094 12.4557C26.4546 12.3369 26.1635 12.3245 25.8997 12.4212C25.6358 12.518 25.4209 12.716 25.302 12.9718L24.7577 14.1462C24.7397 14.1884 24.7082 14.2233 24.6681 14.2453C24.628 14.2672 24.5817 14.275 24.5367 14.2673C23.9806 14.1906 23.4185 14.1661 22.8578 14.1942C22.8123 14.1978 22.7669 14.186 22.7289 14.1606C22.6908 14.1353 22.6623 14.0978 22.6479 14.0542L22.208 12.8367C22.1118 12.5713 21.9147 12.3551 21.66 12.2357C21.4054 12.1163 21.1141 12.1034 20.85 12.1999H20.8493ZM21.4109 13.1284L21.8511 14.3455C21.9278 14.5602 22.0713 14.7442 22.2603 14.8702C22.4492 14.9963 22.6736 15.0577 22.9 15.0453C23.4079 15.0196 23.9171 15.0414 24.4209 15.1106C24.6453 15.1425 24.874 15.1008 25.0731 14.9918C25.2721 14.8827 25.4309 14.712 25.5259 14.5051L26.0703 13.3306C26.0943 13.2796 26.1373 13.2401 26.1901 13.2207C26.2429 13.2013 26.3011 13.2037 26.3522 13.2272L29.0125 14.4741C29.0633 14.4981 29.1026 14.5413 29.1218 14.5944C29.141 14.6475 29.1386 14.706 29.115 14.7573L28.5706 15.9317C28.4742 16.1378 28.4464 16.3697 28.4912 16.593C28.5361 16.8163 28.6513 17.0191 28.8198 17.1714C29.1966 17.5147 29.5408 17.8926 29.8479 18.3002C29.9839 18.4826 30.1749 18.6161 30.3923 18.6807C30.6098 18.7454 30.8422 18.7378 31.0551 18.6591L32.2652 18.2177C32.2913 18.2081 32.3191 18.2038 32.3469 18.205C32.3747 18.2063 32.402 18.213 32.4272 18.2249C32.4524 18.2367 32.4751 18.2534 32.4939 18.2741C32.5126 18.2947 32.5272 18.3189 32.5367 18.3452L33.5405 21.1182C33.5594 21.1714 33.5567 21.2299 33.5329 21.281C33.5092 21.3322 33.4663 21.3718 33.4136 21.3913L32.2029 21.8346C31.9895 21.9118 31.8065 22.0561 31.681 22.246C31.5556 22.436 31.4945 22.6616 31.5067 22.8894C31.5323 23.4001 31.5106 23.9121 31.4418 24.4188C31.41 24.6444 31.4514 24.8744 31.5598 25.0745C31.6682 25.2747 31.8378 25.4344 32.0436 25.5299L33.2115 26.077C33.2623 26.1012 33.3016 26.1445 33.3208 26.1976C33.3399 26.2507 33.3375 26.3092 33.314 26.3605L32.0741 29.0357C32.0502 29.0869 32.0071 29.1265 31.9543 29.1458C31.9014 29.1651 31.8431 29.1626 31.7921 29.1388L30.6242 28.5913C30.4192 28.4945 30.1886 28.4666 29.9666 28.5117C29.7446 28.5568 29.5429 28.6726 29.3914 28.8419C29.0501 29.2209 28.6743 29.567 28.2689 29.8757C28.0875 30.0126 27.9548 30.2046 27.8905 30.4233C27.8263 30.6419 27.8338 30.8756 27.912 31.0897L28.3526 32.3072C28.3718 32.3603 28.3693 32.4189 28.3456 32.4702C28.3219 32.5214 28.2789 32.5611 28.2261 32.5806L25.4685 33.5896C25.4156 33.6086 25.3575 33.6059 25.3066 33.5821C25.2557 33.5583 25.2162 33.5153 25.1966 33.4624L24.756 32.2449C24.6825 32.0391 24.5475 31.8612 24.3695 31.7356C24.1914 31.61 23.9791 31.5429 23.7617 31.5434C23.7438 31.5434 23.7253 31.5434 23.7072 31.5451C23.1994 31.5709 22.6903 31.549 22.1866 31.4798C21.9622 31.4479 21.7334 31.4895 21.5344 31.5986C21.3353 31.7076 21.1766 31.8783 21.0816 32.0853L20.5372 33.2598C20.5132 33.3107 20.4701 33.3501 20.4174 33.3694C20.3648 33.3887 20.3066 33.3863 20.2556 33.3629L17.5954 32.1157C17.5701 32.1038 17.5475 32.0871 17.5287 32.0665C17.5099 32.0459 17.4953 32.0217 17.4858 31.9954C17.4762 31.9691 17.472 31.9412 17.4732 31.9133C17.4744 31.8853 17.4811 31.8579 17.4928 31.8325L18.0379 30.6538C18.1342 30.4476 18.1619 30.2157 18.117 29.9925C18.0721 29.7692 17.9569 29.5664 17.7884 29.4141C17.4117 29.0708 17.0676 28.6929 16.7606 28.2853C16.6245 28.1029 16.4336 27.9695 16.2161 27.9049C15.9987 27.8402 15.7663 27.8478 15.5534 27.9265L14.3427 28.3701C14.2898 28.3894 14.2315 28.3868 14.1805 28.3628C14.1296 28.3389 14.0901 28.2957 14.0708 28.2426L13.0674 25.4696C13.0484 25.4165 13.0511 25.358 13.0748 25.3069C13.0985 25.2557 13.1413 25.2161 13.1939 25.1965L14.4046 24.7535C14.6179 24.6762 14.8008 24.5319 14.9261 24.3419C15.0515 24.1519 15.1126 23.9264 15.1005 23.6988C15.0759 23.1887 15.0985 22.6775 15.168 22.1716C15.1998 21.946 15.1584 21.716 15.05 21.5159C14.9416 21.3158 14.772 21.1561 14.5662 21.0605L13.3983 20.5134C13.3474 20.4893 13.3081 20.446 13.2889 20.3929C13.2697 20.3398 13.2722 20.2812 13.2958 20.2299L14.5357 17.5547C14.5596 17.5035 14.6027 17.464 14.6555 17.4446C14.7083 17.4253 14.7666 17.4278 14.8176 17.4516L15.9856 17.9991C16.1906 18.096 16.4211 18.124 16.6432 18.0789C16.8652 18.0338 17.0669 17.9179 17.2184 17.7485C17.5599 17.3696 17.9358 17.0235 18.3412 16.7147C18.5226 16.5778 18.6552 16.3858 18.7195 16.1671C18.7838 15.9485 18.7763 15.7148 18.6981 15.5008L18.2552 14.2832C18.2361 14.2301 18.2387 14.1714 18.2625 14.1202C18.2863 14.0689 18.3293 14.0293 18.3821 14.0099L21.1397 13.0008C21.1926 12.9817 21.2508 12.9845 21.3017 13.0083C21.3526 13.0322 21.3921 13.0754 21.4116 13.1284H21.4109ZM9.39327 22.9602C9.38906 23.1999 9.39035 23.4378 9.39684 23.6779C9.40593 23.9428 9.42118 24.2044 9.44356 24.4684C9.46595 24.7323 9.49774 24.9946 9.53537 25.2578C9.57787 25.5466 9.62816 25.8307 9.68753 26.1165C9.74333 26.3798 9.80562 26.6385 9.87504 26.8995C9.94447 27.1605 10.0233 27.4146 10.1077 27.6694L10.5638 25.3808L11.3311 25.5355L10.4876 29.7583L7 27.2609L7.45419 26.6199L9.40074 28.0106C9.33217 27.8092 9.26729 27.6066 9.20608 27.4029C9.13374 27.1539 9.06788 26.9057 9.00721 26.6525C8.94654 26.3993 8.89626 26.1517 8.84922 25.8982C8.80217 25.6448 8.76487 25.3952 8.73145 25.1411C8.69803 24.8869 8.67338 24.6367 8.65294 24.3822C8.6325 24.1278 8.6205 23.8775 8.61433 23.6234C8.60784 23.3448 8.60849 23.0688 8.61628 22.7902C8.62471 22.5374 8.63866 22.2878 8.65845 22.0356C8.68181 21.7593 8.71166 21.4862 8.74897 21.2112C8.78401 20.962 8.82424 20.7156 8.8703 20.468C8.9274 20.1715 8.99196 19.8808 9.06496 19.5872C9.12076 19.368 9.18078 19.1517 9.24566 18.9347C9.32612 18.6698 9.41242 18.4098 9.5052 18.1495C9.59182 17.9129 9.68266 17.681 9.77966 17.4487C9.88802 17.1933 10.0016 16.9434 10.1226 16.6938C10.2436 16.4442 10.3724 16.2009 10.5073 15.9581C10.6423 15.7154 10.7854 15.4786 10.934 15.2434C11.0705 15.0293 11.211 14.8192 11.3557 14.6131C11.5179 14.3847 11.686 14.1632 11.8602 13.9436C12.0224 13.744 12.1846 13.5502 12.3536 13.3584C12.5425 13.147 12.7345 12.9427 12.934 12.7418C13.1177 12.5587 13.3036 12.3829 13.4956 12.2077C13.7094 12.0159 13.9261 11.8319 14.1497 11.6531C14.3349 11.5053 14.5218 11.3631 14.7132 11.2235L14.7349 11.2078C16.6345 9.8345 18.834 8.9395 21.1488 8.59791C21.2001 8.5893 21.2526 8.59107 21.3032 8.60311C21.3539 8.61516 21.4016 8.63724 21.4436 8.66806C21.4857 8.69888 21.5212 8.73782 21.5481 8.7826C21.575 8.82739 21.5927 8.87712 21.6003 8.92888C21.6078 8.98065 21.605 9.03341 21.5921 9.08407C21.5791 9.13474 21.5562 9.1823 21.5247 9.22396C21.4933 9.26562 21.4538 9.30056 21.4088 9.32671C21.3637 9.35287 21.3139 9.36973 21.2623 9.37631C19.0636 9.7015 16.975 10.5543 15.1732 11.8626C14.9922 11.9931 14.8163 12.1294 14.6399 12.2694C14.4471 12.4243 14.2603 12.5826 14.0754 12.747C13.8742 12.9271 13.6802 13.1107 13.4891 13.3016C13.2831 13.5091 13.0855 13.7202 12.8915 13.9394C12.7322 14.1217 12.5785 14.3061 12.4276 14.494C12.2485 14.7224 12.0782 14.9507 11.9124 15.1892C11.7758 15.3866 11.6451 15.5856 11.5179 15.7895C11.3794 16.0136 11.248 16.239 11.1208 16.47C10.9842 16.7222 10.8558 16.9753 10.7315 17.2347C10.6206 17.4729 10.5168 17.711 10.4178 17.9524C10.3117 18.218 10.2137 18.4839 10.1223 18.755C10.0249 19.0486 9.93668 19.3422 9.8572 19.6423C9.79232 19.8958 9.73165 20.1486 9.67844 20.4051C9.6168 20.7094 9.56489 21.0115 9.52175 21.3185C9.4893 21.5551 9.46367 21.7903 9.44226 22.0281C9.41793 22.3416 9.40139 22.6489 9.39327 22.9602ZM31.2815 32.4807L35.3407 31.1053L34.9326 35.3917L34.1539 35.3167L34.381 32.9273C34.1877 33.1503 33.988 33.3678 33.7818 33.5798C33.496 33.8715 33.2021 34.1484 32.8942 34.4163C32.5335 34.7278 32.1626 35.0195 31.7746 35.2971C31.3866 35.5748 30.9863 35.8286 30.572 36.0667C30.2151 36.2709 29.8531 36.4582 29.4806 36.6331C29.0735 36.822 28.6631 36.9919 28.241 37.1433C27.7813 37.3064 27.3196 37.4474 26.846 37.5674C26.4349 37.6689 26.0249 37.7524 25.607 37.8193C25.2177 37.8799 24.8323 37.9256 24.4391 37.9563C24.0592 37.985 23.6822 37.9993 23.3013 38C23.1742 38 23.047 37.9984 22.9198 37.9951C22.4873 37.9834 22.0601 37.9537 21.6302 37.9054C21.2244 37.8584 20.8253 37.7961 20.4247 37.7168C19.9607 37.6235 19.5069 37.5097 19.0536 37.373C18.7052 37.2669 18.3642 37.1492 18.0242 37.0184C17.338 36.7518 16.6724 36.4342 16.0329 36.0684C15.885 35.9831 15.7388 35.8961 15.5943 35.8074C15.2323 35.5819 14.8841 35.3441 14.5422 35.0896C14.161 34.8039 13.796 34.5024 13.4447 34.1834C13.1556 33.9198 12.8799 33.648 12.6119 33.3632C12.3199 33.0526 12.0464 32.7332 11.782 32.3995C11.7501 32.359 11.7263 32.3126 11.7122 32.263C11.6981 32.2133 11.6938 32.1613 11.6997 32.1099C11.7056 32.0586 11.7214 32.0089 11.7464 31.9638C11.7713 31.9186 11.8049 31.8788 11.8451 31.8467C11.8853 31.8146 11.9315 31.7907 11.9809 31.7765C12.0303 31.7623 12.082 31.758 12.133 31.7639C12.1841 31.7698 12.2335 31.7858 12.2784 31.8108C12.3233 31.8359 12.3629 31.8697 12.3948 31.9101L12.425 31.948C12.6661 32.2504 12.9165 32.5401 13.1806 32.8226C13.4901 33.1515 13.8106 33.4614 14.149 33.7599C14.4874 34.0584 14.8374 34.3357 15.2031 34.6003C15.5577 34.8551 15.9191 35.0896 16.2947 35.3125C16.6704 35.5353 17.0565 35.7366 17.4533 35.9212C17.8101 36.0866 18.167 36.2351 18.5346 36.3708C18.9213 36.512 19.3093 36.6347 19.7067 36.742C20.109 36.8494 20.511 36.9378 20.921 37.0095C21.3207 37.0784 21.7181 37.1293 22.1214 37.1642C22.5152 37.1968 22.9055 37.2128 23.3007 37.2138H23.3526C23.7474 37.2118 24.1374 37.1939 24.5309 37.1599C24.9341 37.1237 25.3312 37.0712 25.7313 37.0014C26.1572 36.9251 26.5748 36.8308 26.9916 36.7166C27.3719 36.6109 27.7437 36.4908 28.1145 36.3541C28.5271 36.2005 28.9281 36.0279 29.3249 35.8384C29.7217 35.6488 30.0993 35.44 30.474 35.2136C30.8487 34.9872 31.2043 34.7461 31.5553 34.4868C31.8911 34.2369 32.2126 33.9749 32.526 33.6963C32.8504 33.4066 33.1576 33.1058 33.4548 32.7877C33.5476 32.6883 33.6388 32.5875 33.7283 32.4853L31.5287 33.2298L31.2815 32.4807ZM38 23.2189C38.0016 25.083 37.6519 26.9306 36.9693 28.6638C36.9311 28.7607 36.8561 28.8384 36.7609 28.8798C36.6656 28.9211 36.558 28.9227 36.4616 28.8843C36.3652 28.8458 36.2879 28.7704 36.2468 28.6747C36.2056 28.5789 36.204 28.4707 36.2423 28.3737C36.8875 26.7328 37.2177 24.9838 37.2155 23.2192C37.2155 23.0561 37.2123 22.893 37.2071 22.7269C37.198 22.4822 37.1834 22.2402 37.1633 21.9961C37.1432 21.7521 37.115 21.5162 37.0825 21.2761C37.0452 21.0122 37.0017 20.7519 36.9511 20.4902C36.9096 20.2827 36.8645 20.0779 36.8152 19.8723C36.7584 19.644 36.6971 19.4156 36.63 19.1898C36.5628 18.9641 36.4901 18.7435 36.4123 18.5217C36.3247 18.277 36.2322 18.0376 36.1326 17.7975C36.0421 17.5831 35.948 17.3734 35.8481 17.1629C35.7365 16.9306 35.621 16.7039 35.4971 16.4778C35.3731 16.2517 35.245 16.0338 35.11 15.8152C34.9751 15.5967 34.8346 15.3869 34.6883 15.1768C34.542 14.9667 34.3905 14.7648 34.2341 14.5631C34.0777 14.3615 33.9148 14.1687 33.7474 13.9759C33.58 13.7831 33.4078 13.5994 33.2303 13.4168C33.0529 13.2341 32.8709 13.0595 32.6837 12.8866C32.5143 12.732 32.3433 12.5826 32.1675 12.4354C31.9514 12.2567 31.7331 12.0854 31.5076 11.9187C31.3013 11.768 31.094 11.6251 30.8805 11.4835C30.667 11.3419 30.4507 11.2114 30.2297 11.0829C30.0088 10.9543 29.784 10.8339 29.5556 10.7175C29.3272 10.601 29.0955 10.493 28.8603 10.3889C28.6251 10.2849 28.3863 10.1896 28.1443 10.0986C27.9253 10.0174 27.7067 9.942 27.4841 9.87023C27.2346 9.79226 26.9861 9.72147 26.7331 9.65589C26.5157 9.60141 26.2954 9.54954 26.0755 9.5055L27.8205 11.047L27.3037 11.6378L24.0874 8.79267L27.9805 7L28.3049 7.71511L26.1345 8.7147C26.237 8.7346 26.3392 8.75581 26.4414 8.77766C26.6851 8.83182 26.9248 8.89087 27.1659 8.95579C27.4312 9.02919 27.6921 9.10847 27.9536 9.19525C28.1612 9.26571 28.3653 9.33912 28.57 9.41774C28.7971 9.5068 29.0242 9.59978 29.2477 9.69928C29.4959 9.81053 29.7382 9.92765 29.9802 10.0503C30.1966 10.1622 30.4085 10.2787 30.62 10.3991C30.8315 10.5194 31.0356 10.6473 31.24 10.7785C31.4444 10.9096 31.6419 11.0463 31.8392 11.1876C32.0364 11.3288 32.2285 11.4743 32.417 11.6247C32.6055 11.7751 32.7901 11.9298 32.9721 12.0893C33.1739 12.2674 33.3688 12.4482 33.5616 12.6364C33.7338 12.806 33.9009 12.9783 34.0657 13.1554C34.2305 13.3326 34.3882 13.5143 34.5442 13.6989C34.7168 13.9058 34.8826 14.1149 35.0448 14.3302C35.1746 14.5031 35.2985 14.677 35.4208 14.8548C35.5727 15.0786 35.7177 15.3034 35.8588 15.5344C35.9847 15.7435 36.1047 15.9532 36.2215 16.1676C36.3383 16.3819 36.4486 16.5992 36.5537 16.8201C36.6708 17.067 36.7808 17.314 36.8856 17.5665C36.979 17.7949 37.0666 18.0232 37.1497 18.2561C37.2327 18.4891 37.3083 18.7243 37.38 18.9621C37.4517 19.2 37.5156 19.4404 37.5747 19.6831C37.6337 19.9258 37.6866 20.1725 37.7346 20.4181C37.7865 20.6954 37.8319 20.9708 37.8689 21.2503C37.8942 21.4461 37.9163 21.6438 37.9338 21.8415C37.9543 22.0699 37.9698 22.2966 37.9809 22.5266C37.9919 22.7566 37.9993 22.9872 38 23.2172V23.2189Z" fill="white"/>
<path fill-rule="evenodd" clip-rule="evenodd" d="M20.4292 23.7206H22.5182C22.5842 23.8436 22.678 23.9494 22.7919 24.0295C22.9059 24.1096 23.0368 24.1619 23.1744 24.1821C23.312 24.2023 23.4523 24.1899 23.5843 24.1459C23.7162 24.1019 23.8362 24.0275 23.9345 23.9286C24.0328 23.8298 24.1068 23.7092 24.1505 23.5765C24.1943 23.4438 24.2066 23.3026 24.1865 23.1643C24.1664 23.026 24.1145 22.8943 24.0348 22.7797C23.9551 22.6651 23.8499 22.5709 23.7276 22.5044V19.3099C23.7292 19.2529 23.7194 19.1962 23.6988 19.1431C23.6782 19.09 23.6472 19.0416 23.6077 19.0008C23.5682 18.9599 23.5209 18.9275 23.4687 18.9053C23.4165 18.8831 23.3604 18.8717 23.3038 18.8717C23.2471 18.8717 23.191 18.8831 23.1388 18.9053C23.0866 18.9275 23.0393 18.9599 22.9998 19.0008C22.9603 19.0416 22.9293 19.09 22.9087 19.1431C22.8881 19.1962 22.8783 19.2529 22.8799 19.3099V22.5044C22.7268 22.5878 22.6011 22.7142 22.5182 22.8682H20.4292C20.3726 22.8666 20.3162 22.8764 20.2634 22.8972C20.2106 22.9179 20.1624 22.949 20.1218 22.9887C20.0812 23.0285 20.0489 23.076 20.0269 23.1285C20.0048 23.181 19.9935 23.2374 19.9935 23.2944C19.9935 23.3514 20.0048 23.4078 20.0269 23.4603C20.0489 23.5128 20.0812 23.5603 20.1218 23.6C20.1624 23.6398 20.2106 23.6709 20.2634 23.6916C20.3162 23.7123 20.3726 23.7222 20.4292 23.7206ZM23.3036 23.3399C23.2923 23.3389 23.2817 23.3337 23.274 23.3253C23.2663 23.3169 23.262 23.3058 23.262 23.2944C23.262 23.2829 23.2663 23.2719 23.274 23.2635C23.2817 23.2551 23.2923 23.2498 23.3036 23.2489C23.3099 23.2483 23.3162 23.2491 23.3221 23.2512C23.3281 23.2532 23.3335 23.2565 23.3382 23.2608C23.3428 23.265 23.3465 23.2702 23.349 23.276C23.3515 23.2818 23.3528 23.2881 23.3528 23.2944C23.3528 23.3007 23.3515 23.307 23.349 23.3128C23.3465 23.3185 23.3428 23.3237 23.3382 23.328C23.3335 23.3323 23.3281 23.3356 23.3221 23.3376C23.3162 23.3397 23.3099 23.3404 23.3036 23.3399ZM18.7094 18.6744C18.6968 18.687 18.6851 18.7005 18.6744 18.7148C17.4766 19.9343 16.8054 21.5796 16.8064 23.2936V23.2952C16.8056 25.0091 17.4766 26.6543 18.6741 27.8739C18.6958 27.9024 18.7212 27.9279 18.7497 27.9496C19.9626 29.1541 21.5989 29.8291 23.3036 29.8281C25.0084 29.829 26.6448 29.1541 27.8579 27.9496C27.8719 27.9387 27.8854 27.9269 27.8981 27.9144C27.9105 27.9016 27.9222 27.8881 27.9331 27.8739C29.1302 26.6536 29.8013 25.0085 29.8013 23.2944C29.8013 21.5803 29.1302 19.9351 27.9331 18.7148C27.9224 18.7006 27.9108 18.6871 27.8984 18.6744C27.8856 18.6619 27.8722 18.6502 27.8582 18.6392C26.6451 17.4347 25.0087 16.7598 23.3039 16.7607C21.5991 16.7596 19.9627 17.4346 18.7497 18.6392C18.7356 18.6501 18.7221 18.6618 18.7094 18.6744ZM19.3314 19.9023C19.4117 19.9771 19.5177 20.0176 19.6271 20.0155C19.7366 20.0134 19.8409 19.9688 19.9184 19.8911C19.9959 19.8133 20.0404 19.7084 20.0427 19.5984C20.0449 19.4883 20.0048 19.3817 19.9306 19.3008L19.6214 18.9899C20.5345 18.197 21.6768 17.7203 22.8799 17.6301V18.0722C22.8783 18.1291 22.8881 18.1858 22.9087 18.2389C22.9293 18.292 22.9603 18.3404 22.9998 18.3812C23.0393 18.4221 23.0866 18.4546 23.1388 18.4767C23.191 18.4989 23.2471 18.5103 23.3038 18.5103C23.3604 18.5103 23.4165 18.4989 23.4687 18.4767C23.5209 18.4546 23.5682 18.4221 23.6077 18.3812C23.6472 18.3404 23.6782 18.292 23.6988 18.2389C23.7194 18.1858 23.7292 18.1291 23.7276 18.0722V17.6291C24.9306 17.7193 26.0728 18.196 26.9858 18.9889L26.6766 19.2998C26.6373 19.3394 26.6061 19.3864 26.5848 19.4381C26.5635 19.4898 26.5526 19.5452 26.5526 19.6012C26.5526 19.6571 26.5636 19.7126 26.5849 19.7643C26.6062 19.816 26.6374 19.8629 26.6768 19.9025C26.7162 19.9421 26.7629 19.9734 26.8143 19.9949C26.8657 20.0163 26.9209 20.0273 26.9765 20.0272C27.0322 20.0272 27.0873 20.0162 27.1387 19.9948C27.1901 19.9733 27.2368 19.9419 27.2762 19.9023L27.585 19.5918C28.3735 20.5098 28.8477 21.6584 28.9375 22.8682H28.4976C28.3872 22.8712 28.2824 22.9175 28.2054 22.9971C28.1284 23.0767 28.0853 23.1833 28.0853 23.2944C28.0853 23.4054 28.1284 23.5121 28.2054 23.5917C28.2824 23.6713 28.3872 23.7175 28.4976 23.7206H28.9375C28.8477 24.9303 28.3735 26.079 27.585 26.997L27.2762 26.6861C27.1961 26.6088 27.0891 26.5661 26.9782 26.5673C26.8672 26.5684 26.7611 26.6132 26.6826 26.6921C26.6042 26.771 26.5596 26.8777 26.5585 26.9893C26.5573 27.1009 26.5998 27.2085 26.6766 27.289L26.9858 27.5999C26.0728 28.3927 24.9306 28.8694 23.7276 28.9597V28.5173C23.7246 28.4063 23.6786 28.3008 23.5994 28.2234C23.5203 28.146 23.4142 28.1027 23.3038 28.1027C23.1933 28.1027 23.0873 28.146 23.0081 28.2234C22.9289 28.3008 22.883 28.4063 22.8799 28.5173V28.9597C21.6769 28.8693 20.5346 28.3926 19.6214 27.5999L19.9306 27.289C19.9699 27.2494 20.0012 27.2025 20.0225 27.1508C20.0438 27.0991 20.0548 27.0436 20.0548 26.9877C20.0548 26.9317 20.0438 26.8763 20.0226 26.8246C20.0013 26.7729 19.9701 26.7259 19.9307 26.6863C19.8914 26.6467 19.8447 26.6153 19.7933 26.5938C19.7418 26.5724 19.6867 26.5614 19.6311 26.5614C19.5754 26.5613 19.5203 26.5724 19.4689 26.5938C19.4174 26.6152 19.3707 26.6465 19.3314 26.6861L19.0222 26.997C18.2337 26.079 17.7595 24.9303 17.6697 23.7206H18.1096C18.1662 23.7222 18.2226 23.7123 18.2754 23.6916C18.3282 23.6709 18.3763 23.6398 18.417 23.6C18.4576 23.5603 18.4899 23.5128 18.5119 23.4603C18.534 23.4078 18.5453 23.3514 18.5453 23.2944C18.5453 23.2374 18.534 23.181 18.5119 23.1285C18.4899 23.076 18.4576 23.0285 18.417 22.9887C18.3763 22.949 18.3282 22.9179 18.2754 22.8972C18.2226 22.8764 18.1662 22.8666 18.1096 22.8682H17.6697C17.7595 21.6584 18.2337 20.5098 19.0222 19.5918L19.3314 19.9023ZM20.8493 12.1999L18.0917 13.2089C17.8279 13.3059 17.613 13.5042 17.4943 13.7603C17.3756 14.0163 17.3627 14.3093 17.4585 14.5749L17.899 15.7921C17.916 15.8348 17.9181 15.882 17.9052 15.926C17.8922 15.9701 17.8649 16.0085 17.8276 16.0351C17.3803 16.3762 16.9655 16.7584 16.5887 17.177C16.5591 17.212 16.5187 17.236 16.4739 17.2451C16.4291 17.2542 16.3826 17.2479 16.3418 17.2272L15.1739 16.6798C14.9191 16.5607 14.6277 16.5481 14.3637 16.6448C14.0997 16.7414 13.8846 16.9393 13.7655 17.1952L12.5256 19.8704C12.4072 20.1266 12.3947 20.4195 12.4908 20.685C12.5869 20.9505 12.7837 21.1668 13.0382 21.2866L14.2061 21.8337C14.248 21.8519 14.2827 21.8837 14.3045 21.924C14.3263 21.9643 14.334 22.0109 14.3265 22.0562C14.2501 22.6154 14.2257 23.1806 14.2535 23.7444C14.2573 23.7902 14.2456 23.8359 14.2203 23.8741C14.1951 23.9124 14.1577 23.9409 14.1143 23.9552L12.9039 24.3985C12.64 24.4954 12.425 24.6936 12.3063 24.9496C12.1875 25.2056 12.1745 25.4986 12.2703 25.7642L13.274 28.5372C13.3703 28.8026 13.5674 29.0188 13.822 29.1382C14.0766 29.2576 14.368 29.2705 14.6321 29.174L15.8431 28.729C15.8856 28.7119 15.9325 28.7097 15.9763 28.7227C16.0201 28.7356 16.0584 28.763 16.0848 28.8004C16.4239 29.2505 16.804 29.6677 17.2203 30.0467C17.2551 30.0764 17.2789 30.1171 17.2879 30.1622C17.2969 30.2072 17.2906 30.254 17.27 30.2949L16.7253 31.4694C16.6068 31.7255 16.5942 32.0185 16.6903 32.2839C16.7864 32.5494 16.9833 32.7656 17.2378 32.8853L19.8981 34.1321C20.1528 34.2514 20.4442 34.2641 20.7083 34.1675C20.9723 34.071 21.1874 33.873 21.3064 33.617L21.8511 32.4426C21.869 32.4003 21.9006 32.3654 21.9407 32.3434C21.9808 32.3214 22.0271 32.3137 22.0721 32.3215C22.6282 32.3984 23.1903 32.4228 23.751 32.3946C23.7965 32.3907 23.8421 32.4023 23.8802 32.4278C23.9183 32.4532 23.9468 32.4908 23.9609 32.5346L24.3998 33.753C24.4472 33.8847 24.52 34.0057 24.6139 34.109C24.7079 34.2124 24.8213 34.296 24.9475 34.3552C25.0737 34.4143 25.2103 34.4479 25.3494 34.4538C25.4885 34.4598 25.6274 34.438 25.7582 34.3899L28.5158 33.3808C28.7797 33.2838 28.9945 33.0855 29.1132 32.8295C29.2319 32.5734 29.2448 32.2805 29.1491 32.0149L28.7082 30.7973C28.6913 30.7547 28.6891 30.7076 28.702 30.6635C28.715 30.6195 28.7423 30.5812 28.7795 30.5546C29.227 30.2136 29.6419 29.8313 30.0188 29.4128C30.0484 29.3778 30.0888 29.3539 30.1335 29.3447C30.1782 29.3356 30.2247 29.3419 30.2654 29.3626L31.4333 29.91C31.6881 30.0291 31.9795 30.0418 32.2435 29.9451C32.5075 29.8485 32.7226 29.6505 32.8417 29.3945L34.0816 26.7194C34.2001 26.4632 34.2126 26.1703 34.1165 25.9048C34.0204 25.6394 33.8235 25.4231 33.569 25.3035L32.4011 24.7561C32.3592 24.7379 32.3245 24.7061 32.3027 24.6657C32.2809 24.6254 32.2731 24.5789 32.2807 24.5336C32.3571 23.9744 32.3815 23.4094 32.3537 22.8456C32.35 22.7999 32.3617 22.7541 32.3869 22.7158C32.4122 22.6776 32.4495 22.6489 32.4929 22.6346L33.7036 22.1915C33.9675 22.0945 34.1823 21.8962 34.301 21.6401C34.4197 21.3841 34.4326 21.0912 34.3369 20.8256L33.3335 18.0526C33.237 17.7872 33.0398 17.5712 32.7852 17.4518C32.5306 17.3324 32.2392 17.3195 31.9751 17.4158L30.7644 17.8588C30.722 17.8759 30.6751 17.8781 30.6314 17.8652C30.5876 17.8522 30.5494 17.8248 30.523 17.7873C30.1838 17.3374 29.8037 16.9201 29.3875 16.5411C29.3528 16.5113 29.329 16.4706 29.32 16.4256C29.311 16.3806 29.3173 16.3338 29.3379 16.2929L29.8823 15.1184C30.0006 14.8622 30.0131 14.5693 29.9171 14.3039C29.821 14.0385 29.6241 13.8222 29.3697 13.7025L26.7094 12.4557C26.4546 12.3369 26.1635 12.3245 25.8997 12.4212C25.6358 12.518 25.4209 12.716 25.302 12.9718L24.7577 14.1462C24.7397 14.1884 24.7082 14.2233 24.6681 14.2453C24.628 14.2672 24.5817 14.275 24.5367 14.2673C23.9806 14.1906 23.4185 14.1661 22.8578 14.1942C22.8123 14.1978 22.7669 14.186 22.7289 14.1606C22.6908 14.1353 22.6623 14.0978 22.6479 14.0542L22.208 12.8367C22.1118 12.5713 21.9147 12.3551 21.66 12.2357C21.4054 12.1163 21.1141 12.1034 20.85 12.1999H20.8493ZM21.4109 13.1284L21.8511 14.3455C21.9278 14.5602 22.0713 14.7442 22.2603 14.8702C22.4492 14.9963 22.6736 15.0577 22.9 15.0453C23.4079 15.0196 23.9171 15.0414 24.4209 15.1106C24.6453 15.1425 24.874 15.1008 25.0731 14.9918C25.2721 14.8827 25.4309 14.712 25.5259 14.5051L26.0703 13.3306C26.0943 13.2796 26.1373 13.2401 26.1901 13.2207C26.2429 13.2013 26.3011 13.2037 26.3522 13.2272L29.0125 14.4741C29.0633 14.4981 29.1026 14.5413 29.1218 14.5944C29.141 14.6475 29.1386 14.706 29.115 14.7573L28.5706 15.9317C28.4742 16.1378 28.4464 16.3697 28.4912 16.593C28.5361 16.8163 28.6513 17.0191 28.8198 17.1714C29.1966 17.5147 29.5408 17.8926 29.8479 18.3002C29.9839 18.4826 30.1749 18.6161 30.3923 18.6807C30.6098 18.7454 30.8422 18.7378 31.0551 18.6591L32.2652 18.2177C32.2913 18.2081 32.3191 18.2038 32.3469 18.205C32.3747 18.2063 32.402 18.213 32.4272 18.2249C32.4524 18.2367 32.4751 18.2534 32.4939 18.2741C32.5126 18.2947 32.5272 18.3189 32.5367 18.3452L33.5405 21.1182C33.5594 21.1714 33.5567 21.2299 33.5329 21.281C33.5092 21.3322 33.4663 21.3718 33.4136 21.3913L32.2029 21.8346C31.9895 21.9118 31.8065 22.0561 31.681 22.246C31.5556 22.436 31.4945 22.6616 31.5067 22.8894C31.5323 23.4001 31.5106 23.9121 31.4418 24.4188C31.41 24.6444 31.4514 24.8744 31.5598 25.0745C31.6682 25.2747 31.8378 25.4344 32.0436 25.5299L33.2115 26.077C33.2623 26.1012 33.3016 26.1445 33.3208 26.1976C33.3399 26.2507 33.3375 26.3092 33.314 26.3605L32.0741 29.0357C32.0502 29.0869 32.0071 29.1265 31.9543 29.1458C31.9014 29.1651 31.8431 29.1626 31.7921 29.1388L30.6242 28.5913C30.4192 28.4945 30.1886 28.4666 29.9666 28.5117C29.7446 28.5568 29.5429 28.6726 29.3914 28.8419C29.0501 29.2209 28.6743 29.567 28.2689 29.8757C28.0875 30.0126 27.9548 30.2046 27.8905 30.4233C27.8263 30.6419 27.8338 30.8756 27.912 31.0897L28.3526 32.3072C28.3718 32.3603 28.3693 32.4189 28.3456 32.4702C28.3219 32.5214 28.2789 32.5611 28.2261 32.5806L25.4685 33.5896C25.4156 33.6086 25.3575 33.6059 25.3066 33.5821C25.2557 33.5583 25.2162 33.5153 25.1966 33.4624L24.756 32.2449C24.6825 32.0391 24.5475 31.8612 24.3695 31.7356C24.1914 31.61 23.9791 31.5429 23.7617 31.5434C23.7438 31.5434 23.7253 31.5434 23.7072 31.5451C23.1994 31.5709 22.6903 31.549 22.1866 31.4798C21.9622 31.4479 21.7334 31.4895 21.5344 31.5986C21.3353 31.7076 21.1766 31.8783 21.0816 32.0853L20.5372 33.2598C20.5132 33.3107 20.4701 33.3501 20.4174 33.3694C20.3648 33.3887 20.3066 33.3863 20.2556 33.3629L17.5954 32.1157C17.5701 32.1038 17.5475 32.0871 17.5287 32.0665C17.5099 32.0459 17.4953 32.0217 17.4858 31.9954C17.4762 31.9691 17.472 31.9412 17.4732 31.9133C17.4744 31.8853 17.4811 31.8579 17.4928 31.8325L18.0379 30.6538C18.1342 30.4476 18.1619 30.2157 18.117 29.9925C18.0721 29.7692 17.9569 29.5664 17.7884 29.4141C17.4117 29.0708 17.0676 28.6929 16.7606 28.2853C16.6245 28.1029 16.4336 27.9695 16.2161 27.9049C15.9987 27.8402 15.7663 27.8478 15.5534 27.9265L14.3427 28.3701C14.2898 28.3894 14.2315 28.3868 14.1805 28.3628C14.1296 28.3389 14.0901 28.2957 14.0708 28.2426L13.0674 25.4696C13.0484 25.4165 13.0511 25.358 13.0748 25.3069C13.0985 25.2557 13.1413 25.2161 13.1939 25.1965L14.4046 24.7535C14.6179 24.6762 14.8008 24.5319 14.9261 24.3419C15.0515 24.1519 15.1126 23.9264 15.1005 23.6988C15.0759 23.1887 15.0985 22.6775 15.168 22.1716C15.1998 21.946 15.1584 21.716 15.05 21.5159C14.9416 21.3158 14.772 21.1561 14.5662 21.0605L13.3983 20.5134C13.3474 20.4893 13.3081 20.446 13.2889 20.3929C13.2697 20.3398 13.2722 20.2812 13.2958 20.2299L14.5357 17.5547C14.5596 17.5035 14.6027 17.464 14.6555 17.4446C14.7083 17.4253 14.7666 17.4278 14.8176 17.4516L15.9856 17.9991C16.1906 18.096 16.4211 18.124 16.6432 18.0789C16.8652 18.0338 17.0669 17.9179 17.2184 17.7485C17.5599 17.3696 17.9358 17.0235 18.3412 16.7147C18.5226 16.5778 18.6552 16.3858 18.7195 16.1671C18.7838 15.9485 18.7763 15.7148 18.6981 15.5008L18.2552 14.2832C18.2361 14.2301 18.2387 14.1714 18.2625 14.1202C18.2863 14.0689 18.3293 14.0293 18.3821 14.0099L21.1397 13.0008C21.1926 12.9817 21.2508 12.9845 21.3017 13.0083C21.3526 13.0322 21.3921 13.0754 21.4116 13.1284H21.4109ZM9.39327 22.9602C9.38906 23.1999 9.39035 23.4378 9.39684 23.6779C9.40593 23.9428 9.42118 24.2044 9.44356 24.4684C9.46595 24.7323 9.49774 24.9946 9.53537 25.2578C9.57787 25.5466 9.62816 25.8307 9.68753 26.1165C9.74333 26.3798 9.80562 26.6385 9.87504 26.8995C9.94447 27.1605 10.0233 27.4146 10.1077 27.6694L10.5638 25.3808L11.3311 25.5355L10.4876 29.7583L7 27.2609L7.45419 26.6199L9.40074 28.0106C9.33217 27.8092 9.26729 27.6066 9.20608 27.4029C9.13374 27.1539 9.06788 26.9057 9.00721 26.6525C8.94654 26.3993 8.89626 26.1517 8.84922 25.8982C8.80217 25.6448 8.76487 25.3952 8.73145 25.1411C8.69803 24.8869 8.67338 24.6367 8.65294 24.3822C8.6325 24.1278 8.6205 23.8775 8.61433 23.6234C8.60784 23.3448 8.60849 23.0688 8.61628 22.7902C8.62471 22.5374 8.63866 22.2878 8.65845 22.0356C8.68181 21.7593 8.71166 21.4862 8.74897 21.2112C8.78401 20.962 8.82424 20.7156 8.8703 20.468C8.9274 20.1715 8.99196 19.8808 9.06496 19.5872C9.12076 19.368 9.18078 19.1517 9.24566 18.9347C9.32612 18.6698 9.41242 18.4098 9.5052 18.1495C9.59182 17.9129 9.68266 17.681 9.77966 17.4487C9.88802 17.1933 10.0016 16.9434 10.1226 16.6938C10.2436 16.4442 10.3724 16.2009 10.5073 15.9581C10.6423 15.7154 10.7854 15.4786 10.934 15.2434C11.0705 15.0293 11.211 14.8192 11.3557 14.6131C11.5179 14.3847 11.686 14.1632 11.8602 13.9436C12.0224 13.744 12.1846 13.5502 12.3536 13.3584C12.5425 13.147 12.7345 12.9427 12.934 12.7418C13.1177 12.5587 13.3036 12.3829 13.4956 12.2077C13.7094 12.0159 13.9261 11.8319 14.1497 11.6531C14.3349 11.5053 14.5218 11.3631 14.7132 11.2235L14.7349 11.2078C16.6345 9.8345 18.834 8.9395 21.1488 8.59791C21.2001 8.5893 21.2526 8.59107 21.3032 8.60311C21.3539 8.61516 21.4016 8.63724 21.4436 8.66806C21.4857 8.69888 21.5212 8.73782 21.5481 8.7826C21.575 8.82739 21.5927 8.87712 21.6003 8.92888C21.6078 8.98065 21.605 9.03341 21.5921 9.08407C21.5791 9.13474 21.5562 9.1823 21.5247 9.22396C21.4933 9.26562 21.4538 9.30056 21.4088 9.32671C21.3637 9.35287 21.3139 9.36973 21.2623 9.37631C19.0636 9.7015 16.975 10.5543 15.1732 11.8626C14.9922 11.9931 14.8163 12.1294 14.6399 12.2694C14.4471 12.4243 14.2603 12.5826 14.0754 12.747C13.8742 12.9271 13.6802 13.1107 13.4891 13.3016C13.2831 13.5091 13.0855 13.7202 12.8915 13.9394C12.7322 14.1217 12.5785 14.3061 12.4276 14.494C12.2485 14.7224 12.0782 14.9507 11.9124 15.1892C11.7758 15.3866 11.6451 15.5856 11.5179 15.7895C11.3794 16.0136 11.248 16.239 11.1208 16.47C10.9842 16.7222 10.8558 16.9753 10.7315 17.2347C10.6206 17.4729 10.5168 17.711 10.4178 17.9524C10.3117 18.218 10.2137 18.4839 10.1223 18.755C10.0249 19.0486 9.93668 19.3422 9.8572 19.6423C9.79232 19.8958 9.73165 20.1486 9.67844 20.4051C9.6168 20.7094 9.56489 21.0115 9.52175 21.3185C9.4893 21.5551 9.46367 21.7903 9.44226 22.0281C9.41793 22.3416 9.40139 22.6489 9.39327 22.9602ZM31.2815 32.4807L35.3407 31.1053L34.9326 35.3917L34.1539 35.3167L34.381 32.9273C34.1877 33.1503 33.988 33.3678 33.7818 33.5798C33.496 33.8715 33.2021 34.1484 32.8942 34.4163C32.5335 34.7278 32.1626 35.0195 31.7746 35.2971C31.3866 35.5748 30.9863 35.8286 30.572 36.0667C30.2151 36.2709 29.8531 36.4582 29.4806 36.6331C29.0735 36.822 28.6631 36.9919 28.241 37.1433C27.7813 37.3064 27.3196 37.4474 26.846 37.5674C26.4349 37.6689 26.0249 37.7524 25.607 37.8193C25.2177 37.8799 24.8323 37.9256 24.4391 37.9563C24.0592 37.985 23.6822 37.9993 23.3013 38C23.1742 38 23.047 37.9984 22.9198 37.9951C22.4873 37.9834 22.0601 37.9537 21.6302 37.9054C21.2244 37.8584 20.8253 37.7961 20.4247 37.7168C19.9607 37.6235 19.5069 37.5097 19.0536 37.373C18.7052 37.2669 18.3642 37.1492 18.0242 37.0184C17.338 36.7518 16.6724 36.4342 16.0329 36.0684C15.885 35.9831 15.7388 35.8961 15.5943 35.8074C15.2323 35.5819 14.8841 35.3441 14.5422 35.0896C14.161 34.8039 13.796 34.5024 13.4447 34.1834C13.1556 33.9198 12.8799 33.648 12.6119 33.3632C12.3199 33.0526 12.0464 32.7332 11.782 32.3995C11.7501 32.359 11.7263 32.3126 11.7122 32.263C11.6981 32.2133 11.6938 32.1613 11.6997 32.1099C11.7056 32.0586 11.7214 32.0089 11.7464 31.9638C11.7713 31.9186 11.8049 31.8788 11.8451 31.8467C11.8853 31.8146 11.9315 31.7907 11.9809 31.7765C12.0303 31.7623 12.082 31.758 12.133 31.7639C12.1841 31.7698 12.2335 31.7858 12.2784 31.8108C12.3233 31.8359 12.3629 31.8697 12.3948 31.9101L12.425 31.948C12.6661 32.2504 12.9165 32.5401 13.1806 32.8226C13.4901 33.1515 13.8106 33.4614 14.149 33.7599C14.4874 34.0584 14.8374 34.3357 15.2031 34.6003C15.5577 34.8551 15.9191 35.0896 16.2947 35.3125C16.6704 35.5353 17.0565 35.7366 17.4533 35.9212C17.8101 36.0866 18.167 36.2351 18.5346 36.3708C18.9213 36.512 19.3093 36.6347 19.7067 36.742C20.109 36.8494 20.511 36.9378 20.921 37.0095C21.3207 37.0784 21.7181 37.1293 22.1214 37.1642C22.5152 37.1968 22.9055 37.2128 23.3007 37.2138H23.3526C23.7474 37.2118 24.1374 37.1939 24.5309 37.1599C24.9341 37.1237 25.3312 37.0712 25.7313 37.0014C26.1572 36.9251 26.5748 36.8308 26.9916 36.7166C27.3719 36.6109 27.7437 36.4908 28.1145 36.3541C28.5271 36.2005 28.9281 36.0279 29.3249 35.8384C29.7217 35.6488 30.0993 35.44 30.474 35.2136C30.8487 34.9872 31.2043 34.7461 31.5553 34.4868C31.8911 34.2369 32.2126 33.9749 32.526 33.6963C32.8504 33.4066 33.1576 33.1058 33.4548 32.7877C33.5476 32.6883 33.6388 32.5875 33.7283 32.4853L31.5287 33.2298L31.2815 32.4807ZM38 23.2189C38.0016 25.083 37.6519 26.9306 36.9693 28.6638C36.9311 28.7607 36.8561 28.8384 36.7609 28.8798C36.6656 28.9211 36.558 28.9227 36.4616 28.8843C36.3652 28.8458 36.2879 28.7704 36.2468 28.6747C36.2056 28.5789 36.204 28.4707 36.2423 28.3737C36.8875 26.7328 37.2177 24.9838 37.2155 23.2192C37.2155 23.0561 37.2123 22.893 37.2071 22.7269C37.198 22.4822 37.1834 22.2402 37.1633 21.9961C37.1432 21.7521 37.115 21.5162 37.0825 21.2761C37.0452 21.0122 37.0017 20.7519 36.9511 20.4902C36.9096 20.2827 36.8645 20.0779 36.8152 19.8723C36.7584 19.644 36.6971 19.4156 36.63 19.1898C36.5628 18.9641 36.4901 18.7435 36.4123 18.5217C36.3247 18.277 36.2322 18.0376 36.1326 17.7975C36.0421 17.5831 35.948 17.3734 35.8481 17.1629C35.7365 16.9306 35.621 16.7039 35.4971 16.4778C35.3731 16.2517 35.245 16.0338 35.11 15.8152C34.9751 15.5967 34.8346 15.3869 34.6883 15.1768C34.542 14.9667 34.3905 14.7648 34.2341 14.5631C34.0777 14.3615 33.9148 14.1687 33.7474 13.9759C33.58 13.7831 33.4078 13.5994 33.2303 13.4168C33.0529 13.2341 32.8709 13.0595 32.6837 12.8866C32.5143 12.732 32.3433 12.5826 32.1675 12.4354C31.9514 12.2567 31.7331 12.0854 31.5076 11.9187C31.3013 11.768 31.094 11.6251 30.8805 11.4835C30.667 11.3419 30.4507 11.2114 30.2297 11.0829C30.0088 10.9543 29.784 10.8339 29.5556 10.7175C29.3272 10.601 29.0955 10.493 28.8603 10.3889C28.6251 10.2849 28.3863 10.1896 28.1443 10.0986C27.9253 10.0174 27.7067 9.942 27.4841 9.87023C27.2346 9.79226 26.9861 9.72147 26.7331 9.65589C26.5157 9.60141 26.2954 9.54954 26.0755 9.5055L27.8205 11.047L27.3037 11.6378L24.0874 8.79267L27.9805 7L28.3049 7.71511L26.1345 8.7147C26.237 8.7346 26.3392 8.75581 26.4414 8.77766C26.6851 8.83182 26.9248 8.89087 27.1659 8.95579C27.4312 9.02919 27.6921 9.10847 27.9536 9.19525C28.1612 9.26571 28.3653 9.33912 28.57 9.41774C28.7971 9.5068 29.0242 9.59978 29.2477 9.69928C29.4959 9.81053 29.7382 9.92765 29.9802 10.0503C30.1966 10.1622 30.4085 10.2787 30.62 10.3991C30.8315 10.5194 31.0356 10.6473 31.24 10.7785C31.4444 10.9096 31.6419 11.0463 31.8392 11.1876C32.0364 11.3288 32.2285 11.4743 32.417 11.6247C32.6055 11.7751 32.7901 11.9298 32.9721 12.0893C33.1739 12.2674 33.3688 12.4482 33.5616 12.6364C33.7338 12.806 33.9009 12.9783 34.0657 13.1554C34.2305 13.3326 34.3882 13.5143 34.5442 13.6989C34.7168 13.9058 34.8826 14.1149 35.0448 14.3302C35.1746 14.5031 35.2985 14.677 35.4208 14.8548C35.5727 15.0786 35.7177 15.3034 35.8588 15.5344C35.9847 15.7435 36.1047 15.9532 36.2215 16.1676C36.3383 16.3819 36.4486 16.5992 36.5537 16.8201C36.6708 17.067 36.7808 17.314 36.8856 17.5665C36.979 17.7949 37.0666 18.0232 37.1497 18.2561C37.2327 18.4891 37.3083 18.7243 37.38 18.9621C37.4517 19.2 37.5156 19.4404 37.5747 19.6831C37.6337 19.9258 37.6866 20.1725 37.7346 20.4181C37.7865 20.6954 37.8319 20.9708 37.8689 21.2503C37.8942 21.4461 37.9163 21.6438 37.9338 21.8415C37.9543 22.0699 37.9698 22.2966 37.9809 22.5266C37.9919 22.7566 37.9993 22.9872 38 23.2172V23.2189Z" stroke="white" stroke-width="0.4" mask="url(#path-2-outside-1_646_717)"/>
</svg>
