<svg width="46" height="46" viewBox="0 0 46 46" fill="none" xmlns="http://www.w3.org/2000/svg">
<circle cx="23" cy="23" r="23" fill="#9B7747"/>
<path fill-rule="evenodd" clip-rule="evenodd" d="M22.4517 12.5494C22.45 12.4957 22.4592 12.4422 22.4789 12.3922C22.4985 12.3421 22.5281 12.2964 22.5659 12.2578C22.6037 12.2193 22.649 12.1886 22.6991 12.1677C22.7491 12.1467 22.8029 12.1359 22.8573 12.1359C22.9116 12.1359 22.9654 12.1467 23.0155 12.1677C23.0655 12.1886 23.1108 12.2193 23.1486 12.2578C23.1864 12.2964 23.216 12.3421 23.2357 12.3922C23.2553 12.4422 23.2645 12.4957 23.2628 12.5494V12.8877C23.5973 12.9764 23.8928 13.1715 24.1037 13.4429C24.3146 13.7142 24.429 14.0468 24.4294 14.3889C24.431 14.4426 24.4218 14.4961 24.4022 14.5462C24.3826 14.5962 24.353 14.6419 24.3151 14.6805C24.2773 14.719 24.232 14.7497 24.182 14.7706C24.1319 14.7916 24.0781 14.8024 24.0238 14.8024C23.9694 14.8024 23.9156 14.7916 23.8656 14.7706C23.8155 14.7497 23.7703 14.719 23.7324 14.6805C23.6946 14.6419 23.665 14.5962 23.6454 14.5462C23.6258 14.4961 23.6165 14.4426 23.6182 14.3889C23.6182 14.2402 23.5736 14.0949 23.49 13.9713C23.4064 13.8476 23.2876 13.7513 23.1486 13.6944C23.0096 13.6375 22.8566 13.6226 22.709 13.6516C22.5615 13.6806 22.4259 13.7522 22.3195 13.8574C22.2131 13.9625 22.1407 14.0964 22.1113 14.2423C22.082 14.3881 22.097 14.5392 22.1546 14.6766C22.2122 14.814 22.3097 14.9314 22.4348 15.014C22.5599 15.0966 22.707 15.1407 22.8575 15.1407C23.237 15.1441 23.6026 15.283 23.8867 15.5316C24.1709 15.7803 24.3546 16.1221 24.4039 16.494C24.4533 16.8659 24.365 17.2429 24.1553 17.5556C23.9456 17.8682 23.6287 18.0955 23.2628 18.1955V18.5339C23.2595 18.638 23.2154 18.7368 23.1397 18.8093C23.064 18.8818 22.9627 18.9224 22.8573 18.9224C22.7518 18.9224 22.6505 18.8818 22.5748 18.8093C22.4991 18.7368 22.455 18.638 22.4517 18.5339V18.1955C22.1172 18.1069 21.8217 17.9118 21.6108 17.6404C21.3999 17.369 21.2855 17.0365 21.2852 16.6944C21.2852 16.588 21.3279 16.486 21.404 16.4108C21.4801 16.3356 21.5833 16.2934 21.6909 16.2934C21.7985 16.2934 21.9018 16.3356 21.9778 16.4108C22.0539 16.486 22.0967 16.588 22.0967 16.6944C22.0968 16.843 22.1415 16.9883 22.2251 17.1119C22.3087 17.2355 22.4276 17.3318 22.5666 17.3886C22.7056 17.4455 22.8586 17.4603 23.0061 17.4312C23.1537 17.4022 23.2892 17.3306 23.3955 17.2254C23.5019 17.1203 23.5743 16.9863 23.6036 16.8405C23.6329 16.6947 23.6179 16.5435 23.5603 16.4062C23.5027 16.2689 23.4052 16.1515 23.2801 16.0689C23.155 15.9863 23.0079 15.9422 22.8575 15.9422C22.4761 15.942 22.1078 15.8048 21.8212 15.5561C21.5346 15.3075 21.3492 14.9644 21.2995 14.5908C21.2499 14.2171 21.3394 13.8383 21.5513 13.525C21.7633 13.2117 22.0833 12.9852 22.4517 12.8877V12.5494ZM25.8194 12.6143C25.2335 12.0355 24.4871 11.6413 23.6745 11.4816C22.8619 11.3219 22.0197 11.404 21.2543 11.7173C20.4888 12.0306 19.8346 12.5612 19.3743 13.2419C18.9141 13.9226 18.6684 14.7229 18.6684 15.5416C18.6684 16.3603 18.9141 17.1606 19.3743 17.8414C19.8346 18.5221 20.4888 19.0527 21.2543 19.366C22.0197 19.6793 22.8619 19.7613 23.6745 19.6017C24.4871 19.442 25.2335 19.0478 25.8194 18.4689C26.6051 17.6926 27.0464 16.6396 27.0464 15.5416C27.0464 14.4437 26.6051 13.3907 25.8194 12.6143ZM22.8575 10.6006C21.869 10.601 20.9028 10.891 20.0811 11.4339C19.2594 11.9769 18.6191 12.7484 18.2411 13.6509C17.8631 14.5535 17.7644 15.5465 17.9574 16.5045C18.1505 17.4624 18.6267 18.3423 19.3258 19.0329C20.0249 19.7234 20.9155 20.1936 21.885 20.384C22.8545 20.5745 23.8594 20.4765 24.7726 20.1027C25.6858 19.7288 26.4663 19.0957 27.0155 18.2835C27.5646 17.4713 27.8577 16.5165 27.8577 15.5397C27.8577 14.8909 27.7283 14.2485 27.477 13.6491C27.2257 13.0498 26.8574 12.5052 26.393 12.0465C25.9287 11.5879 25.3775 11.2241 24.7708 10.976C24.1642 10.7279 23.514 10.6003 22.8575 10.6006ZM8.53172 30.1746L13.7893 35.3704C14.1058 34.9464 14.5252 34.6078 15.0088 34.3861C15.4925 34.1643 16.0249 34.0664 16.5569 34.1014H25.9017C28.8239 33.8572 30.7248 31.2371 33.1208 27.9337C33.5998 27.2726 34.0984 26.5862 34.6341 25.8776C35.3153 24.9586 35.4212 24.3134 34.6734 23.5737C34.3694 23.2756 33.9585 23.1083 33.5301 23.1083C33.1018 23.1083 32.6908 23.2756 32.3868 23.5737L27.9553 27.9505C28.0424 28.3037 28.0472 28.6719 27.9695 29.0273C27.8918 29.3826 27.7335 29.716 27.5066 30.0021C27.2796 30.2883 26.9899 30.5199 26.6593 30.6794C26.3287 30.839 25.9658 30.9224 25.5978 30.9233H20.7783C20.7239 30.9249 20.6698 30.9158 20.6191 30.8964C20.5685 30.877 20.5222 30.8478 20.4832 30.8104C20.4442 30.773 20.4132 30.7283 20.392 30.6788C20.3708 30.6294 20.3599 30.5762 20.3599 30.5225C20.3599 30.4688 20.3708 30.4156 20.392 30.3662C20.4132 30.3167 20.4442 30.272 20.4832 30.2346C20.5222 30.1972 20.5685 30.168 20.6191 30.1486C20.6698 30.1292 20.7239 30.1201 20.7783 30.1217H25.5978C26.0223 30.1152 26.4272 29.944 26.725 29.645C27.0228 29.3461 27.1898 28.9434 27.1898 28.5239C27.1898 28.1044 27.0228 27.7017 26.725 27.4028C26.4272 27.1039 26.0223 26.9326 25.5978 26.9261H18.0005C17.9538 26.9262 17.9075 26.9183 17.8635 26.9028C15.5436 26.3171 13.5973 26.3187 12.0246 26.9078C10.4823 27.5175 9.23365 28.686 8.53369 30.1746H8.53172ZM13.2926 38.8828L5.11864 30.8044C5.04267 30.7292 5 30.6273 5 30.5211C5 30.4148 5.04267 30.3129 5.11864 30.2378L5.30961 30.0712C5.64151 29.7449 6.06955 29.5309 6.53223 29.46C6.99491 29.3892 7.46841 29.4651 7.8847 29.6768C8.68018 28.0687 10.0562 26.8132 11.7416 26.1576C13.467 25.5115 15.5685 25.5 18.0461 26.123H25.5978C25.9922 26.1235 26.3805 26.2189 26.7291 26.4009C27.0778 26.5829 27.3764 26.846 27.5991 27.1676L31.8122 23.0059C32.2682 22.5574 32.8855 22.3055 33.5289 22.3055C34.1724 22.3055 34.7896 22.5574 35.2457 23.0059C36.2815 24.0295 36.2087 25.1379 35.2831 26.3548C34.7584 27.0494 34.2586 27.7377 33.78 28.3989C31.2573 31.8765 29.2568 34.6338 25.9481 34.8998C25.9376 34.8998 25.927 34.8998 25.9162 34.8998H16.5589C15.5927 34.8998 14.8665 35.1791 14.3458 35.9845C14.6208 36.404 14.7421 36.9038 14.6896 37.4009C14.637 37.898 14.4138 38.3623 14.057 38.7166L13.8648 38.8828C13.7887 38.9578 13.6856 39 13.5781 39C13.4706 39 13.3675 38.9578 13.2914 38.8828H13.2926ZM5.97897 30.5213L5.88264 30.6394C6.14507 30.382 6.4998 30.2376 6.8695 30.2376C7.23921 30.2376 7.59393 30.382 7.85636 30.6394C8.73047 31.5031 13.1919 35.9312 13.6394 36.3835C13.8252 36.6501 13.9111 36.9723 13.8824 37.2947C13.8537 37.6171 13.7121 37.9196 13.482 38.1499L13.5779 38.0314L5.97897 30.5213ZM16.3058 9.63454C16.2568 9.69163 16.1926 9.73399 16.1204 9.75682C16.0483 9.77964 15.9711 9.78201 15.8977 9.76366C15.6244 9.63158 15.3582 9.48554 15.1003 9.32614L15.4018 12.6404L18.4582 11.2403C18.283 11.151 18.1148 11.0489 17.9548 10.935C17.8809 10.8582 17.8409 10.7556 17.8435 10.6496C17.8462 10.5436 17.8913 10.4431 17.969 10.37C18.9386 9.46321 20.1446 8.84126 21.4518 8.57385C22.759 8.30643 24.1158 8.40412 25.37 8.85595L24.8977 7.84285C24.8709 7.78465 24.8586 7.72096 24.8619 7.65711C24.8651 7.59326 24.8837 7.53109 24.9161 7.47579C24.9486 7.42049 24.994 7.37366 25.0485 7.33922C25.103 7.30477 25.165 7.28371 25.2295 7.27777L25.6514 7.23888C24.0256 6.71037 22.2803 6.65498 20.6236 7.07933C18.9669 7.50367 17.4686 8.38985 16.3074 9.63221L16.3058 9.63454ZM17.9859 23.9191L17.9973 23.9257C19.8939 25.0075 22.1044 25.4251 24.271 25.111C26.4377 24.7968 28.4336 23.7693 29.9357 22.1947L30.9869 22.7943C31.0509 22.8304 31.1237 22.8486 31.1974 22.8468C31.271 22.845 31.3428 22.8234 31.405 22.7842C31.4671 22.7451 31.5172 22.6899 31.55 22.6247C31.5827 22.5594 31.5968 22.4866 31.5906 22.414L31.3903 20.2124C32.4127 18.3626 32.7913 16.232 32.4678 14.1487C32.1443 12.0654 31.1366 10.145 29.6 8.68328L30.3155 7.45861C30.3537 7.39347 30.3725 7.319 30.3697 7.24376C30.367 7.16853 30.3428 7.09559 30.3 7.03334C30.2571 6.97109 30.1974 6.92205 30.1276 6.89189C30.0577 6.86172 29.9807 6.85164 29.9054 6.86281L27.3559 7.08954C25.5083 6.13732 23.4002 5.79656 21.3419 6.11744C19.2836 6.43832 17.384 7.40387 15.9229 8.8719L14.8307 8.24965C14.7648 8.21152 14.6894 8.1926 14.613 8.19507C14.5367 8.19754 14.4627 8.2213 14.3995 8.2636C14.3362 8.30591 14.2864 8.36503 14.2557 8.43413C14.2251 8.50323 14.2148 8.5795 14.2262 8.65411L14.423 10.8273C13.3451 12.6854 12.9261 14.846 13.2327 16.9662C13.5393 19.0863 14.5539 21.0445 16.1153 22.5299L15.5462 23.5022C15.5075 23.5674 15.4884 23.6422 15.491 23.7178C15.4936 23.7934 15.5179 23.8668 15.561 23.9293C15.6041 23.9918 15.6643 24.0409 15.7346 24.071C15.8048 24.1011 15.8822 24.1108 15.9579 24.0991L17.9859 23.9191ZM17.9222 19.4424L18.2528 18.8765C18.2864 18.8086 18.3389 18.7515 18.404 18.7119C18.4692 18.6722 18.5444 18.6517 18.6209 18.6525C18.6974 18.6534 18.7721 18.6758 18.8363 18.7169C18.9005 18.7581 18.9516 18.8164 18.9836 18.8851L20.038 21.1345C21.1249 21.6771 22.3463 21.9009 23.5578 21.7795C24.7694 21.6581 25.9204 21.1965 26.875 20.4492L26.2885 20.1148C26.2227 20.0793 26.1681 20.0264 26.1309 19.9621C26.0936 19.8977 26.0752 19.8244 26.0776 19.7503C26.08 19.6762 26.1032 19.6043 26.1445 19.5424C26.1858 19.4805 26.2438 19.4312 26.3118 19.4L28.5944 18.3538C29.1423 17.2795 29.3672 16.0727 29.2428 14.8761C29.1184 13.6794 28.6498 12.543 27.8923 11.6012L27.609 12.0858C27.5753 12.1537 27.5228 12.2108 27.4576 12.2504C27.3924 12.29 27.3172 12.3105 27.2407 12.3096C27.1642 12.3087 27.0895 12.2863 27.0253 12.2451C26.9611 12.2039 26.9101 12.1456 26.8781 12.0769L25.8859 9.95695C24.7906 9.38551 23.5506 9.14153 22.3173 9.25479C21.084 9.36805 19.9107 9.83365 18.9407 10.5948L19.5133 10.9214C19.5821 10.9547 19.6398 11.0066 19.6799 11.071C19.72 11.1354 19.7407 11.2097 19.7398 11.2854C19.7388 11.361 19.7162 11.4348 19.6745 11.4982C19.6328 11.5616 19.5738 11.612 19.5043 11.6436L17.2216 12.6894C16.6734 13.7636 16.4481 14.9704 16.5722 16.1672C16.6964 17.3639 17.1648 18.5005 17.9222 19.4424ZM16.8816 22.1425C15.537 20.94 14.5951 19.3611 14.1815 17.6163C13.7679 15.8714 13.9023 14.0434 14.5666 12.3759L14.6485 13.2767C14.6545 13.3403 14.6757 13.4016 14.7106 13.4555C14.7454 13.5093 14.7927 13.5542 14.8486 13.5863C14.9045 13.6184 14.9674 13.6369 15.032 13.6401C15.0966 13.6433 15.161 13.6313 15.2199 13.6049L16.1251 13.1911C15.6942 14.42 15.6127 15.7423 15.8895 17.0138C16.1663 18.2853 16.7908 19.4575 17.6951 20.4026C17.7316 20.4407 17.7755 20.4712 17.824 20.4926C17.8725 20.5139 17.9249 20.5256 17.978 20.5269C18.0311 20.5283 18.0839 20.5192 18.1335 20.5004C18.1831 20.4815 18.2284 20.4532 18.2669 20.417C18.3821 20.2589 18.4853 20.0926 18.5759 19.9196L19.9927 22.9398L16.6387 23.2377L16.9788 22.6543C17.0274 22.5717 17.0443 22.4745 17.0265 22.3805C17.0088 22.2865 16.9571 22.2023 16.8816 22.1425ZM31.168 17.7674C31.1621 17.7037 31.1408 17.6423 31.1061 17.5884C31.0713 17.5345 31.0239 17.4896 30.968 17.4575C30.912 17.4253 30.8491 17.4069 30.7845 17.4037C30.7199 17.4005 30.6554 17.4127 30.5965 17.4391L29.6913 17.8529C30.1221 16.6239 30.2035 15.3017 29.9267 14.0301C29.6499 12.7585 29.0255 11.5863 28.1214 10.641C28.0474 10.5643 27.9456 10.5197 27.8384 10.517C27.7311 10.5144 27.6273 10.554 27.5495 10.627C27.4503 10.758 27.3629 10.8972 27.2882 11.0432L25.8714 8.02292L29.2253 7.72502L28.7385 8.55805C28.69 8.64076 28.6731 8.73791 28.6909 8.83187C28.7086 8.92584 28.7599 9.0104 28.8353 9.07024C30.1472 10.243 31.0766 11.7747 31.5053 13.4707C31.9341 15.1667 31.8428 16.9503 31.2431 18.5949L31.168 17.7674ZM30.0731 21.3511L30.7165 21.7182L30.4143 18.404L27.359 19.8041C27.5265 19.8899 27.6883 19.986 27.8435 20.0918C27.885 20.1298 27.918 20.176 27.9403 20.2274C27.9626 20.2787 27.9737 20.3341 27.973 20.39C27.9723 20.4459 27.9598 20.501 27.9362 20.5518C27.9126 20.6026 27.8785 20.648 27.836 20.6849C26.8783 21.5739 25.6923 22.1865 24.407 22.4563C23.1216 22.7261 21.786 22.6428 20.5453 22.2153L20.9676 23.1179C20.9943 23.1761 21.0066 23.2398 21.0034 23.3036C21.0002 23.3674 20.9816 23.4296 20.9491 23.4849C20.9166 23.5401 20.8713 23.5869 20.8167 23.6213C20.7622 23.6557 20.7002 23.6767 20.6358 23.6826L19.5393 23.7802C21.2501 24.4574 23.1311 24.5944 24.9239 24.1726C26.7167 23.7507 28.3333 22.7906 29.5516 21.4242C29.6153 21.3526 29.7029 21.3058 29.7984 21.2924C29.894 21.279 29.9917 21.2998 30.0731 21.3511Z" fill="white"/>
</svg>
