<svg width="46" height="46" viewBox="0 0 46 46" fill="none" xmlns="http://www.w3.org/2000/svg">
<circle cx="23" cy="23" r="23" fill="#479B69"/>
<path fill-rule="evenodd" clip-rule="evenodd" d="M27.4997 37.9999H29.4997C29.7757 37.9999 29.9997 37.7759 29.9997 37.4999C29.9997 37.2239 29.7757 36.9999 29.4997 36.9999H27.4997C27.2237 36.9999 26.9997 37.2239 26.9997 37.4999C26.9997 37.7759 27.2237 37.9999 27.4997 37.9999Z" fill="white"/>
<path fill-rule="evenodd" clip-rule="evenodd" d="M17.4998 9H15.4998C15.2238 9 14.9998 9.224 14.9998 9.5C14.9998 9.776 15.2238 10 15.4998 10H17.4998C17.7757 10 17.9998 9.776 17.9998 9.5C17.9998 9.224 17.7757 9 17.4998 9Z" fill="white"/>
<path fill-rule="evenodd" clip-rule="evenodd" d="M31.4996 37.9999C31.2235 37.9999 30.9996 37.776 30.9996 37.4999C30.9996 37.2237 31.2235 36.9999 31.4996 36.9999C31.7758 36.9999 31.9996 37.2237 31.9996 37.4999C31.9996 37.776 31.7758 37.9999 31.4996 37.9999Z" fill="white"/>
<path fill-rule="evenodd" clip-rule="evenodd" d="M13.0001 9.5C13.0001 9.77614 13.224 10 13.5001 10C13.7763 10 14.0001 9.77614 14.0001 9.5C14.0001 9.22386 13.7763 9 13.5001 9C13.224 9 13.0001 9.22386 13.0001 9.5Z" fill="white"/>
<path fill-rule="evenodd" clip-rule="evenodd" d="M27.4995 24.5001H25.4995C25.2235 24.5001 24.9995 24.7241 24.9995 25.0001C24.9995 25.2761 25.2235 25.5001 25.4995 25.5001H27.4995C27.7754 25.5001 27.9995 25.2761 27.9995 25.0001C27.9995 24.7241 27.7754 24.5001 27.4995 24.5001Z" fill="white"/>
<path fill-rule="evenodd" clip-rule="evenodd" d="M19.4995 14.4999H17.4995C17.2235 14.4999 16.9995 14.7239 16.9995 14.9999C16.9995 15.2759 17.2235 15.4999 17.4995 15.4999H19.4995C19.7754 15.4999 19.9995 15.2759 19.9995 14.9999C19.9995 14.7239 19.7754 14.4999 19.4995 14.4999Z" fill="white"/>
<path fill-rule="evenodd" clip-rule="evenodd" d="M27.4995 26.5001H25.4995C25.2235 26.5001 24.9995 26.7241 24.9995 27.0001C24.9995 27.2761 25.2235 27.5001 25.4995 27.5001H27.4995C27.7754 27.5001 27.9995 27.2761 27.9995 27.0001C27.9995 26.7241 27.7754 26.5001 27.4995 26.5001Z" fill="white"/>
<path fill-rule="evenodd" clip-rule="evenodd" d="M19.4995 16.4999H17.4995C17.2235 16.4999 16.9995 16.7239 16.9995 16.9999C16.9995 17.2759 17.2235 17.4999 17.4995 17.4999H19.4995C19.7754 17.4999 19.9995 17.2759 19.9995 16.9999C19.9995 16.7239 19.7754 16.4999 19.4995 16.4999Z" fill="white"/>
<path fill-rule="evenodd" clip-rule="evenodd" d="M27.4995 28.5001H25.4995C25.2235 28.5001 24.9995 28.7241 24.9995 29.0001C24.9995 29.2761 25.2235 29.5001 25.4995 29.5001H27.4995C27.7754 29.5001 27.9995 29.2761 27.9995 29.0001C27.9995 28.7241 27.7754 28.5001 27.4995 28.5001Z" fill="white"/>
<path fill-rule="evenodd" clip-rule="evenodd" d="M19.4995 18.4999H17.4995C17.2235 18.4999 16.9995 18.7239 16.9995 18.9999C16.9995 19.2759 17.2235 19.4999 17.4995 19.4999H19.4995C19.7754 19.4999 19.9995 19.2759 19.9995 18.9999C19.9995 18.7239 19.7754 18.4999 19.4995 18.4999Z" fill="white"/>
<path fill-rule="evenodd" clip-rule="evenodd" d="M23.4998 25.5001C23.776 25.5001 23.9998 25.2763 23.9998 25.0001C23.9998 24.724 23.776 24.5001 23.4998 24.5001C23.2237 24.5001 22.9998 24.724 22.9998 25.0001C22.9998 25.2763 23.2237 25.5001 23.4998 25.5001Z" fill="white"/>
<path fill-rule="evenodd" clip-rule="evenodd" d="M15.4999 15.4999C15.776 15.4999 15.9999 15.2761 15.9999 14.9999C15.9999 14.7238 15.776 14.4999 15.4999 14.4999C15.2237 14.4999 14.9999 14.7238 14.9999 14.9999C14.9999 15.2761 15.2237 15.4999 15.4999 15.4999Z" fill="white"/>
<path fill-rule="evenodd" clip-rule="evenodd" d="M23.4998 27.5001C23.776 27.5001 23.9998 27.2763 23.9998 27.0001C23.9998 26.724 23.776 26.5001 23.4998 26.5001C23.2237 26.5001 22.9998 26.724 22.9998 27.0001C22.9998 27.2763 23.2237 27.5001 23.4998 27.5001Z" fill="white"/>
<path fill-rule="evenodd" clip-rule="evenodd" d="M15.4999 17.4999C15.776 17.4999 15.9999 17.276 15.9999 16.9999C15.9999 16.7238 15.776 16.4999 15.4999 16.4999C15.2237 16.4999 14.9999 16.7238 14.9999 16.9999C14.9999 17.276 15.2237 17.4999 15.4999 17.4999Z" fill="white"/>
<path fill-rule="evenodd" clip-rule="evenodd" d="M23.4998 29.5001C23.776 29.5001 23.9998 29.2762 23.9998 29.0001C23.9998 28.724 23.776 28.5001 23.4998 28.5001C23.2237 28.5001 22.9998 28.724 22.9998 29.0001C22.9998 29.2762 23.2237 29.5001 23.4998 29.5001Z" fill="white"/>
<path fill-rule="evenodd" clip-rule="evenodd" d="M15.4999 19.4999C15.776 19.4999 15.9999 19.276 15.9999 18.9999C15.9999 18.7238 15.776 18.4999 15.4999 18.4999C15.2237 18.4999 14.9999 18.7238 14.9999 18.9999C14.9999 19.276 15.2237 19.4999 15.4999 19.4999Z" fill="white"/>
<path fill-rule="evenodd" clip-rule="evenodd" d="M28.0001 14.4998C28.0001 14.2236 27.7763 13.9998 27.5001 13.9998H22.5001C22.224 13.9998 22.0001 14.2236 22.0001 14.4998V19.4998C22.0001 19.7761 22.224 19.9998 22.5001 19.9998H27.5001C27.7763 19.9998 28.0001 19.7761 28.0001 19.4998V14.4998ZM23.0001 14.9998V18.9998H27.0001V14.9998H23.0001Z" fill="white"/>
<path fill-rule="evenodd" clip-rule="evenodd" d="M20.9998 23.5009C20.9998 23.225 20.7759 23.001 20.4998 23.001H15.4998C15.2236 23.001 14.9998 23.225 14.9998 23.5009V30.5009C14.9998 30.7768 15.2236 31.0008 15.4998 31.0008H20.4998C20.7759 31.0008 20.9998 30.7768 20.9998 30.5009V23.5009ZM15.9998 24.0008V30.001H19.9998V24.0008H15.9998Z" fill="white"/>
<path fill-rule="evenodd" clip-rule="evenodd" d="M13.9999 34H13.4999C12.6719 34 11.9999 33.3285 11.9999 32.5V12.5C11.9999 11.6715 12.6719 11 13.4999 11H29.4999C30.3284 11 30.9999 11.6715 30.9999 12.5V13H31.4999C31.8979 13 32.2794 13.158 32.5604 13.4395C32.8419 13.7205 32.9999 14.102 32.9999 14.5C32.9999 14.6667 32.9999 14.8333 32.9999 15C33.5304 15 34.0389 15.2105 34.4139 15.586C34.7894 15.961 34.9999 16.4695 34.9999 17V20.5C34.9999 21.0305 34.7894 21.539 34.4139 21.914C34.0389 22.2895 33.5304 22.5 32.9999 22.5C32.9999 23 32.9999 23.5 32.9999 24C32.9999 24.1325 33.0524 24.26 33.1464 24.3535C33.2399 24.4475 33.3674 24.5 33.4999 24.5C33.8979 24.5 34.2794 24.658 34.5604 24.9395C34.8419 25.2205 34.9999 25.602 34.9999 26V29.5C34.9999 29.898 34.8419 30.2795 34.5604 30.5605C34.2794 30.842 33.8979 31 33.4999 31C33.3674 31 33.2399 31.0525 33.1464 31.1465C33.0524 31.24 32.9999 31.3675 32.9999 31.5V34.5C32.9999 34.898 32.8419 35.2795 32.5604 35.5605C32.2794 35.842 31.8979 36 31.4999 36H15.4999C14.6719 36 13.9999 35.3285 13.9999 34.5V34ZM31.9999 22.5H31.4999C31.3674 22.5 31.2399 22.5525 31.1464 22.6465C31.0524 22.74 30.9999 22.8675 30.9999 23V32.5C30.9999 32.898 30.8419 33.2795 30.5604 33.5605C30.2794 33.842 29.8979 34 29.4999 34H14.9999V34.5C14.9999 34.776 15.2239 35 15.4999 35H31.4999C31.6324 35 31.7599 34.9475 31.8534 34.8535C31.9474 34.76 31.9999 34.6325 31.9999 34.5V31.5C31.9999 31.102 32.1579 30.7205 32.4394 30.4395C32.7204 30.158 33.1019 30 33.4999 30C33.6324 30 33.7599 29.9475 33.8534 29.8535C33.9474 29.76 33.9999 29.6325 33.9999 29.5V26C33.9999 25.8675 33.9474 25.74 33.8534 25.6465C33.7599 25.5525 33.6324 25.5 33.4999 25.5C33.1019 25.5 32.7204 25.342 32.4394 25.0605C32.1579 24.7795 31.9999 24.398 31.9999 24V22.5ZM29.9999 12.5C29.9999 12.224 29.7759 12 29.4999 12H13.4999C13.2239 12 12.9999 12.224 12.9999 12.5V32.5C12.9999 32.776 13.2239 33 13.4999 33H29.4999C29.6324 33 29.7599 32.9475 29.8534 32.8535C29.9474 32.76 29.9999 32.6325 29.9999 32.5V23C29.9999 22.602 30.1579 22.2205 30.4394 21.9395C30.7204 21.658 31.1019 21.5 31.4999 21.5H32.9999C33.2649 21.5 33.5194 21.3945 33.7069 21.207C33.8944 21.0195 33.9999 20.765 33.9999 20.5V17C33.9999 16.735 33.8944 16.4805 33.7069 16.293C33.5194 16.1055 33.2649 16 32.9999 16H31.4999C30.6714 16 29.9999 15.3285 29.9999 14.5V12.5ZM30.9999 14V14.5C30.9999 14.776 31.2239 15 31.4999 15H31.9999V14.5C31.9999 14.3675 31.9474 14.24 31.8534 14.1465C31.7599 14.0525 31.6324 14 31.4999 14H30.9999Z" fill="white"/>
</svg>
