<svg width="46" height="46" viewBox="0 0 46 46" fill="none" xmlns="http://www.w3.org/2000/svg">
<circle cx="23" cy="23" r="23" fill="#69479B"/>
<mask id="path-2-outside-1_646_731" maskUnits="userSpaceOnUse" x="7" y="7" width="32" height="32" fill="black">
<rect fill="white" x="7" y="7" width="32" height="32"/>
<path d="M17.2109 11.1438C17.5151 11.1438 17.8111 11.1727 18.0998 11.2257C21.6174 9.76959 25.7313 9.9542 29.0938 11.7547C30.9558 12.7536 32.5386 14.2017 33.6912 15.9659C33.8078 16.1216 33.7215 16.3519 33.5246 16.3881L31.2499 16.8279L36.3557 18.7478L37.2446 13.437L35.6348 15.1858C35.5201 15.3207 35.3023 15.3093 35.2025 15.1556C33.9009 13.1195 32.0942 11.4392 29.9591 10.2805C24.3447 7.23401 17.2999 8.24972 12.7693 12.7617C10.156 15.363 8.53884 18.9539 8.53884 22.9275C8.53884 24.5105 8.79714 26.0787 9.30901 27.5744C9.31642 27.5724 9.32654 27.5724 9.33396 27.5724H11.1427C10.558 26.0955 10.2592 24.5165 10.2592 22.9275C10.2592 20.2979 11.0624 17.8583 12.4382 15.835C12.4713 13.239 14.5956 11.1438 17.2109 11.1438ZM17.6196 27.5704H20.0184V21.6956H17.6196V27.5704ZM17.0787 27.5717V21.4271C17.0787 21.2787 17.2008 21.1565 17.3485 21.1565H20.2889C20.4379 21.1565 20.5586 21.2781 20.5586 21.4271V27.5717H21.5507V18.5062C21.5507 18.3578 21.6714 18.2376 21.8204 18.2376H24.7588C24.9078 18.2376 25.0285 18.3578 25.0285 18.5062V27.5717H26.0152V15.4785C26.0152 15.3301 26.1359 15.21 26.2849 15.21H29.2253C29.3744 15.21 29.4951 15.3301 29.4951 15.4785V27.5717H30.3037C30.4527 27.5717 30.5734 27.6919 30.5734 27.8402V32.4663C34.0506 29.7219 35.7481 25.2805 35.0487 20.9384C35.0258 20.794 35.1236 20.6584 35.2666 20.6322L37.4786 20.2268C37.6236 20.1999 37.7652 20.2952 37.7922 20.4416C38.8206 26.554 35.972 32.6664 30.5734 35.8135V37.7315C30.5734 37.8798 30.4527 38 30.3037 38H9.33463C9.18559 38 9.06487 37.8798 9.06487 37.7315V28.4585C8.35743 26.6983 8 24.824 8 22.9268C8 18.8069 9.67655 15.0811 12.3876 12.3804C17.0882 7.70259 24.3966 6.65063 30.216 9.8092C32.3282 10.9565 34.1309 12.5952 35.4675 14.5783L37.4617 12.4092C37.6431 12.2132 37.9682 12.375 37.9244 12.6334L36.8325 19.1567C36.8035 19.3279 36.6221 19.4272 36.4636 19.3601L30.1701 16.995C29.9159 16.8997 29.9523 16.5325 30.216 16.4815L33.0262 15.939C31.9445 14.3937 30.5087 13.1208 28.8375 12.2266C25.8263 10.6148 22.1772 10.3463 18.9583 11.4714C20.7306 12.1662 21.9863 13.8841 21.9863 15.8961C21.9863 18.5203 19.8471 20.6477 17.2109 20.6477C14.8593 20.6477 12.9042 18.9519 12.5104 16.7238C11.4246 18.537 10.7994 20.6591 10.7994 22.9275C10.7994 24.5259 11.1069 26.0961 11.7227 27.5724H17.0787V27.5717ZM26.5527 27.5704H28.9535V15.747H26.5527V27.5704ZM22.0895 27.5704H24.489V18.7747H22.0895V27.5704ZM19.8181 28.5941C20.5256 28.5941 21.1905 28.7673 21.7759 29.0734H26.3848C26.4974 29.0734 26.5931 29.1419 26.635 29.2393C27.0915 30.1314 27.9021 30.8054 28.8699 31.0887C28.9866 31.123 29.0628 31.2297 29.0628 31.3459V34.2272C29.0628 34.3567 28.9731 34.4628 28.8524 34.4897C27.8873 34.779 27.078 35.4564 26.6255 36.3506C26.5797 36.4419 26.4879 36.4989 26.3848 36.4989H21.7779C21.1912 36.805 20.5256 36.9783 19.8181 36.9783C19.1107 36.9783 18.4457 36.805 17.8604 36.4989H13.2515C13.1389 36.4989 13.0431 36.4305 13.0013 36.3351C12.5448 35.4409 11.7341 34.7669 10.7664 34.4836C10.705 34.4662 10.5755 34.3695 10.5735 34.2265V31.3452C10.5735 31.2176 10.6632 31.1089 10.7839 31.0827C11.749 30.7954 12.5583 30.116 13.0108 29.2218C13.0587 29.1285 13.1524 29.0734 13.2515 29.0734H17.8604C18.4457 28.7673 19.1107 28.5941 19.8181 28.5941ZM22.567 29.6098C23.4633 30.3785 24.0298 31.5164 24.0298 32.7858C24.0298 33.9445 23.5597 34.9911 22.797 35.7504C22.7241 35.8229 22.6479 35.8934 22.5697 35.9619H26.2249C26.726 35.0596 27.5481 34.3708 28.5246 34.0325V31.5399C27.5474 31.2009 26.726 30.5121 26.2249 29.6105H22.567V29.6098ZM17.0693 35.9619C16.173 35.1932 15.6065 34.0553 15.6065 32.7858C15.6065 31.5164 16.1723 30.3785 17.0693 29.6098H13.412C12.911 30.5121 12.0909 31.2009 11.1123 31.5392V34.0318C12.0909 34.3708 12.9096 35.0596 13.412 35.9612H17.0693V35.9619ZM19.5484 30.0952C19.5484 29.7414 20.0872 29.7414 20.0872 30.0952V30.4644C20.7293 30.5691 21.2971 31.0679 21.2971 31.7487C21.2971 32.1004 20.7583 32.1004 20.7583 31.7487C20.7583 31.368 20.4332 31.0961 20.0872 31.0102V32.5381C20.7293 32.6449 21.2971 33.143 21.2971 33.8244C21.2971 34.5038 20.7293 35.0026 20.0872 35.1086V35.4758C20.0872 35.8296 19.5484 35.8296 19.5484 35.4758V35.1086C18.9064 35.0019 18.3385 34.5038 18.3385 33.8244C18.3385 33.4706 18.8774 33.4706 18.8774 33.8244C18.8774 34.203 19.2024 34.4749 19.5484 34.5608V33.0329C18.9064 32.9282 18.3385 32.428 18.3385 31.7487C18.3385 31.0673 18.9064 30.5691 19.5484 30.4644V30.0952ZM20.0879 33.0866V34.5615C20.4339 34.4756 20.7589 34.2037 20.7589 33.8251C20.7589 33.4444 20.4339 33.1725 20.0879 33.0866ZM19.5484 32.4851V31.0109C19.2024 31.0968 18.8774 31.3687 18.8774 31.7493C18.8774 32.128 19.2024 32.4018 19.5484 32.4851ZM19.8181 29.1305C17.7896 29.1305 16.146 30.7672 16.146 32.7858C16.146 34.8052 17.7902 36.4412 19.8181 36.4412C21.8461 36.4412 23.4902 34.8045 23.4902 32.7858C23.4902 30.7672 21.8467 29.1305 19.8181 29.1305ZM26.0199 31.7775C26.5803 31.7775 27.0328 32.2286 27.0328 32.7858C27.0328 33.3437 26.5797 33.7962 26.0199 33.7962C25.4595 33.7962 25.0049 33.343 25.0049 32.7858C25.0043 32.2286 25.4595 31.7775 26.0199 31.7775ZM26.0199 32.3139C25.7582 32.3139 25.5458 32.5254 25.5458 32.7858C25.5458 33.0463 25.7582 33.2578 26.0199 33.2578C26.2816 33.2578 26.494 33.0463 26.494 32.7858C26.494 32.5254 26.2816 32.3139 26.0199 32.3139ZM13.6164 31.7775C14.1768 31.7775 14.6314 32.2286 14.6314 32.7858C14.6314 33.3437 14.1761 33.7962 13.6164 33.7962C13.0566 33.7962 12.6034 33.343 12.6034 32.7858C12.6034 32.2286 13.0566 31.7775 13.6164 31.7775ZM13.6164 32.3139C13.3547 32.3139 13.1423 32.5254 13.1423 32.7858C13.1423 33.0463 13.3547 33.2578 13.6164 33.2578C13.8801 33.2578 14.0925 33.0463 14.0925 32.7858C14.0925 32.5254 13.8807 32.3139 13.6164 32.3139ZM30.5714 33.1403V35.1898C35.5478 32.1414 38.126 26.5238 37.3005 20.8034L35.6186 21.1116C36.2606 25.7202 34.3433 30.3597 30.5714 33.1403ZM30.0326 28.1088H9.60439V37.4636H30.0326V28.1088ZM18.8625 14.7098C18.8625 15.0616 18.3237 15.0616 18.3237 14.7098C18.3237 14.2399 17.913 13.9069 17.4827 13.819V15.6457C18.209 15.7504 18.8632 16.3096 18.8632 17.0803C18.8632 17.851 18.2097 18.4088 17.4827 18.5149V18.968C17.4827 19.3218 16.9418 19.3218 16.9418 18.968V18.5149C16.2155 18.4082 15.56 17.851 15.56 17.0803C15.56 16.7265 16.1009 16.7265 16.1009 17.0803C16.1009 17.5502 16.5102 17.8812 16.9418 17.9691V16.1445C16.2155 16.0377 15.56 15.4805 15.56 14.7098C15.56 13.9392 16.2155 13.38 16.9418 13.2752V12.8207C16.9418 12.467 17.4827 12.467 17.4827 12.8207V13.2752C18.2084 13.38 18.8625 13.9392 18.8625 14.7098ZM16.9412 13.819C16.5089 13.9063 16.1002 14.2392 16.1002 14.7098C16.1002 15.1778 16.5095 15.5107 16.9412 15.5987V13.819ZM17.482 17.9698C17.9123 17.8825 18.323 17.5509 18.323 17.081C18.323 16.611 17.9123 16.2781 17.482 16.1901V17.9698ZM17.2109 11.6802C14.8728 11.6802 12.9784 13.5659 12.9784 15.8954C12.9784 18.2229 14.8728 20.1086 17.2109 20.1086C19.5511 20.1086 21.4455 18.2229 21.4455 15.8954C21.4448 13.5659 19.5504 11.6802 17.2109 11.6802Z"/>
</mask>
<path d="M17.2109 11.1438C17.5151 11.1438 17.8111 11.1727 18.0998 11.2257C21.6174 9.76959 25.7313 9.9542 29.0938 11.7547C30.9558 12.7536 32.5386 14.2017 33.6912 15.9659C33.8078 16.1216 33.7215 16.3519 33.5246 16.3881L31.2499 16.8279L36.3557 18.7478L37.2446 13.437L35.6348 15.1858C35.5201 15.3207 35.3023 15.3093 35.2025 15.1556C33.9009 13.1195 32.0942 11.4392 29.9591 10.2805C24.3447 7.23401 17.2999 8.24972 12.7693 12.7617C10.156 15.363 8.53884 18.9539 8.53884 22.9275C8.53884 24.5105 8.79714 26.0787 9.30901 27.5744C9.31642 27.5724 9.32654 27.5724 9.33396 27.5724H11.1427C10.558 26.0955 10.2592 24.5165 10.2592 22.9275C10.2592 20.2979 11.0624 17.8583 12.4382 15.835C12.4713 13.239 14.5956 11.1438 17.2109 11.1438ZM17.6196 27.5704H20.0184V21.6956H17.6196V27.5704ZM17.0787 27.5717V21.4271C17.0787 21.2787 17.2008 21.1565 17.3485 21.1565H20.2889C20.4379 21.1565 20.5586 21.2781 20.5586 21.4271V27.5717H21.5507V18.5062C21.5507 18.3578 21.6714 18.2376 21.8204 18.2376H24.7588C24.9078 18.2376 25.0285 18.3578 25.0285 18.5062V27.5717H26.0152V15.4785C26.0152 15.3301 26.1359 15.21 26.2849 15.21H29.2253C29.3744 15.21 29.4951 15.3301 29.4951 15.4785V27.5717H30.3037C30.4527 27.5717 30.5734 27.6919 30.5734 27.8402V32.4663C34.0506 29.7219 35.7481 25.2805 35.0487 20.9384C35.0258 20.794 35.1236 20.6584 35.2666 20.6322L37.4786 20.2268C37.6236 20.1999 37.7652 20.2952 37.7922 20.4416C38.8206 26.554 35.972 32.6664 30.5734 35.8135V37.7315C30.5734 37.8798 30.4527 38 30.3037 38H9.33463C9.18559 38 9.06487 37.8798 9.06487 37.7315V28.4585C8.35743 26.6983 8 24.824 8 22.9268C8 18.8069 9.67655 15.0811 12.3876 12.3804C17.0882 7.70259 24.3966 6.65063 30.216 9.8092C32.3282 10.9565 34.1309 12.5952 35.4675 14.5783L37.4617 12.4092C37.6431 12.2132 37.9682 12.375 37.9244 12.6334L36.8325 19.1567C36.8035 19.3279 36.6221 19.4272 36.4636 19.3601L30.1701 16.995C29.9159 16.8997 29.9523 16.5325 30.216 16.4815L33.0262 15.939C31.9445 14.3937 30.5087 13.1208 28.8375 12.2266C25.8263 10.6148 22.1772 10.3463 18.9583 11.4714C20.7306 12.1662 21.9863 13.8841 21.9863 15.8961C21.9863 18.5203 19.8471 20.6477 17.2109 20.6477C14.8593 20.6477 12.9042 18.9519 12.5104 16.7238C11.4246 18.537 10.7994 20.6591 10.7994 22.9275C10.7994 24.5259 11.1069 26.0961 11.7227 27.5724H17.0787V27.5717ZM26.5527 27.5704H28.9535V15.747H26.5527V27.5704ZM22.0895 27.5704H24.489V18.7747H22.0895V27.5704ZM19.8181 28.5941C20.5256 28.5941 21.1905 28.7673 21.7759 29.0734H26.3848C26.4974 29.0734 26.5931 29.1419 26.635 29.2393C27.0915 30.1314 27.9021 30.8054 28.8699 31.0887C28.9866 31.123 29.0628 31.2297 29.0628 31.3459V34.2272C29.0628 34.3567 28.9731 34.4628 28.8524 34.4897C27.8873 34.779 27.078 35.4564 26.6255 36.3506C26.5797 36.4419 26.4879 36.4989 26.3848 36.4989H21.7779C21.1912 36.805 20.5256 36.9783 19.8181 36.9783C19.1107 36.9783 18.4457 36.805 17.8604 36.4989H13.2515C13.1389 36.4989 13.0431 36.4305 13.0013 36.3351C12.5448 35.4409 11.7341 34.7669 10.7664 34.4836C10.705 34.4662 10.5755 34.3695 10.5735 34.2265V31.3452C10.5735 31.2176 10.6632 31.1089 10.7839 31.0827C11.749 30.7954 12.5583 30.116 13.0108 29.2218C13.0587 29.1285 13.1524 29.0734 13.2515 29.0734H17.8604C18.4457 28.7673 19.1107 28.5941 19.8181 28.5941ZM22.567 29.6098C23.4633 30.3785 24.0298 31.5164 24.0298 32.7858C24.0298 33.9445 23.5597 34.9911 22.797 35.7504C22.7241 35.8229 22.6479 35.8934 22.5697 35.9619H26.2249C26.726 35.0596 27.5481 34.3708 28.5246 34.0325V31.5399C27.5474 31.2009 26.726 30.5121 26.2249 29.6105H22.567V29.6098ZM17.0693 35.9619C16.173 35.1932 15.6065 34.0553 15.6065 32.7858C15.6065 31.5164 16.1723 30.3785 17.0693 29.6098H13.412C12.911 30.5121 12.0909 31.2009 11.1123 31.5392V34.0318C12.0909 34.3708 12.9096 35.0596 13.412 35.9612H17.0693V35.9619ZM19.5484 30.0952C19.5484 29.7414 20.0872 29.7414 20.0872 30.0952V30.4644C20.7293 30.5691 21.2971 31.0679 21.2971 31.7487C21.2971 32.1004 20.7583 32.1004 20.7583 31.7487C20.7583 31.368 20.4332 31.0961 20.0872 31.0102V32.5381C20.7293 32.6449 21.2971 33.143 21.2971 33.8244C21.2971 34.5038 20.7293 35.0026 20.0872 35.1086V35.4758C20.0872 35.8296 19.5484 35.8296 19.5484 35.4758V35.1086C18.9064 35.0019 18.3385 34.5038 18.3385 33.8244C18.3385 33.4706 18.8774 33.4706 18.8774 33.8244C18.8774 34.203 19.2024 34.4749 19.5484 34.5608V33.0329C18.9064 32.9282 18.3385 32.428 18.3385 31.7487C18.3385 31.0673 18.9064 30.5691 19.5484 30.4644V30.0952ZM20.0879 33.0866V34.5615C20.4339 34.4756 20.7589 34.2037 20.7589 33.8251C20.7589 33.4444 20.4339 33.1725 20.0879 33.0866ZM19.5484 32.4851V31.0109C19.2024 31.0968 18.8774 31.3687 18.8774 31.7493C18.8774 32.128 19.2024 32.4018 19.5484 32.4851ZM19.8181 29.1305C17.7896 29.1305 16.146 30.7672 16.146 32.7858C16.146 34.8052 17.7902 36.4412 19.8181 36.4412C21.8461 36.4412 23.4902 34.8045 23.4902 32.7858C23.4902 30.7672 21.8467 29.1305 19.8181 29.1305ZM26.0199 31.7775C26.5803 31.7775 27.0328 32.2286 27.0328 32.7858C27.0328 33.3437 26.5797 33.7962 26.0199 33.7962C25.4595 33.7962 25.0049 33.343 25.0049 32.7858C25.0043 32.2286 25.4595 31.7775 26.0199 31.7775ZM26.0199 32.3139C25.7582 32.3139 25.5458 32.5254 25.5458 32.7858C25.5458 33.0463 25.7582 33.2578 26.0199 33.2578C26.2816 33.2578 26.494 33.0463 26.494 32.7858C26.494 32.5254 26.2816 32.3139 26.0199 32.3139ZM13.6164 31.7775C14.1768 31.7775 14.6314 32.2286 14.6314 32.7858C14.6314 33.3437 14.1761 33.7962 13.6164 33.7962C13.0566 33.7962 12.6034 33.343 12.6034 32.7858C12.6034 32.2286 13.0566 31.7775 13.6164 31.7775ZM13.6164 32.3139C13.3547 32.3139 13.1423 32.5254 13.1423 32.7858C13.1423 33.0463 13.3547 33.2578 13.6164 33.2578C13.8801 33.2578 14.0925 33.0463 14.0925 32.7858C14.0925 32.5254 13.8807 32.3139 13.6164 32.3139ZM30.5714 33.1403V35.1898C35.5478 32.1414 38.126 26.5238 37.3005 20.8034L35.6186 21.1116C36.2606 25.7202 34.3433 30.3597 30.5714 33.1403ZM30.0326 28.1088H9.60439V37.4636H30.0326V28.1088ZM18.8625 14.7098C18.8625 15.0616 18.3237 15.0616 18.3237 14.7098C18.3237 14.2399 17.913 13.9069 17.4827 13.819V15.6457C18.209 15.7504 18.8632 16.3096 18.8632 17.0803C18.8632 17.851 18.2097 18.4088 17.4827 18.5149V18.968C17.4827 19.3218 16.9418 19.3218 16.9418 18.968V18.5149C16.2155 18.4082 15.56 17.851 15.56 17.0803C15.56 16.7265 16.1009 16.7265 16.1009 17.0803C16.1009 17.5502 16.5102 17.8812 16.9418 17.9691V16.1445C16.2155 16.0377 15.56 15.4805 15.56 14.7098C15.56 13.9392 16.2155 13.38 16.9418 13.2752V12.8207C16.9418 12.467 17.4827 12.467 17.4827 12.8207V13.2752C18.2084 13.38 18.8625 13.9392 18.8625 14.7098ZM16.9412 13.819C16.5089 13.9063 16.1002 14.2392 16.1002 14.7098C16.1002 15.1778 16.5095 15.5107 16.9412 15.5987V13.819ZM17.482 17.9698C17.9123 17.8825 18.323 17.5509 18.323 17.081C18.323 16.611 17.9123 16.2781 17.482 16.1901V17.9698ZM17.2109 11.6802C14.8728 11.6802 12.9784 13.5659 12.9784 15.8954C12.9784 18.2229 14.8728 20.1086 17.2109 20.1086C19.5511 20.1086 21.4455 18.2229 21.4455 15.8954C21.4448 13.5659 19.5504 11.6802 17.2109 11.6802Z" fill="white"/>
<path d="M17.2109 11.1438C17.5151 11.1438 17.8111 11.1727 18.0998 11.2257C21.6174 9.76959 25.7313 9.9542 29.0938 11.7547C30.9558 12.7536 32.5386 14.2017 33.6912 15.9659C33.8078 16.1216 33.7215 16.3519 33.5246 16.3881L31.2499 16.8279L36.3557 18.7478L37.2446 13.437L35.6348 15.1858C35.5201 15.3207 35.3023 15.3093 35.2025 15.1556C33.9009 13.1195 32.0942 11.4392 29.9591 10.2805C24.3447 7.23401 17.2999 8.24972 12.7693 12.7617C10.156 15.363 8.53884 18.9539 8.53884 22.9275C8.53884 24.5105 8.79714 26.0787 9.30901 27.5744C9.31642 27.5724 9.32654 27.5724 9.33396 27.5724H11.1427C10.558 26.0955 10.2592 24.5165 10.2592 22.9275C10.2592 20.2979 11.0624 17.8583 12.4382 15.835C12.4713 13.239 14.5956 11.1438 17.2109 11.1438ZM17.6196 27.5704H20.0184V21.6956H17.6196V27.5704ZM17.0787 27.5717V21.4271C17.0787 21.2787 17.2008 21.1565 17.3485 21.1565H20.2889C20.4379 21.1565 20.5586 21.2781 20.5586 21.4271V27.5717H21.5507V18.5062C21.5507 18.3578 21.6714 18.2376 21.8204 18.2376H24.7588C24.9078 18.2376 25.0285 18.3578 25.0285 18.5062V27.5717H26.0152V15.4785C26.0152 15.3301 26.1359 15.21 26.2849 15.21H29.2253C29.3744 15.21 29.4951 15.3301 29.4951 15.4785V27.5717H30.3037C30.4527 27.5717 30.5734 27.6919 30.5734 27.8402V32.4663C34.0506 29.7219 35.7481 25.2805 35.0487 20.9384C35.0258 20.794 35.1236 20.6584 35.2666 20.6322L37.4786 20.2268C37.6236 20.1999 37.7652 20.2952 37.7922 20.4416C38.8206 26.554 35.972 32.6664 30.5734 35.8135V37.7315C30.5734 37.8798 30.4527 38 30.3037 38H9.33463C9.18559 38 9.06487 37.8798 9.06487 37.7315V28.4585C8.35743 26.6983 8 24.824 8 22.9268C8 18.8069 9.67655 15.0811 12.3876 12.3804C17.0882 7.70259 24.3966 6.65063 30.216 9.8092C32.3282 10.9565 34.1309 12.5952 35.4675 14.5783L37.4617 12.4092C37.6431 12.2132 37.9682 12.375 37.9244 12.6334L36.8325 19.1567C36.8035 19.3279 36.6221 19.4272 36.4636 19.3601L30.1701 16.995C29.9159 16.8997 29.9523 16.5325 30.216 16.4815L33.0262 15.939C31.9445 14.3937 30.5087 13.1208 28.8375 12.2266C25.8263 10.6148 22.1772 10.3463 18.9583 11.4714C20.7306 12.1662 21.9863 13.8841 21.9863 15.8961C21.9863 18.5203 19.8471 20.6477 17.2109 20.6477C14.8593 20.6477 12.9042 18.9519 12.5104 16.7238C11.4246 18.537 10.7994 20.6591 10.7994 22.9275C10.7994 24.5259 11.1069 26.0961 11.7227 27.5724H17.0787V27.5717ZM26.5527 27.5704H28.9535V15.747H26.5527V27.5704ZM22.0895 27.5704H24.489V18.7747H22.0895V27.5704ZM19.8181 28.5941C20.5256 28.5941 21.1905 28.7673 21.7759 29.0734H26.3848C26.4974 29.0734 26.5931 29.1419 26.635 29.2393C27.0915 30.1314 27.9021 30.8054 28.8699 31.0887C28.9866 31.123 29.0628 31.2297 29.0628 31.3459V34.2272C29.0628 34.3567 28.9731 34.4628 28.8524 34.4897C27.8873 34.779 27.078 35.4564 26.6255 36.3506C26.5797 36.4419 26.4879 36.4989 26.3848 36.4989H21.7779C21.1912 36.805 20.5256 36.9783 19.8181 36.9783C19.1107 36.9783 18.4457 36.805 17.8604 36.4989H13.2515C13.1389 36.4989 13.0431 36.4305 13.0013 36.3351C12.5448 35.4409 11.7341 34.7669 10.7664 34.4836C10.705 34.4662 10.5755 34.3695 10.5735 34.2265V31.3452C10.5735 31.2176 10.6632 31.1089 10.7839 31.0827C11.749 30.7954 12.5583 30.116 13.0108 29.2218C13.0587 29.1285 13.1524 29.0734 13.2515 29.0734H17.8604C18.4457 28.7673 19.1107 28.5941 19.8181 28.5941ZM22.567 29.6098C23.4633 30.3785 24.0298 31.5164 24.0298 32.7858C24.0298 33.9445 23.5597 34.9911 22.797 35.7504C22.7241 35.8229 22.6479 35.8934 22.5697 35.9619H26.2249C26.726 35.0596 27.5481 34.3708 28.5246 34.0325V31.5399C27.5474 31.2009 26.726 30.5121 26.2249 29.6105H22.567V29.6098ZM17.0693 35.9619C16.173 35.1932 15.6065 34.0553 15.6065 32.7858C15.6065 31.5164 16.1723 30.3785 17.0693 29.6098H13.412C12.911 30.5121 12.0909 31.2009 11.1123 31.5392V34.0318C12.0909 34.3708 12.9096 35.0596 13.412 35.9612H17.0693V35.9619ZM19.5484 30.0952C19.5484 29.7414 20.0872 29.7414 20.0872 30.0952V30.4644C20.7293 30.5691 21.2971 31.0679 21.2971 31.7487C21.2971 32.1004 20.7583 32.1004 20.7583 31.7487C20.7583 31.368 20.4332 31.0961 20.0872 31.0102V32.5381C20.7293 32.6449 21.2971 33.143 21.2971 33.8244C21.2971 34.5038 20.7293 35.0026 20.0872 35.1086V35.4758C20.0872 35.8296 19.5484 35.8296 19.5484 35.4758V35.1086C18.9064 35.0019 18.3385 34.5038 18.3385 33.8244C18.3385 33.4706 18.8774 33.4706 18.8774 33.8244C18.8774 34.203 19.2024 34.4749 19.5484 34.5608V33.0329C18.9064 32.9282 18.3385 32.428 18.3385 31.7487C18.3385 31.0673 18.9064 30.5691 19.5484 30.4644V30.0952ZM20.0879 33.0866V34.5615C20.4339 34.4756 20.7589 34.2037 20.7589 33.8251C20.7589 33.4444 20.4339 33.1725 20.0879 33.0866ZM19.5484 32.4851V31.0109C19.2024 31.0968 18.8774 31.3687 18.8774 31.7493C18.8774 32.128 19.2024 32.4018 19.5484 32.4851ZM19.8181 29.1305C17.7896 29.1305 16.146 30.7672 16.146 32.7858C16.146 34.8052 17.7902 36.4412 19.8181 36.4412C21.8461 36.4412 23.4902 34.8045 23.4902 32.7858C23.4902 30.7672 21.8467 29.1305 19.8181 29.1305ZM26.0199 31.7775C26.5803 31.7775 27.0328 32.2286 27.0328 32.7858C27.0328 33.3437 26.5797 33.7962 26.0199 33.7962C25.4595 33.7962 25.0049 33.343 25.0049 32.7858C25.0043 32.2286 25.4595 31.7775 26.0199 31.7775ZM26.0199 32.3139C25.7582 32.3139 25.5458 32.5254 25.5458 32.7858C25.5458 33.0463 25.7582 33.2578 26.0199 33.2578C26.2816 33.2578 26.494 33.0463 26.494 32.7858C26.494 32.5254 26.2816 32.3139 26.0199 32.3139ZM13.6164 31.7775C14.1768 31.7775 14.6314 32.2286 14.6314 32.7858C14.6314 33.3437 14.1761 33.7962 13.6164 33.7962C13.0566 33.7962 12.6034 33.343 12.6034 32.7858C12.6034 32.2286 13.0566 31.7775 13.6164 31.7775ZM13.6164 32.3139C13.3547 32.3139 13.1423 32.5254 13.1423 32.7858C13.1423 33.0463 13.3547 33.2578 13.6164 33.2578C13.8801 33.2578 14.0925 33.0463 14.0925 32.7858C14.0925 32.5254 13.8807 32.3139 13.6164 32.3139ZM30.5714 33.1403V35.1898C35.5478 32.1414 38.126 26.5238 37.3005 20.8034L35.6186 21.1116C36.2606 25.7202 34.3433 30.3597 30.5714 33.1403ZM30.0326 28.1088H9.60439V37.4636H30.0326V28.1088ZM18.8625 14.7098C18.8625 15.0616 18.3237 15.0616 18.3237 14.7098C18.3237 14.2399 17.913 13.9069 17.4827 13.819V15.6457C18.209 15.7504 18.8632 16.3096 18.8632 17.0803C18.8632 17.851 18.2097 18.4088 17.4827 18.5149V18.968C17.4827 19.3218 16.9418 19.3218 16.9418 18.968V18.5149C16.2155 18.4082 15.56 17.851 15.56 17.0803C15.56 16.7265 16.1009 16.7265 16.1009 17.0803C16.1009 17.5502 16.5102 17.8812 16.9418 17.9691V16.1445C16.2155 16.0377 15.56 15.4805 15.56 14.7098C15.56 13.9392 16.2155 13.38 16.9418 13.2752V12.8207C16.9418 12.467 17.4827 12.467 17.4827 12.8207V13.2752C18.2084 13.38 18.8625 13.9392 18.8625 14.7098ZM16.9412 13.819C16.5089 13.9063 16.1002 14.2392 16.1002 14.7098C16.1002 15.1778 16.5095 15.5107 16.9412 15.5987V13.819ZM17.482 17.9698C17.9123 17.8825 18.323 17.5509 18.323 17.081C18.323 16.611 17.9123 16.2781 17.482 16.1901V17.9698ZM17.2109 11.6802C14.8728 11.6802 12.9784 13.5659 12.9784 15.8954C12.9784 18.2229 14.8728 20.1086 17.2109 20.1086C19.5511 20.1086 21.4455 18.2229 21.4455 15.8954C21.4448 13.5659 19.5504 11.6802 17.2109 11.6802Z" stroke="white" stroke-width="0.4" mask="url(#path-2-outside-1_646_731)"/>
</svg>
