<svg width="46" height="46" viewBox="0 0 46 46" fill="none" xmlns="http://www.w3.org/2000/svg">
<circle cx="23" cy="23" r="23" fill="#9B4755"/>
<path d="M7.97886 35.868H37.6839C37.9414 35.868 38.1499 35.6594 38.1499 35.402C38.1499 35.1446 37.9413 34.936 37.6839 34.936H7.97886C7.72146 34.936 7.51284 35.1446 7.51284 35.402C7.51284 35.6594 7.72146 35.868 7.97886 35.868Z" fill="white" stroke="white" stroke-width="0.3"/>
<path d="M12.0984 37.9166H33.5628C33.8202 37.9166 34.0289 37.708 34.0289 37.4506C34.0289 37.1932 33.8202 36.9845 33.5628 36.9845H12.0984C11.841 36.9845 11.6324 37.1932 11.6324 37.4506C11.6324 37.708 11.841 37.9166 12.0984 37.9166Z" fill="white" stroke="white" stroke-width="0.3"/>
<path d="M13.3054 35.868H32.3605C32.6178 35.868 32.8266 35.6596 32.8266 35.4021C32.8266 35.1447 32.618 34.9361 32.3606 34.9361H13.7714V11.2011H18.7841C19.0415 11.2011 19.2501 10.9925 19.2501 10.7351C19.2501 10.4777 19.0415 10.2691 18.7841 10.2691H13.3054C13.048 10.2691 12.8394 10.4777 12.8394 10.7351V35.402C12.8394 35.6594 13.048 35.868 13.3054 35.868ZM31.8945 27.5781C31.8945 27.8355 32.1031 28.0442 32.3605 28.0442C32.618 28.0442 32.8265 27.8356 32.8265 27.5782V10.7351C32.8265 10.4777 32.6179 10.2691 32.3605 10.2691H26.8819C26.6245 10.2691 26.4159 10.4777 26.4159 10.7351C26.4159 10.9925 26.6245 11.2011 26.8819 11.2011H31.8945V27.5781Z" fill="white" stroke="white" stroke-width="0.3"/>
<path d="M18.7814 12.8559H26.8792C27.1366 12.8559 27.3452 12.6473 27.3452 12.39V9.08169C27.3452 8.82429 27.1366 8.61567 26.8792 8.61567L18.7814 8.61565C18.524 8.61565 18.3154 8.82426 18.3154 9.08167V12.3899C18.3154 12.6473 18.524 12.8559 18.7814 12.8559ZM26.4133 9.54762V11.9239H19.2475V9.54762H26.4133Z" fill="white" stroke="white" stroke-width="0.3"/>
<path d="M11.0714 32.8552C11.0714 33.1126 11.28 33.3212 11.5374 33.3212C11.7948 33.3212 12.0034 33.1127 12.0034 32.8552V25.7449C12.0034 25.4875 11.7948 25.2789 11.5374 25.2789C11.28 25.2789 11.0714 25.4876 11.0714 25.7449V32.8552Z" fill="white" stroke="white" stroke-width="0.3"/>
<path d="M33.6612 17.8453C33.6612 18.1027 33.8698 18.3113 34.1272 18.3113C34.3846 18.3113 34.5932 18.1026 34.5932 17.8453V10.7351C34.5932 10.4777 34.3846 10.2691 34.1272 10.2691C33.8698 10.2691 33.6612 10.4777 33.6612 10.7351V17.8453Z" fill="white" stroke="white" stroke-width="0.3"/>
<path d="M27.9814 31.4906C27.9814 33.9047 29.9452 35.8685 32.3594 35.8685C34.7736 35.8685 36.7373 33.9047 36.7373 31.4906C36.7373 29.0765 34.7735 27.1127 32.3594 27.1127C29.9452 27.1127 27.9814 29.0765 27.9814 31.4906ZM28.9134 31.4906C28.9134 29.5907 30.4594 28.0447 32.3594 28.0447C34.2594 28.0447 35.8053 29.5907 35.8053 31.4906C35.8053 33.3904 34.2593 34.9364 32.3594 34.9364C30.4595 34.9364 28.9134 33.3904 28.9134 31.4906Z" fill="white" stroke="white" stroke-width="0.3"/>
<path d="M18.3075 15.2759H27.3536C27.611 15.2759 27.8197 15.0673 27.8197 14.8099C27.8197 14.5525 27.611 14.3439 27.3536 14.3439H18.3075C18.0501 14.3439 17.8415 14.5525 17.8415 14.8099C17.8415 15.0673 18.0501 15.2759 18.3075 15.2759Z" fill="white" stroke="white" stroke-width="0.3"/>
<path d="M16.0385 21.0654H29.6211C29.8786 21.0654 30.0871 20.8567 30.0871 20.5994C30.0871 20.342 29.8785 20.1334 29.6211 20.1334H16.0385C15.7811 20.1334 15.5725 20.342 15.5725 20.5994C15.5725 20.8568 15.7811 21.0654 16.0385 21.0654Z" fill="white" stroke="white" stroke-width="0.3"/>
<path d="M23.2981 29.4201V30.9009C23.2981 31.0782 23.1975 31.2402 23.0383 31.3188M23.2981 29.4201L23.0383 31.3188M23.2981 29.4201H27.9176C28.175 29.4201 28.3836 29.2115 28.3836 28.9541V25.0605C28.3836 24.803 28.175 24.5944 27.9176 24.5944L23.2981 24.5945V23.1137C23.2981 22.9363 23.1974 22.7744 23.0383 22.6959L23.0383 22.6959C22.8794 22.6174 22.6896 22.6358 22.5487 22.7437C22.5487 22.7437 22.5487 22.7437 22.5486 22.7438L17.4631 26.6373L17.463 26.6374C17.348 26.7255 17.2805 26.8622 17.2805 27.0073C17.2805 27.1523 17.3479 27.2891 17.463 27.3773L17.4631 27.3773L22.5487 31.2709M23.2981 29.4201L22.5487 31.2709M23.0383 31.3188C22.9729 31.3511 22.9023 31.3669 22.832 31.3669C22.7316 31.3669 22.6316 31.3344 22.5487 31.2709M23.0383 31.3188L22.5487 31.2709M22.366 24.0573V25.0604C22.366 25.3178 22.5746 25.5264 22.832 25.5264H27.4517V28.4881L22.8321 28.488C22.5747 28.488 22.3661 28.6967 22.3661 28.9541V29.9571L18.5131 27.0072L22.366 24.0573Z" fill="white" stroke="white" stroke-width="0.3"/>
<path d="M16.0385 18.9412H29.6211C29.8786 18.9412 30.0871 18.7325 30.0871 18.4752C30.0871 18.2178 29.8785 18.0092 29.6211 18.0092H16.0385C15.7811 18.0092 15.5725 18.2178 15.5725 18.4752C15.5725 18.7326 15.7811 18.9412 16.0385 18.9412Z" fill="white" stroke="white" stroke-width="0.3"/>
<path d="M31.1969 33.2761L31.197 33.2762C31.288 33.3672 31.4076 33.4127 31.5265 33.4127C31.6455 33.4127 31.7652 33.3672 31.8561 33.276M31.1969 33.2761L30.6928 31.4539L31.5265 32.2876L34.0239 29.7903L34.1299 29.8962L34.024 29.7902C34.2058 29.6082 34.501 29.6082 34.6829 29.7902M31.1969 33.2761L30.0337 32.1129C30.0337 32.1129 30.0337 32.1128 30.0337 32.1128C29.8517 31.9309 29.8517 31.6357 30.0337 31.4538L30.1398 31.5599M31.1969 33.2761L30.6927 31.4538C30.5108 31.2718 30.2155 31.2718 30.0336 31.4539L30.1398 31.5599M31.8561 33.276L31.856 33.2761L31.75 33.1701L31.8561 33.276ZM31.8561 33.276L34.6829 30.4493L34.5769 30.3432M34.5769 30.3432L34.6829 30.4492C34.865 30.2673 34.865 29.9721 34.6829 29.7902M34.5769 30.3432C34.7003 30.2198 34.7003 30.0197 34.5769 29.8963M34.5769 30.3432L31.5265 32.4997L34.13 29.8963C34.2533 29.7728 34.4536 29.7728 34.5769 29.8963M34.6829 29.7902L34.5769 29.8963M34.6829 29.7902C34.6829 29.7902 34.683 29.7903 34.683 29.7903L34.5769 29.8963M30.1398 31.5599C30.0163 31.6833 30.0163 31.8834 30.1398 32.0068V31.5599Z" fill="white" stroke="white" stroke-width="0.3"/>
<path d="M19.4008 33.4481H26.264C26.5214 33.4481 26.7301 33.2395 26.7301 32.9821C26.7301 32.7246 26.5214 32.516 26.264 32.516H19.4008C19.1434 32.516 18.9347 32.7247 18.9347 32.9821C18.9347 33.2395 19.1434 33.4481 19.4008 33.4481Z" fill="white" stroke="white" stroke-width="0.3"/>
</svg>
