<svg width="46" height="46" viewBox="0 0 46 46" fill="none" xmlns="http://www.w3.org/2000/svg">
<circle cx="23" cy="23" r="23" fill="#92479B"/>
<path d="M26.5813 16.8279C26.5813 16.7198 26.5389 16.616 26.4636 16.5396C26.3883 16.4631 26.2861 16.4201 26.1795 16.4201H17.4798C17.3733 16.4201 17.2711 16.4631 17.1958 16.5396C17.1204 16.616 17.0781 16.7198 17.0781 16.8279C17.0781 16.9361 17.1204 17.0398 17.1958 17.1163C17.2711 17.1928 17.3733 17.2358 17.4798 17.2358H26.1795C26.2861 17.2358 26.3883 17.1928 26.4636 17.1163C26.5389 17.0398 26.5813 16.9361 26.5813 16.8279ZM19.8902 14.7887H28.5899C28.6964 14.7887 28.7986 14.7458 28.8739 14.6693C28.9493 14.5928 28.9916 14.489 28.9916 14.3809C28.9916 14.2727 28.9493 14.169 28.8739 14.0925C28.7986 14.016 28.6964 13.973 28.5899 13.973H19.8902C19.7836 13.973 19.6814 14.016 19.6061 14.0925C19.5308 14.169 19.4884 14.2727 19.4884 14.3809C19.4884 14.489 19.5308 14.5928 19.6061 14.6693C19.6814 14.7458 19.7836 14.7887 19.8902 14.7887ZM20.6936 12.3417H28.5899C28.6964 12.3417 28.7986 12.2987 28.8739 12.2222C28.9493 12.1457 28.9916 12.042 28.9916 11.9338C28.9916 11.8257 28.9493 11.7219 28.8739 11.6454C28.7986 11.5689 28.6964 11.526 28.5899 11.526H20.6936C20.5871 11.526 20.4849 11.5689 20.4096 11.6454C20.3342 11.7219 20.2919 11.8257 20.2919 11.9338C20.2919 12.042 20.3342 12.1457 20.4096 12.2222C20.4849 12.2987 20.5871 12.3417 20.6936 12.3417ZM33.0967 16.4201H31.4019V11.1181C31.4014 10.5775 31.1896 10.0591 30.813 9.67683C30.4364 9.29453 29.9259 9.07949 29.3933 9.07892H19.0867C19.0334 9.07883 18.9805 9.08956 18.9313 9.11048C18.8821 9.13139 18.8375 9.16208 18.8002 9.20073L14.717 13.3466C14.697 13.3658 14.6791 13.3872 14.6635 13.4102V13.4135C14.657 13.4238 14.6512 13.4336 14.6458 13.4439V13.4494C14.6405 13.4592 14.6358 13.4694 14.6319 13.4798C14.6316 13.4824 14.6316 13.4849 14.6319 13.4874C14.6277 13.4972 14.6242 13.5072 14.6212 13.5173C14.6198 13.5216 14.6188 13.526 14.6179 13.5304C14.6179 13.5385 14.6131 13.5467 14.6115 13.5554C14.6099 13.5641 14.6078 13.5766 14.6067 13.5875C14.6065 13.5898 14.6065 13.5922 14.6067 13.5946C14.6059 13.6085 14.6059 13.6225 14.6067 13.6364V18.8672H12.9034C12.3708 18.8677 11.8603 19.0828 11.4837 19.4651C11.1071 19.8474 10.8953 20.3657 10.8948 20.9064V34.8818C10.8953 35.4225 11.1071 35.9408 11.4837 36.3231C11.8603 36.7054 12.3708 36.9204 12.9034 36.921H33.0967C33.6292 36.9204 34.1398 36.7054 34.5164 36.3231C34.8929 35.9408 35.1047 35.4225 35.1053 34.8818V18.4593C35.1047 17.9187 34.8929 17.4003 34.5164 17.018C34.1398 16.6357 33.6292 16.4207 33.0967 16.4201ZM18.685 10.4716V12.011C18.6847 12.3338 18.5583 12.6432 18.3336 12.8715C18.1089 13.0997 17.8041 13.2282 17.4863 13.2286H15.9699L18.685 10.4716ZM15.4016 14.0443H17.4863C18.0171 14.0436 18.5261 13.8291 18.9014 13.4479C19.2768 13.0668 19.4879 12.55 19.4884 12.011V9.89461H29.3933C29.7129 9.89489 30.0193 10.0239 30.2452 10.2533C30.4712 10.4827 30.5982 10.7937 30.5985 11.1181V16.4201H29.6526C29.2414 16.4195 28.8401 16.5475 28.5031 16.7866L25.8758 18.6496C25.6736 18.7924 25.4328 18.8684 25.1865 18.8672H15.4016V14.0443ZM34.3019 34.8818C34.3016 35.2062 34.1745 35.5173 33.9486 35.7467C33.7226 35.976 33.4162 36.105 33.0967 36.1053H12.9034C12.5838 36.105 12.2775 35.976 12.0515 35.7467C11.8256 35.5173 11.6985 35.2062 11.6982 34.8818V23.3534C11.6985 23.029 11.8256 22.718 12.0515 22.4886C12.2775 22.2592 12.5838 22.1302 12.9034 22.1299H33.0967C33.4162 22.1302 33.7226 22.2592 33.9486 22.4886C34.1745 22.718 34.3016 23.029 34.3019 23.3534V34.8818ZM34.3019 21.7221C33.9546 21.4565 33.5314 21.3134 33.0967 21.3142H12.9034C12.4685 21.3137 12.0454 21.4572 11.6982 21.7232V20.9075C11.6982 20.5829 11.8252 20.2715 12.0511 20.0419C12.2771 19.8123 12.5837 19.6831 12.9034 19.6828H25.1865C25.5975 19.6835 25.9987 19.5555 26.3354 19.3163L28.9632 17.456C29.1652 17.3123 29.4059 17.2353 29.6526 17.2358H33.0967C33.4162 17.2361 33.7226 17.3651 33.9486 17.5945C34.1745 17.8239 34.3016 18.1349 34.3019 18.4593V21.7221ZM23 23.7613C21.9566 23.7613 20.9365 24.0754 20.0689 24.664C19.2012 25.2525 18.525 26.0891 18.1257 27.0678C17.7264 28.0466 17.6219 29.1236 17.8254 30.1626C18.029 31.2016 18.5315 32.156 19.2694 32.9051C20.0072 33.6542 20.9473 34.1644 21.9707 34.371C22.9942 34.5777 24.055 34.4716 25.0191 34.0662C25.9831 33.6608 26.8071 32.9743 27.3868 32.0934C27.9666 31.2126 28.276 30.177 28.276 29.1176C28.2743 27.6976 27.7179 26.3362 26.7288 25.332C25.7398 24.3279 24.3988 23.763 23 23.7613ZM23 33.6583C22.1155 33.6583 21.2507 33.392 20.5152 32.893C19.7797 32.3941 19.2065 31.685 18.868 30.8553C18.5295 30.0256 18.4409 29.1126 18.6135 28.2318C18.786 27.351 19.212 26.5419 19.8375 25.9069C20.463 25.2719 21.2599 24.8394 22.1275 24.6642C22.9951 24.489 23.8944 24.5789 24.7116 24.9226C25.5288 25.2663 26.2274 25.8483 26.7188 26.595C27.2103 27.3417 27.4726 28.2196 27.4726 29.1176C27.4711 30.3214 26.9995 31.4755 26.161 32.3268C25.3226 33.178 24.1858 33.6568 23 33.6583ZM25.6669 29.0317C25.4143 28.9123 25.1287 28.8855 24.8588 28.9559C24.5889 29.0264 24.3513 29.1896 24.1867 29.4179C24.022 29.6461 23.9404 29.9253 23.9558 30.2078C23.9711 30.4903 24.0825 30.7586 24.2708 30.9671C24.4592 31.1756 24.713 31.3114 24.9889 31.3512C25.2648 31.3911 25.5458 31.3326 25.7839 31.1857C26.0221 31.0389 26.2028 30.8127 26.2951 30.5457C26.3875 30.2788 26.3858 29.9876 26.2904 29.7218C26.1808 29.417 25.9566 29.1688 25.6669 29.0317ZM25.5218 30.3129C25.4825 30.3984 25.4152 30.4674 25.3314 30.5082C25.2476 30.549 25.1525 30.559 25.0622 30.5366C24.972 30.5141 24.8922 30.4606 24.8364 30.3852C24.7806 30.3097 24.7524 30.2169 24.7564 30.1227C24.7605 30.0284 24.7966 29.9385 24.8586 29.8682C24.9206 29.798 25.0047 29.7517 25.0965 29.7373C25.1884 29.723 25.2823 29.7413 25.3623 29.7894C25.4422 29.8374 25.5034 29.9121 25.5352 30.0007C25.5535 30.0511 25.5617 30.1046 25.5594 30.1582C25.5571 30.2118 25.5443 30.2644 25.5218 30.3129ZM24.4109 25.9767C24.363 25.9538 24.3111 25.9407 24.2582 25.9382C24.2053 25.9358 24.1524 25.9439 24.1026 25.9623C24.0529 25.9806 24.0071 26.0088 23.9681 26.0451C23.9291 26.0815 23.8975 26.1253 23.8753 26.1741L21.3396 31.6941C21.3159 31.7428 21.302 31.7958 21.2987 31.8501C21.2954 31.9043 21.3029 31.9587 21.3206 32.0099C21.3383 32.0612 21.366 32.1084 21.4019 32.1487C21.4378 32.1889 21.4813 32.2215 21.5298 32.2445C21.5783 32.2675 21.6309 32.2804 21.6844 32.2824C21.7379 32.2845 21.7912 32.2757 21.8413 32.2565C21.8914 32.2374 21.9372 32.2083 21.976 32.1709C22.0149 32.1335 22.046 32.0886 22.0675 32.0389L24.6069 26.5188C24.6292 26.4702 24.6418 26.4176 24.644 26.3639C24.6462 26.3103 24.6379 26.2568 24.6197 26.2065C24.6015 26.1561 24.5737 26.1099 24.5379 26.0705C24.502 26.031 24.4589 25.9992 24.4109 25.9767ZM21.8811 28.5869C21.9914 28.3468 22.0221 28.0768 21.9684 27.8175C21.9148 27.5582 21.7797 27.3235 21.5836 27.1487C21.3874 26.974 21.1407 26.8685 20.8805 26.8482C20.6203 26.8279 20.3606 26.8938 20.1404 27.036C19.9202 27.1783 19.7514 27.3892 19.6593 27.6371C19.5672 27.885 19.5568 28.1566 19.6296 28.411C19.7025 28.6654 19.8547 28.889 20.0633 29.0482C20.272 29.2074 20.5258 29.2936 20.7868 29.2938C21.0166 29.2953 21.2419 29.2296 21.436 29.1047C21.63 28.9797 21.7845 28.8007 21.8811 28.5891V28.5869ZM21.1526 28.2421C21.1304 28.2909 21.0988 28.3347 21.0598 28.3711C21.0208 28.4074 20.9751 28.4356 20.9253 28.4539C20.8755 28.4723 20.8226 28.4804 20.7697 28.478C20.7168 28.4755 20.6649 28.4624 20.617 28.4395C20.5346 28.4 20.4678 28.3331 20.4276 28.25C20.3875 28.1668 20.3764 28.0723 20.3961 27.9819C20.4159 27.8915 20.4653 27.8106 20.5363 27.7524C20.6073 27.6943 20.6956 27.6624 20.7868 27.6619C20.8455 27.662 20.9035 27.6752 20.9566 27.7005C21.0046 27.7232 21.0477 27.7552 21.0835 27.7949C21.1192 27.8345 21.1469 27.8809 21.1649 27.9315C21.1829 27.982 21.1909 28.0357 21.1885 28.0893C21.186 28.143 21.1731 28.1957 21.1505 28.2443L21.1526 28.2421Z" fill="white"/>
</svg>
