<svg width="46" height="46" viewBox="0 0 46 46" fill="none" xmlns="http://www.w3.org/2000/svg">
<circle cx="23" cy="23" r="23" fill="#9B477F"/>
<path d="M13 29.5C12.8674 29.5 12.7402 29.5527 12.6464 29.6465C12.5527 29.7402 12.5 29.8674 12.5 30V37.5C12.5 37.6326 12.5527 37.7598 12.6464 37.8536C12.7402 37.9473 12.8674 38 13 38C13.1326 38 13.2598 37.9473 13.3536 37.8536C13.4473 37.7598 13.5 37.6326 13.5 37.5V30C13.5 29.8674 13.4473 29.7402 13.3536 29.6465C13.2598 29.5527 13.1326 29.5 13 29.5Z" fill="white"/>
<path d="M15.8535 16.8535C16.0251 16.6824 16.2576 16.5863 16.5 16.5863C16.7423 16.5863 16.9748 16.6824 17.1465 16.8535C17.2408 16.9446 17.3671 16.995 17.4982 16.9939C17.6293 16.9927 17.7547 16.9402 17.8474 16.8475C17.9401 16.7547 17.9927 16.6293 17.9938 16.4982C17.9949 16.3671 17.9445 16.2408 17.8535 16.1465C17.4942 15.788 17.0075 15.5867 16.5 15.5867C15.9925 15.5867 15.5057 15.788 15.1465 16.1465C15.0554 16.2408 15.005 16.3671 15.0061 16.4982C15.0073 16.6293 15.0598 16.7547 15.1526 16.8475C15.2453 16.9402 15.3707 16.9927 15.5018 16.9939C15.6329 16.995 15.7592 16.9446 15.8535 16.8535Z" fill="white"/>
<path d="M19.8535 16.8535C20.0251 16.6824 20.2576 16.5863 20.5 16.5863C20.7423 16.5863 20.9748 16.6824 21.1465 16.8535C21.2408 16.9446 21.3671 16.995 21.4982 16.9939C21.6293 16.9927 21.7547 16.9402 21.8474 16.8475C21.9401 16.7547 21.9927 16.6293 21.9938 16.4982C21.9949 16.3671 21.9445 16.2408 21.8535 16.1465C21.4942 15.788 21.0075 15.5867 20.5 15.5867C19.9925 15.5867 19.5057 15.788 19.1465 16.1465C19.0554 16.2408 19.005 16.3671 19.0061 16.4982C19.0073 16.6293 19.0598 16.7547 19.1526 16.8475C19.2453 16.9402 19.3707 16.9927 19.5018 16.9939C19.6329 16.995 19.7592 16.9446 19.8535 16.8535Z" fill="white"/>
<path d="M22.4999 11.5C21.9312 11.5016 21.3678 11.3903 20.8424 11.1727C20.317 10.955 19.8399 10.6353 19.4389 10.232C19.3446 10.141 19.2183 10.0906 19.0872 10.0917C18.9561 10.0928 18.8307 10.1454 18.738 10.2381C18.6453 10.3308 18.5927 10.4562 18.5916 10.5873C18.5904 10.7184 18.6408 10.8447 18.7319 10.939C19.2255 11.4356 19.8127 11.8292 20.4595 12.0972C21.1063 12.3651 21.7998 12.502 22.4999 12.5C22.6325 12.5 22.7597 12.4474 22.8535 12.3536C22.9472 12.2598 22.9999 12.1326 22.9999 12C22.9999 11.8674 22.9472 11.7402 22.8535 11.6465C22.7597 11.5527 22.6325 11.5 22.4999 11.5Z" fill="white"/>
<path d="M36.5 34.5H34V27H36.5C36.6326 27 36.7598 26.9473 36.8536 26.8536C36.9473 26.7598 37 26.6326 37 26.5C37 26.3674 36.9473 26.2402 36.8536 26.1465C36.7598 26.0527 36.6326 26 36.5 26H33.5C33.3674 26 33.2402 26.0527 33.1465 26.1465C33.0527 26.2402 33 26.3674 33 26.5V27H31.227L27.877 23.1705C27.8318 23.1189 27.7765 23.0771 27.7145 23.0478C27.6525 23.0184 27.5851 23.0022 27.5165 23C27.448 22.9966 27.3795 23.0079 27.3156 23.0332C27.2518 23.0585 27.1942 23.0971 27.1465 23.1465C26.8633 23.4327 26.6367 23.7698 26.4785 24.14C25.6579 23.4096 24.5986 23.0042 23.5 23H21.5V22.604C22.2667 22.105 22.8969 21.4227 23.3334 20.6188C23.7699 19.8149 23.999 18.9148 24 18V16.842C24.4717 16.4223 24.8492 15.9075 25.1077 15.3315C25.3662 14.7556 25.4999 14.1314 25.5 13.5C25.5035 12.6867 25.3224 11.8832 24.9705 11.15C24.9442 11.0875 24.9055 11.0311 24.8567 10.984C24.808 10.937 24.7501 10.9003 24.6867 10.8763C24.6234 10.8523 24.5558 10.8415 24.4881 10.8444C24.4203 10.8473 24.3539 10.864 24.2929 10.8934C24.2318 10.9227 24.1773 10.9642 24.1328 11.0153C24.0883 11.0664 24.0546 11.126 24.0338 11.1905C24.013 11.255 24.0055 11.3231 24.0118 11.3905C24.0181 11.458 24.0381 11.5235 24.0705 11.583C24.3565 12.1814 24.5033 12.8368 24.5 13.5C24.4998 14.1308 24.3268 14.7495 24 15.289V14C24 13.8674 23.9473 13.7402 23.8536 13.6465C23.7598 13.5527 23.6326 13.5 23.5 13.5H21.4155C20.613 13.4977 19.8247 13.2888 19.1263 12.8934C18.428 12.498 17.8433 11.9295 17.4285 11.2425C17.3778 11.1581 17.3033 11.0905 17.2144 11.0483C17.1254 11.006 17.026 10.991 16.9285 11.005L16.4 11.081C15.805 11.1644 15.2372 11.3835 14.7405 11.7215C14.634 11.7971 14.5613 11.9114 14.538 12.0398C14.5147 12.1683 14.5425 12.3008 14.6156 12.409C14.6887 12.5173 14.8012 12.5926 14.9291 12.6189C15.057 12.6453 15.1901 12.6205 15.3 12.55C15.6713 12.2976 16.0955 12.1337 16.54 12.071L16.7525 12.041C17.2732 12.7972 17.9694 13.4159 18.7815 13.8441C19.5936 14.2724 20.4974 14.4974 21.4155 14.5H23V18C23 19.1935 22.5259 20.3381 21.682 21.182C20.8381 22.0259 19.6935 22.5 18.5 22.5C17.3065 22.5 16.1619 22.0259 15.318 21.182C14.4741 20.3381 14 19.1935 14 18V15C14.0002 14.6154 14.076 14.2345 14.223 13.879C14.2633 13.7587 14.2563 13.6276 14.2035 13.5123C14.1508 13.3969 14.0561 13.306 13.9388 13.2578C13.8214 13.2096 13.6902 13.2078 13.5716 13.2528C13.453 13.2978 13.3559 13.3861 13.3 13.5C13.1028 13.9756 13.0009 14.4852 13 15V15.289C12.6732 14.7495 12.5003 14.1308 12.5 13.5C12.5015 12.307 12.976 11.1632 13.8196 10.3196C14.6632 9.47604 15.807 9.00147 17 9.00001H20C21.0995 8.99835 22.161 9.40169 22.982 10.133C23.031 10.1769 23.0881 10.2107 23.1502 10.2324C23.2122 10.2542 23.2779 10.2636 23.3436 10.2599C23.4092 10.2563 23.4735 10.2398 23.5328 10.2113C23.5921 10.1829 23.6451 10.143 23.689 10.094C23.7329 10.045 23.7667 9.98789 23.7884 9.92585C23.8102 9.86381 23.8196 9.79808 23.8159 9.73243C23.8123 9.66678 23.7958 9.60249 23.7673 9.54322C23.7389 9.48395 23.699 9.43087 23.65 9.38701C22.6455 8.49126 21.3459 7.99742 20 8.00001H17C15.5418 8.00173 14.1439 8.58175 13.1128 9.61282C12.0817 10.6439 11.5017 12.0418 11.5 13.5C11.5001 14.1314 11.6338 14.7556 11.8923 15.3315C12.1509 15.9075 12.5283 16.4223 13 16.842V18C13.001 18.9148 13.2301 19.8149 13.6666 20.6188C14.1031 21.4227 14.7333 22.105 15.5 22.604V23H13.5C12.307 23.0015 11.1632 23.476 10.3196 24.3196C9.47603 25.1632 9.00146 26.307 9 27.5V37.5C9 37.6326 9.05268 37.7598 9.14645 37.8536C9.24021 37.9473 9.36739 38 9.5 38C9.63261 38 9.75979 37.9473 9.85355 37.8536C9.94732 37.7598 10 37.6326 10 37.5V27.5C10.0011 26.5721 10.3701 25.6825 11.0263 25.0263C11.6824 24.3702 12.5721 24.0011 13.5 24H13.675L15.543 28.203C15.574 28.2729 15.6207 28.3348 15.6794 28.3839C15.7381 28.4329 15.8073 28.4679 15.8816 28.486C15.956 28.5041 16.0335 28.5049 16.1082 28.4884C16.1829 28.4718 16.2528 28.4383 16.3125 28.3905L17.0125 27.8305C17.1089 27.9377 17.2167 28.0341 17.334 28.118L16.934 30.9095C16.9153 31.0408 16.9495 31.1741 17.0291 31.2802C17.1087 31.3862 17.2272 31.4563 17.3585 31.475C17.382 31.4784 17.4057 31.4801 17.4295 31.48C17.5498 31.4799 17.666 31.4364 17.7569 31.3575C17.8477 31.2786 17.907 31.1696 17.924 31.0505L18.29 28.4845C18.4286 28.5052 18.5694 28.5052 18.708 28.4845L19.48 33.895L18.5 35.528L17.5205 33.8955L17.645 33.0315C17.664 32.9002 17.63 32.7668 17.5506 32.6606C17.4712 32.5543 17.3528 32.484 17.2215 32.465C17.0902 32.4461 16.9568 32.48 16.8505 32.5594C16.7443 32.6389 16.674 32.7572 16.655 32.8885L16.505 33.9285C16.4886 34.0426 16.5121 34.1588 16.5715 34.2575L18.0715 36.7575C18.116 36.8314 18.1788 36.8926 18.2539 36.9351C18.3289 36.9775 18.4137 36.9999 18.5 36.9999C18.5863 36.9999 18.6711 36.9775 18.7461 36.9351C18.8212 36.8926 18.8841 36.8314 18.9285 36.7575L20.4285 34.2575C20.4877 34.1591 20.5112 34.0432 20.495 33.9295L19.667 28.118C19.7841 28.0341 19.8917 27.9377 19.988 27.8305L20.688 28.3905C20.7477 28.4383 20.8176 28.4718 20.8923 28.4884C20.967 28.5049 21.0445 28.5041 21.1189 28.486C21.1932 28.4679 21.2624 28.4329 21.3211 28.3839C21.3798 28.3348 21.4265 28.2729 21.4575 28.203L23.325 24H23.5C24.0217 23.9991 24.5368 24.1161 25.0069 24.3423C25.477 24.5686 25.8898 24.8982 26.2145 25.3065C26.1901 25.8974 26.3298 26.4836 26.618 27H24C23.7105 27.0002 23.4273 27.0842 23.1845 27.2418C22.9416 27.3993 22.7496 27.6238 22.6315 27.8881C22.5134 28.1524 22.4743 28.4452 22.519 28.7312C22.5636 29.0173 22.69 29.2843 22.883 29.5C22.6364 29.7747 22.5 30.1309 22.5 30.5C22.5 30.8692 22.6364 31.2253 22.883 31.5C22.637 31.7741 22.5005 32.1291 22.4994 32.4974C22.4983 32.8656 22.6327 33.2215 22.877 33.497C22.6846 33.7133 22.5589 33.9805 22.5151 34.2666C22.4712 34.5527 22.511 34.8453 22.6297 35.1093C22.7484 35.3732 22.9409 35.5972 23.1841 35.7542C23.4272 35.9112 23.7106 35.9945 24 35.994H24.9455C25.0152 35.9995 25.0852 35.9907 25.1513 35.9682C25.2175 35.9457 25.2783 35.91 25.3302 35.8632C25.3821 35.8164 25.4239 35.7595 25.4531 35.6961C25.4823 35.6326 25.4983 35.5639 25.5 35.494C25.5 35.3614 25.4473 35.2342 25.3536 35.1405C25.2598 35.0467 25.1326 34.994 25 34.994H24C23.8742 34.9863 23.7559 34.9314 23.6689 34.8403C23.5818 34.7491 23.5324 34.6285 23.5305 34.5025C23.5286 34.3764 23.5744 34.2544 23.6587 34.1606C23.7429 34.0669 23.8595 34.0085 23.985 33.997C24.058 33.9938 24.1294 33.9743 24.194 33.94H25C25.1326 33.94 25.2598 33.8873 25.3536 33.7936C25.4473 33.6998 25.5 33.5726 25.5 33.44C25.5 33.3074 25.4473 33.1802 25.3536 33.0865C25.2598 32.9927 25.1326 32.94 25 32.94H24C23.9515 32.9426 23.9037 32.9522 23.858 32.9685C23.7555 32.94 23.6651 32.8788 23.6005 32.7943C23.5358 32.7097 23.5006 32.6064 23.5 32.5C23.5 32.3674 23.5527 32.2402 23.6465 32.1465C23.7402 32.0527 23.8674 32 24 32H25C25.1326 32 25.2598 31.9473 25.3536 31.8536C25.4473 31.7598 25.5 31.6326 25.5 31.5C25.5 31.3674 25.4473 31.2402 25.3536 31.1465C25.2598 31.0527 25.1326 31 25 31H24C23.8674 31 23.7402 30.9473 23.6465 30.8536C23.5527 30.7598 23.5 30.6326 23.5 30.5C23.5 30.3674 23.5527 30.2402 23.6465 30.1465C23.7402 30.0527 23.8674 30 24 30H25C25.1326 30 25.2598 29.9473 25.3536 29.8536C25.4473 29.7598 25.5 29.6326 25.5 29.5C25.5 29.3674 25.4473 29.2402 25.3536 29.1465C25.2598 29.0527 25.1326 29 25 29H24C23.8674 29 23.7402 28.9473 23.6465 28.8536C23.5527 28.7598 23.5 28.6326 23.5 28.5C23.5 28.3674 23.5527 28.2402 23.6465 28.1465C23.7402 28.0527 23.8674 28 24 28H27.5C27.5885 28 27.6754 27.9765 27.7519 27.9319C27.8283 27.8873 27.8915 27.8232 27.9351 27.7462C27.9787 27.6692 28.001 27.582 27.9999 27.4935C27.9987 27.405 27.9741 27.3184 27.9285 27.2425L27.52 26.562C27.313 26.2177 27.2036 25.8235 27.2036 25.4218C27.2036 25.02 27.313 24.6258 27.52 24.2815L30.6245 27.8315C30.6716 27.8846 30.7294 27.9271 30.7941 27.9562C30.8589 27.9852 30.929 28.0002 31 28H33V33.5075C32.1676 33.5583 31.3682 33.8511 30.7 34.35C30.1367 34.7705 29.453 34.9984 28.75 35H27C26.8674 35 26.7402 35.0527 26.6465 35.1465C26.5527 35.2402 26.5 35.3674 26.5 35.5C26.5 35.6326 26.5527 35.7598 26.6465 35.8536C26.7402 35.9473 26.8674 36 27 36H28.75C29.6693 35.998 30.5634 35.7 31.3 35.15C31.7959 34.7839 32.3853 34.5657 33 34.5205V35C33 35.1326 33.0527 35.2598 33.1465 35.3536C33.2402 35.4473 33.3674 35.5 33.5 35.5H36.5C36.6326 35.5 36.7598 35.4473 36.8536 35.3536C36.9473 35.2598 37 35.1326 37 35C37 34.8674 36.9473 34.7402 36.8536 34.6465C36.7598 34.5527 36.6326 34.5 36.5 34.5ZM18.5 23.5C19.1847 23.4991 19.8632 23.3695 20.5 23.118V23.76L18.5 25.36L16.5 23.76V23.118C17.1368 23.3695 17.8153 23.4991 18.5 23.5ZM16.1935 27.205L14.7695 24H15.5C15.5 24.075 15.5168 24.149 15.5493 24.2166C15.5817 24.2842 15.629 24.3436 15.6875 24.3905L17.7 26L16.1935 27.205ZM18.5 27.5C18.3693 27.4987 18.2401 27.4715 18.12 27.42C17.9999 27.3685 17.8911 27.2938 17.8 27.2L18.5 26.64L19.2 27.2C19.1089 27.2938 19.0001 27.3685 18.88 27.42C18.7599 27.4715 18.6307 27.4987 18.5 27.5ZM20.8065 27.205L19.3 26L21.312 24.3905C21.3706 24.3437 21.418 24.2843 21.4505 24.2167C21.4831 24.1491 21.5 24.075 21.5 24H22.2305L20.8065 27.205Z" fill="white"/>
</svg>
